<svg width="1120" height="230" viewBox="0 0 1120 230" fill="none" xmlns="http://www.w3.org/2000/svg">
    <mask id="58yc3xi1wa" style="mask-type:alpha" maskUnits="userSpaceOnUse" x="0" y="0" width="1120" height="230">
        <path transform="rotate(-90 0 230)" fill="#F8F5F5" d="M0 230h230v1120H0z"/>
    </mask>
    <g mask="url(#58yc3xi1wa)" stroke-width="36" stroke-linecap="round">
        <path d="M-45.5 55.5c9.5 23.197 23.126 40.105 37 60 24.408 35 51 61.138 83 69 28.199 6.928 42.604 6.693 72.5 12 113.852 20.208 27.542 94.667-51.25 112.537" stroke="#EA7DB7"/>
        <path d="M93.5-4c79 146.5 145.5 177 284 151.5m67 36c45 62.5 60 74 79.128 89.062" stroke="#2168C4"/>
        <path d="M636.629 332.746c0-30.482 63.727-111.38 76.907-128.703 21.389-28.111 58.546-52.842 125.753-66.508 43.363-8.817 87.793-8.681 131.086 6.936C1071.94 186.093 1102.54 244.674 1113 270.766" stroke="#2B8649"/>
        <path d="M607.894 253.962c0-27.038-11.136-55.11-40.162-78.974-17.916-14.73-33.281-27.396-59.937-39.487-27.169-12.324-58.794-21.9-85.013-34.586-34.209-16.552-32.088-39.931-31.395-61.311.829-25.573 4.633-53.719 18.348-78.604" stroke="#F21000"/>
        <path d="M508.816-37.333c40.478 24.16 55.955 50.14 64.423 79.714 5.116 17.87 13.235 35.528 36.084 50.676 25.068 16.619 66.783 19.444 103.361 7.768 23.21-7.409 40.738-21.181 61.16-30.332 46.731-20.939 96.827-42.903 155.144-56.872C978.57 1.744 1028.84-6.102 1081.28-14.03" stroke="#FFA902"/>
    </g>
</svg>
