<svg width="40" height="40" viewBox="0 0 40 40" fill="none" xmlns="http://www.w3.org/2000/svg">
    <path d="M17.066 0a20.35 20.35 0 0 0-3.118.75C3.36 4.195-2.442 15.55.985 26.114c3.427 10.563 14.788 16.334 25.375 12.89a20.34 20.34 0 0 0 2.963-1.23l-2.79-8.6a11.333 11.333 0 0 1-2.9 1.425c-5.935 1.931-12.304-1.304-14.226-7.226-1.921-5.922 1.333-12.288 7.267-14.219a11.326 11.326 0 0 1 3.183-.554L17.066 0z" fill="#F23A00"/>
    <path d="M39.779 29.823a4.912 4.912 0 0 1-3.233 6.144 4.903 4.903 0 0 1-6.136-3.238 4.912 4.912 0 0 1 3.233-6.144 4.903 4.903 0 0 1 6.136 3.238z" fill="#2191FB"/>
</svg>
