<svg width="18" height="19" viewBox="0 0 18 19" fill="none" xmlns="http://www.w3.org/2000/svg">
    <path d="M.75 2.577c0-.733.594-1.327 1.327-1.327H6.23c.733 0 1.327.594 1.327 1.327V6.73c0 .733-.594 1.327-1.327 1.327H2.077A1.327 1.327 0 0 1 .75 6.73V2.577zm9.692 0c0-.733.594-1.327 1.327-1.327h4.154c.733 0 1.327.594 1.327 1.327V6.73c0 .733-.594 1.327-1.327 1.327H11.77a1.327 1.327 0 0 1-1.327-1.327V2.577zM.75 12.269c0-.733.594-1.327 1.327-1.327H6.23c.733 0 1.327.594 1.327 1.327v4.154c0 .733-.594 1.327-1.327 1.327H2.077A1.327 1.327 0 0 1 .75 16.423V12.27zm9.692 0c0-.733.594-1.327 1.327-1.327h4.154c.733 0 1.327.594 1.327 1.327v4.154c0 .733-.594 1.327-1.327 1.327H11.77a1.327 1.327 0 0 1-1.327-1.327V12.27z" stroke="#484848" stroke-width="1.5"/>
</svg>
