<svg width="16" height="18" viewBox="0 0 16 18" fill="none" xmlns="http://www.w3.org/2000/svg">
    <path d="m13.673 4.988-.533 11.317c-.01.22-.233.41-.486.41H3.346c-.252 0-.474-.19-.485-.41L2.327 4.988c-.017-.355-.356-.63-.757-.616-.402.015-.713.314-.697.67l.534 11.316c.043.91.907 1.642 1.938 1.642h9.31c1.03 0 1.895-.731 1.938-1.642l.534-11.317c.016-.355-.295-.654-.697-.669-.401-.015-.74.26-.757.616z" fill="#A9A9A9"/>
    <path d="M7.418 6.043v8.743c0 .284.26.514.582.514.321 0 .582-.23.582-.514V6.043c0-.284-.26-.514-.582-.514-.321 0-.582.23-.582.514zM4.218 6.058l.291 8.743c.01.284.278.507.599.499.321-.009.574-.245.564-.53l-.29-8.742c-.01-.284-.278-.508-.6-.5-.32.01-.573.246-.564.53zM10.618 6.028l-.29 8.743c-.01.284.243.52.564.529.321.008.59-.215.599-.5l.29-8.742c.01-.284-.243-.52-.564-.53-.321-.008-.59.216-.599.5zM.727 3.471h14.546c.401 0 .727-.287.727-.642 0-.355-.326-.643-.727-.643H.727c-.401 0-.727.288-.727.643 0 .355.326.642.727.642z" fill="#A9A9A9"/>
    <path d="m5.79 2.62.303-.937c.065-.201.36-.397.595-.397h2.624c.236 0 .53.196.595.397l.303.936 1.398-.353-.303-.937C11.063.576 10.197 0 9.313 0H6.688c-.885 0-1.75.577-1.994 1.33l-.302.936 1.398.353z" fill="#A9A9A9"/>
</svg>
