<svg width="13" height="15" viewBox="0 0 13 15" fill="none" xmlns="http://www.w3.org/2000/svg">
    <path d="M11.75 13.496H1.253a.748.748 0 0 0-.75.752.754.754 0 0 0 .75.752H11.75a.748.748 0 0 0 .75-.752.753.753 0 0 0-.75-.752zM1.253 11.991h.067l3.127-.286c.343-.034.663-.185.907-.428l6.748-6.77a1.447 1.447 0 0 0-.052-2.038L9.996.408A1.497 1.497 0 0 0 8 .355l-6.748 6.77a1.506 1.506 0 0 0-.427.91L.503 11.17a.754.754 0 0 0 .462.764c.091.038.19.057.288.056zm7.7-10.53L11 3.514 9.5 4.981 7.492 2.965l1.462-1.504zM2.28 8.163l4.221-4.205L8.526 5.99l-4.199 4.212-2.25.21.203-2.248z" fill="#696969"/>
</svg>
