<svg width="22" height="20" viewBox="0 0 22 20" fill="none" xmlns="http://www.w3.org/2000/svg">
    <path d="M9.148 19.906c-.482-.255-.937-1.058-1.022-1.804-.081-.709.265-1.602.939-2.423.85-1.036.991-1.346 1.362-3 .072-.323.147-.627.166-.676.018-.049-.18.135-.44.408-.624.655-1.468 1.413-1.924 1.728-.526.363-1.136.652-2.082.982-.454.159-.971.354-1.149.434-1.386.622-1.387 1.567-.003 2.497.097.064.186.126.2.137.059.047-.148.112-.363.112-.622.002-1.362-.687-1.568-1.46a2.25 2.25 0 0 1 .028-1.201c.257-.814.957-1.407 2.18-1.847.562-.202 1.324-.578 1.738-.857.173-.117.604-.44.957-.717l.642-.505-.166-.033c-.091-.018-.355-.06-.586-.091-1.064-.147-1.659 0-3.63-.59-1.973-.59-2.5-1.5-2.5-1.5s-1-.78-1-2.5 2.116-1.918 2.5-1c.324.78-.162 1.5-.163 2 0 .5.187 1.452.878 1.726.69.274 1.786.274 2.786.274.826 0 1.906-.308 2.13-1.128.137-.506-.052-1.529-.522-2.824-.373-1.03-.46-1.425-.455-2.1.004-.681.102-1.105.395-1.703.393-.803.971-1.363 1.83-1.775.693-.331 1.3-.467 2.104-.47.732-.003 1.101.063 1.693.3.546.218.914.464 1.369.916.705.7 1.078 1.463 1.198 2.448.099.815-.058 1.59-.63 3.115-.202.538-.395 1.129-.429 1.314-.121.66.105 1.125.689 1.417.61.305 1.31.505 1.915.216.418-.199.58-.854.828-1.726 0-1 .196-1.615.957-2 .761-.385 1.994.278 2 1 .006.722-.552 2.4-1.434 3-1.467 1-2.566 1.363-3.762 1.424-.324.017-.583.048-.576.07.045.125.855.992 1.16 1.24.47.383.833.604 1.85 1.126.464.238.998.536 1.187.663.432.29.851.726 1.023 1.064.461.91.048 2.122-.882 2.585-.292.146-.73.174-.935.061-.116-.064-.114-.068.17-.228.4-.225.75-.568.906-.887.163-.334.155-.759-.02-1.004-.15-.211-.65-.461-1.644-.822-1.955-.71-2.5-1.064-4.307-2.801-.46-.443-.846-.796-.858-.784-.012.012.106.39.261.841.417 1.206.76 1.882 1.435 2.823.733 1.022.92 1.33 1.072 1.767.31.89.162 1.686-.434 2.338-.502.549-1.106.684-1.443.323-.144-.155-.132-.194.058-.195.376-.003.86-.382.99-.776.152-.462-.115-1.142-.712-1.813l-.757-.85c-.768-.859-1.354-1.901-1.866-3.318-.146-.402-.275-.698-.287-.657-.013.041-.073.312-.134.601-.24 1.13-.652 2.15-1.137 2.813-.129.175-.52.645-.869 1.045-.349.4-.717.847-.818.994-.19.28-.334.675-.334.92 0 .206.13.49.316.685.154.162.689.457.83.457.056 0 .057.014.004.078-.19.23-.598.285-.905.123z" fill="#484848"/>
    <path d="M10.471 4.995a.501.501 0 1 1-1.002 0 .501.501 0 0 1 1.002 0zM13.501 5.001a.501.501 0 1 1-1.002 0 .501.501 0 0 1 1.002 0z" fill="#fff"/>
</svg>
