<svg width="19" height="21" viewBox="0 0 19 21" fill="none" xmlns="http://www.w3.org/2000/svg">
    <path d="M16.571 13.546v.079c0 3.797-3.166 6.875-7.071 6.875s-7.071-3.078-7.071-6.875v-.079C1.319 13.27.5 12.29.5 11.125c0-1.165.82-2.144 1.929-2.421V7.375C2.429 3.578 5.595.5 9.5.5s7.071 3.078 7.071 6.875v1.329c1.11.277 1.929 1.256 1.929 2.421 0 1.165-.82 2.144-1.929 2.421zm-1.285-4.921h-.705c-1.475 0-2.76-.976-3.118-2.367l-.034-.133L9.16 7.227A13.924 13.924 0 0 1 3.714 8.61v5.015c0 3.107 2.59 5.625 5.786 5.625 3.195 0 5.786-2.518 5.786-5.625v-5zm-9 1.875c0-.345.288-.625.643-.625.355 0 .642.28.642.625v1.25a.634.634 0 0 1-.642.625.634.634 0 0 1-.643-.625V10.5zm5.143 0c0-.345.287-.625.642-.625.356 0 .643.28.643.625v1.25a.634.634 0 0 1-.643.625.634.634 0 0 1-.642-.625V10.5zm-4.29 6.087a.613.613 0 0 1-.043-.883.656.656 0 0 1 .909-.04c.334.296.745.461 1.167.461.438 0 .851-.162 1.177-.456a.656.656 0 0 1 .909.035.613.613 0 0 1-.036.883 3.057 3.057 0 0 1-2.05.788c-.754 0-1.47-.288-2.034-.788zm-5.353-5.462c0 .463.258.867.643 1.083v-2.166c-.385.216-.643.62-.643 1.083zm15.428 0c0-.463-.258-.867-.643-1.083v2.166c.385-.216.643-.62.643-1.083z" fill="#231F20"/>
</svg>
