<svg width="20" height="21" viewBox="0 0 20 21" fill="none" xmlns="http://www.w3.org/2000/svg">
    <path d="M19.805 8.541H19V8.5h-9v4h5.652A5.998 5.998 0 0 1 4 10.5a6 6 0 0 1 6-6c1.53 0 2.921.577 3.98 1.52L16.81 3.19A9.954 9.954 0 0 0 10 .5C4.478.5 0 4.978 0 10.5c0 5.523 4.478 10 10 10 5.523 0 10-4.477 10-10 0-.67-.069-1.325-.195-1.959z" fill="#FFC107"/>
    <path d="m1.153 5.846 3.286 2.409A5.997 5.997 0 0 1 10 4.5c1.53 0 2.921.577 3.98 1.52L16.81 3.19A9.954 9.954 0 0 0 10 .5a9.994 9.994 0 0 0-8.847 5.346z" fill="#FF3D00"/>
    <path d="M10 20.5c2.583 0 4.93-.988 6.704-2.596l-3.095-2.619A5.955 5.955 0 0 1 10 16.5a5.997 5.997 0 0 1-5.641-3.973L1.098 15.04C2.752 18.277 6.114 20.5 10 20.5z" fill="#4CAF50"/>
    <path d="M19.805 8.541H19V8.5h-9v4h5.652a6.02 6.02 0 0 1-2.044 2.786l.002-.001 3.095 2.619C16.485 18.103 20 15.5 20 10.5c0-.67-.069-1.325-.195-1.959z" fill="#1976D2"/>
</svg>
