<svg width="18" height="15" viewBox="0 0 18 15" fill="none" xmlns="http://www.w3.org/2000/svg">
    <path fill-rule="evenodd" clip-rule="evenodd" d="M7.408 1.071c-1.173 0-2.125.96-2.125 2.143 0 1.184.952 2.143 2.125 2.143 1.174 0 2.125-.96 2.125-2.143a2.134 2.134 0 0 0-2.125-2.143zM4.221 3.214C4.22 1.44 5.648 0 7.408 0c1.76 0 3.188 1.44 3.188 3.214 0 1.776-1.427 3.215-3.188 3.215-1.76 0-3.187-1.44-3.187-3.215zM.502 13.393c0-3.255 2.616-5.893 5.844-5.893H8.47c3.227 0 5.844 2.638 5.844 5.893v.536c0 .591-.476 1.071-1.063 1.071H1.564c-.586 0-1.062-.48-1.062-1.071v-.536zM6.346 8.57c-2.64 0-4.782 2.159-4.782 4.822v.536h11.688v-.536c0-2.663-2.14-4.822-4.781-4.822H6.346zm9.031-5.892a.534.534 0 0 0-.531-.536.533.533 0 0 0-.531.536v1.607H12.72a.533.533 0 0 0-.531.535c0 .296.237.536.53.536h1.595v1.607c0 .296.237.536.53.536.294 0 .532-.24.532-.536V5.357h1.594c.293 0 .531-.24.531-.536a.534.534 0 0 0-.531-.535h-1.594V2.679z" fill="#fff"/>
</svg>
