<svg width="17" height="15" viewBox="0 0 17 15" fill="none" xmlns="http://www.w3.org/2000/svg">
    <path fill-rule="evenodd" clip-rule="evenodd" d="M6.906 1.071c-1.173 0-2.125.96-2.125 2.143 0 1.184.952 2.143 2.125 2.143 1.174 0 2.125-.96 2.125-2.143a2.134 2.134 0 0 0-2.125-2.143zM3.72 3.214C3.719 1.44 5.146 0 6.906 0c1.76 0 3.188 1.44 3.188 3.214 0 1.776-1.427 3.215-3.188 3.215-1.76 0-3.187-1.44-3.187-3.215zM0 13.393C0 10.138 2.616 7.5 5.844 7.5h2.125c3.227 0 5.843 2.638 5.843 5.893v.536c0 .591-.475 1.071-1.062 1.071H1.062C.477 15 0 14.52 0 13.929v-.536zM5.844 8.57c-2.64 0-4.782 2.159-4.782 4.822v.536H12.75v-.536c0-2.663-2.14-4.822-4.781-4.822H5.844zm9.031-5.892a.534.534 0 0 0-.531-.536.534.534 0 0 0-.531.536v1.607h-1.594a.534.534 0 0 0-.531.535c0 .296.237.536.53.536h1.595v1.607c0 .296.237.536.53.536.294 0 .532-.24.532-.536V5.357h1.594c.293 0 .531-.24.531-.536a.534.534 0 0 0-.531-.535h-1.594V2.679z" fill="#484848"/>
</svg>
