<svg width="20" height="19" viewBox="0 0 20 19" fill="none" xmlns="http://www.w3.org/2000/svg">
    <path fill-rule="evenodd" clip-rule="evenodd" d="m5.722 17.045 2.62.7v-.916l.214-.215h1.498v1.832H8.448l-1.978-.862-.75-.54z" fill="#CDBDB2"/>
    <path fill-rule="evenodd" clip-rule="evenodd" d="m14.278 17.045-2.567.7v-.916l-.214-.215H10v1.832h1.604l1.979-.862.695-.54z" fill="#CDBDB2"/>
    <path fill-rule="evenodd" clip-rule="evenodd" d="m8.556 15.05-.214 1.78.268-.216h2.78l.321.215-.214-1.778-.428-.27-2.139.054-.374.216z" fill="#393939"/>
    <path fill-rule="evenodd" clip-rule="evenodd" d="M7.112 3.033 8.396 6.05l.588 8.784h2.085l.642-8.784 1.177-3.018H7.112z" fill="#F89C35"/>
    <path fill-rule="evenodd" clip-rule="evenodd" d="M1.497 9.662 0 14.027l3.743-.216H6.15v-1.886l-.107-3.88-.535.431-4.01 1.186z" fill="#F89D35"/>
    <path fill-rule="evenodd" clip-rule="evenodd" d="m4.332 10.147 4.385.107-.482 2.264-2.085-.539-1.818-1.832z" fill="#D87C30"/>
    <path fill-rule="evenodd" clip-rule="evenodd" d="m4.332 10.2 1.818 1.725v1.725L4.332 10.2z" fill="#EA8D3A"/>
    <path fill-rule="evenodd" clip-rule="evenodd" d="m6.15 11.979 2.139.539.695 2.317-.481.27-2.353-1.402V11.98z" fill="#F89D35"/>
    <path fill-rule="evenodd" clip-rule="evenodd" d="m6.15 13.704-.428 3.34 2.834-1.993-2.406-1.348z" fill="#EB8F35"/>
    <path fill-rule="evenodd" clip-rule="evenodd" d="m8.717 10.254.267 4.581-.802-2.344.535-2.237z" fill="#EA8E3A"/>
    <path fill-rule="evenodd" clip-rule="evenodd" d="m3.69 13.758 2.46-.054-.428 3.34-2.032-3.287z" fill="#D87C30"/>
    <path fill-rule="evenodd" clip-rule="evenodd" d="m1.176 18.5 4.546-1.455-2.032-3.288-3.69.27L1.176 18.5z" fill="#EB8F35"/>
    <path fill-rule="evenodd" clip-rule="evenodd" d="m8.396 6.05-2.3 1.941-1.764 2.156 4.385.161-.321-4.257z" fill="#E8821E"/>
    <path fill-rule="evenodd" clip-rule="evenodd" d="m5.722 17.045 2.834-1.994-.214 1.724v.97l-1.925-.377-.695-.323zM14.278 17.045l-2.78-1.994.213 1.724v.97l1.925-.377.642-.323z" fill="#DFCEC3"/>
    <path fill-rule="evenodd" clip-rule="evenodd" d="m7.54 11.225.588 1.24-2.085-.54 1.497-.7z" fill="#393939"/>
    <path fill-rule="evenodd" clip-rule="evenodd" d="m1.123.5 7.273 5.55-1.23-3.017L1.123.5z" fill="#E88F35"/>
    <path fill-rule="evenodd" clip-rule="evenodd" d="M1.123.5.16 3.464l.535 3.234-.374.215.535.485-.428.377.588.54-.374.323.855 1.078 4.011-1.24c1.96-1.58 2.923-2.39 2.888-2.425C8.36 6.015 5.936 4.165 1.123.5z" fill="#8E5A30"/>
    <path fill-rule="evenodd" clip-rule="evenodd" d="M18.503 9.662 20 14.027l-3.743-.216H13.85v-1.886l.107-3.88.535.431 4.01 1.186z" fill="#F89D35"/>
    <path fill-rule="evenodd" clip-rule="evenodd" d="m15.668 10.147-4.385.107.482 2.264 2.085-.539 1.819-1.832z" fill="#D87C30"/>
    <path fill-rule="evenodd" clip-rule="evenodd" d="m15.668 10.2-1.818 1.725v1.725l1.819-3.45z" fill="#EA8D3A"/>
    <path fill-rule="evenodd" clip-rule="evenodd" d="m13.85 11.979-2.139.539-.695 2.317.481.27 2.353-1.402V11.98z" fill="#F89D35"/>
    <path fill-rule="evenodd" clip-rule="evenodd" d="m13.85 13.704.428 3.34-2.78-1.94 2.352-1.4z" fill="#EB8F35"/>
    <path fill-rule="evenodd" clip-rule="evenodd" d="m11.283 10.254-.267 4.581.802-2.344-.535-2.237z" fill="#EA8E3A"/>
    <path fill-rule="evenodd" clip-rule="evenodd" d="m16.31 13.758-2.46-.054.428 3.34 2.032-3.287z" fill="#D87C30"/>
    <path fill-rule="evenodd" clip-rule="evenodd" d="m18.823 18.5-4.545-1.455 2.032-3.288 3.69.27-1.177 4.473z" fill="#EB8F35"/>
    <path fill-rule="evenodd" clip-rule="evenodd" d="m11.604 6.05 2.3 1.941 1.764 2.156-4.385.161.321-4.257z" fill="#E8821E"/>
    <path fill-rule="evenodd" clip-rule="evenodd" d="m12.46 11.225-.588 1.24 2.085-.54-1.497-.7z" fill="#393939"/>
    <path fill-rule="evenodd" clip-rule="evenodd" d="m18.877.5-7.273 5.55 1.23-3.017L18.877.5z" fill="#E88F35"/>
    <path fill-rule="evenodd" clip-rule="evenodd" d="m18.877.5.963 2.964-.535 3.234.374.215-.535.485.428.377-.588.54.374.323-.855 1.078-4.011-1.24c-1.96-1.58-2.923-2.39-2.888-2.425.036-.036 2.46-1.886 7.273-5.551z" fill="#8E5A30"/>
</svg>
