<svg width="20" height="17" viewBox="0 0 20 17" fill="none" xmlns="http://www.w3.org/2000/svg">
    <path fill-rule="evenodd" clip-rule="evenodd" d="M0 15.436C0 12.29 2.505 9.74 5.594 9.74h2.03c3.089 0 5.593 2.55 5.593 5.696 0 .864-.688 1.564-1.536 1.564H1.536C.688 17 0 16.3 0 15.436zm12.174 0c0-2.56-2.038-4.634-4.55-4.634h-2.03c-2.513 0-4.55 2.075-4.55 4.634 0 .277.22.502.492.502h10.145a.497.497 0 0 0 .493-.502zM11.29 7.722a5.52 5.52 0 0 1 1.087-.107h2.029c3.09 0 5.594 2.55 5.594 5.696 0 .864-.688 1.564-1.536 1.564h-3.16a.527.527 0 0 1-.521-.531c0-.294.233-.532.521-.532h3.16a.497.497 0 0 0 .492-.501c0-2.56-2.037-4.634-4.55-4.634h-2.03c-.302 0-.598.03-.884.087a.522.522 0 0 1-.613-.418.53.53 0 0 1 .411-.624zM6.609 2.833c-1.153 0-2.087.952-2.087 2.125 0 1.174.934 2.125 2.087 2.125 1.152 0 2.087-.951 2.087-2.125 0-1.173-.935-2.125-2.087-2.125zm-3.13 2.125c0-1.76 1.4-3.187 3.13-3.187 1.729 0 3.13 1.427 3.13 3.187 0 1.76-1.402 3.188-3.13 3.188-1.73 0-3.13-1.427-3.13-3.188zM14 1.063c-.913 0-1.652.753-1.652 1.682 0 .929.74 1.682 1.652 1.682.912 0 1.652-.753 1.652-1.682 0-.93-.74-1.683-1.652-1.683zm-2.696 1.682C11.304 1.229 12.511 0 14 0s2.695 1.229 2.695 2.745S15.49 5.49 14 5.49c-1.489 0-2.696-1.23-2.696-2.745z" fill="#696969"/>
</svg>
