<svg width="18" height="17" viewBox="0 0 18 17" fill="none" xmlns="http://www.w3.org/2000/svg">
    <path d="M16.227 3.4h-2.125V1.275A1.275 1.275 0 0 0 12.827 0h-7.65c-.01 0-.018.005-.027.005a.42.42 0 0 0-.11.022c-.013.005-.027.008-.04.014a.422.422 0 0 0-.124.085l-4.25 4.25a.425.425 0 0 0-.085.125.425.425 0 0 0-.036.15c0 .008-.005.017-.005.026v8.498a1.275 1.275 0 0 0 1.275 1.275H4.75v1.275A1.275 1.275 0 0 0 6.025 17h10.202a1.275 1.275 0 0 0 1.275-1.275V4.675A1.275 1.275 0 0 0 16.227 3.4zM4.752 1.451v2.374a.425.425 0 0 1-.425.425H1.953l2.799-2.8zm-3.4 11.724V5.1h2.975a1.275 1.275 0 0 0 1.275-1.275V.85h7.225a.425.425 0 0 1 .425.425v11.9a.425.425 0 0 1-.425.425H1.777a.425.425 0 0 1-.425-.425zm15.3 2.55a.425.425 0 0 1-.425.425h-10.2a.425.425 0 0 1-.425-.425V14.45h7.225a1.275 1.275 0 0 0 1.275-1.275V4.25h2.125a.425.425 0 0 1 .425.425v11.05z" fill="#696969"/>
    <path d="M3.902 6.8h6.8a.425.425 0 0 0 0-.85h-6.8a.425.425 0 0 0 0 .85zM3.902 8.925h6.8a.425.425 0 0 0 0-.85h-6.8a.425.425 0 0 0 0 .85zM8.152 10.625a.425.425 0 0 0-.425-.425H3.902a.425.425 0 0 0 0 .85h3.825a.425.425 0 0 0 .425-.425zM10.702 10.2H9.427a.425.425 0 0 0 0 .85h1.275a.425.425 0 0 0 0-.85z" fill="#696969"/>
</svg>
