<svg width="16" height="18" viewBox="0 0 16 18" fill="none" xmlns="http://www.w3.org/2000/svg">
    <path d="M11.961 8.468a3.604 3.604 0 0 1-1.34-.269 3.463 3.463 0 0 1-1.124-.744A3.348 3.348 0 0 1 8.5 5.053a3.354 3.354 0 0 1 1.043-2.384L11.71.602a.44.44 0 0 1 .332-.133.487.487 0 0 1 .331.138l2.13 2.097a3.348 3.348 0 0 1 .998 2.402 3.354 3.354 0 0 1-1.04 2.385 3.437 3.437 0 0 1-1.144.733c-.43.168-.89.251-1.355.244zM5.445 17.53a4.936 4.936 0 0 1-3.521-1.52 5.152 5.152 0 0 1 .066-7.179l3.095-3.1a.627.627 0 0 1 .473-.2.667.667 0 0 1 .474.207l3.041 3.147a5.152 5.152 0 0 1-.06 7.18 4.89 4.89 0 0 1-3.568 1.466z" fill="#2168C4"/>
    <path d="M8.548 12.431c0 1.657-1.334 3-2.98 3a2.99 2.99 0 0 1-2.981-3c0-1.657 1.334-3 2.98-3a2.99 2.99 0 0 1 2.981 3z" fill="#fff"/>
    <path d="M4.375 11.231H6.76v2.4H4.375v-2.4z" fill="#2168C4"/>
</svg>
