<svg width="12" height="16" viewBox="0 0 12 16" fill="none" xmlns="http://www.w3.org/2000/svg">
    <path d="m10.177 4.656-.393 9.431a.366.366 0 0 1-.357.342H2.57a.366.366 0 0 1-.358-.342l-.393-9.43A.536.536 0 0 0 .75 4.7l.393 9.43A1.437 1.437 0 0 0 2.57 15.5h6.857c.76 0 1.396-.61 1.428-1.368l.393-9.431a.536.536 0 0 0-1.07-.045z" fill="#A9A9A9"/>
    <path d="M5.57 5.536v7.285a.429.429 0 1 0 .857 0V5.536a.429.429 0 0 0-.857 0zM3.213 5.548l.214 7.286a.429.429 0 1 0 .857-.025L4.07 5.523a.429.429 0 0 0-.857.025zM7.927 5.523l-.214 7.286a.429.429 0 1 0 .857.025l.214-7.286a.429.429 0 1 0-.857-.025zM.641 3.393h10.714a.536.536 0 0 0 0-1.072H.641a.536.536 0 0 0 0 1.072z" fill="#A9A9A9"/>
    <path d="m4.37 2.683.224-.78a.52.52 0 0 1 .438-.332h1.932c.175 0 .391.164.439.331l.223.78 1.03-.293-.223-.781C8.254.98 7.617.5 6.964.5H5.032c-.652 0-1.29.48-1.469 1.108l-.223.78 1.03.295z" fill="#A9A9A9"/>
</svg>
