<svg width="66" height="60" viewBox="0 0 66 60" fill="none" xmlns="http://www.w3.org/2000/svg">
    <path d="M34.84.073C20.006-.951 6.178 8.95 2.003 23.506.612 28.356.761 33.29.923 38.229c.232 7.183 2.413 13.724 6.726 19.508 1.583 2.118 3.26 2.64 5.77 1.79 1.938-.657 3.86-1.36 5.782-2.043 2.786-.986 3.251-2.156 1.867-4.732-3.25-6.064-5.693-12.414-6.796-19.245-.347-2.162-1.717-2.934-3.809-2.21-1.54.532-3.07 1.1-4.825 1.731.19-10.247 4.11-18.335 12.598-23.71 9.443-5.98 19.334-6.103 28.896-.323 8.816 5.325 12.924 13.53 13.115 24.022-1.797-.613-3.38-1.182-4.98-1.696-1.936-.62-3.237.164-3.633 2.145-.274 1.37-.49 2.753-.818 4.11-1.334 5.515-3.51 10.702-6.211 15.681-1.051 1.938-.57 3.314 1.409 4.042 2.294.845 4.592 1.682 6.914 2.436 2.059.669 3.878.06 5.154-1.698a44.305 44.305 0 0 0 2.458-3.756c4.794-8.227 5.225-17.249 4.155-26.317C62.895 12.652 50.332 1.14 34.84.073z" fill="#74B3CE"/>
</svg>
