<svg width="76" height="86" viewBox="0 0 76 86" fill="none" xmlns="http://www.w3.org/2000/svg">
    <path fill-rule="evenodd" clip-rule="evenodd" d="M4.262.5C2.194.5.504 2.197.504 4.265V66.13a3.768 3.768 0 0 0 3.758 3.758h2.17v2.172c0 2.068 1.69 3.765 3.758 3.765h36.58c2.098 5.645 7.538 9.675 13.904 9.675 8.177 0 14.821-6.647 14.821-14.826 0-7.895-6.19-14.363-13.973-14.803V10.195a3.768 3.768 0 0 0-3.758-3.759h-2.172v-2.17c0-2.069-1.69-3.766-3.758-3.766H4.262zm0 1.702h47.572c1.156 0 2.058.908 2.058 2.063v2.171H10.19a3.768 3.768 0 0 0-3.758 3.759v57.994h-2.17a2.035 2.035 0 0 1-2.058-2.059V4.265c0-1.155.902-2.063 2.058-2.063zm5.929 5.934h47.573c1.156 0 2.057.903 2.057 2.059v45.677c-7.78.444-13.973 6.91-13.973 14.802 0 1.187.142 2.342.406 3.45H10.191a2.038 2.038 0 0 1-2.057-2.064V10.195c0-1.156.9-2.059 2.056-2.059zm23.787 6.413c-6.676 0-12.11 5.417-12.11 12.078 0 6.66 5.434 12.078 12.11 12.078 3.018 0 5.78-1.106 7.904-2.935a.852.852 0 0 0 .13-.116 12.04 12.04 0 0 0 4.075-9.028c0-6.66-5.433-12.077-12.109-12.077zm0 1.7c5.76 0 10.409 4.638 10.409 10.378 0 2.469-.861 4.735-2.301 6.515a8.253 8.253 0 0 0-5.13-6.087 4.825 4.825 0 0 0 1.864-3.803c0-2.659-2.18-4.825-4.842-4.825-2.663 0-4.844 2.166-4.844 4.825 0 1.54.73 2.917 1.864 3.803a8.25 8.25 0 0 0-5.125 6.092 10.324 10.324 0 0 1-2.305-6.52c0-5.74 4.65-10.378 10.41-10.378zm-.083 3.878h.083a3.12 3.12 0 0 1 3.143 3.125 3.125 3.125 0 0 1-3.143 3.13 3.126 3.126 0 0 1-3.144-3.13 3.12 3.12 0 0 1 3.061-3.125zm.083 8.075c3.636 0 6.539 2.876 6.562 6.488a10.39 10.39 0 0 1-6.562 2.315c-2.488 0-4.77-.865-6.557-2.31.022-3.615 2.92-6.493 6.557-6.493zM16.597 44.126a.85.85 0 0 0 0 1.701h34.76a.85.85 0 0 0 0-1.701h-34.76zm0 10.943a.85.85 0 0 0 0 1.7h34.76a.848.848 0 0 0 .847-.853.85.85 0 0 0-.846-.847H16.596zm44.045 2.472.032.006a.817.817 0 0 0 .069-.006c7.226.036 13.051 5.893 13.051 13.131 0 7.26-5.862 13.125-13.12 13.125a13.115 13.115 0 0 1-12.462-8.993.845.845 0 0 0-.07-.216 13.147 13.147 0 0 1-.592-3.916c0-7.25 5.85-13.114 13.092-13.131zm6.156 8.302a.85.85 0 0 0-.596.257l-7.108 7.335-3.953-4.08a.85.85 0 0 0-1.218 1.185l4.562 4.7a.849.849 0 0 0 1.217 0l7.718-7.956a.85.85 0 0 0-.622-1.441zm-50.201.162a.85.85 0 0 0 0 1.7h26.905a.85.85 0 0 0 0-1.7H16.597z" fill="#2B8649" stroke="#2B8649"/>
</svg>
