<svg width="25" height="25" viewBox="0 0 25 25" fill="none" xmlns="http://www.w3.org/2000/svg">
    <path d="M14.964 15.387c-2.868-.022-5.47-2.713-4.444-5.805.577-1.741 1.43-3.369 2.287-4.99.564-1.064 1.161-2.107 1.755-3.156.314-.557.58-.59.898-.043.821 1.412 1.645 2.824 2.365 4.282.652 1.317 1.259 2.664 1.73 4.045.739 2.175-.426 4.415-2.667 5.285-.6.234-1.171.228-1.807.382h-.117zm.13-13.225h-.133c-.348.63-.701 1.258-1.045 1.892-.973 1.784-1.96 3.562-2.563 5.497-.172.554-.337 1.16-.282 1.723.263 2.664 3.127 4.174 5.684 3.033 1.674-.748 2.572-2.547 2.167-3.944-.244-.833-.49-1.68-.867-2.464-.82-1.707-1.729-3.38-2.601-5.066-.117-.225-.24-.45-.36-.67zM14.143 23.981c-3.5-.148-5.66-.864-8.165-2.304-.448-.258-.931-.461-1.418-.652a1.996 1.996 0 0 0-1.534.016c-.396.163-.805.298-1.21.436-.114.04-.247.102-.348.077-.162-.043-.366-.12-.431-.24-.045-.086.078-.35.191-.393 1.389-.548 2.768-1.142 4.286-.32.983.532 1.979 1.052 3.017 1.473 1.917.779 3.945 1.12 6.027 1.188.88.027 1.375-.204 2.197-.523 3.138-1.22 4.13-2.618 5.867-4.974.23-.234.52-1.16.592-1.483.039-.175-.091-.465-.244-.575-.159-.111-.467-.136-.662-.071-.253.086-.473.286-.684.461-.791.659-1.573 1.33-2.358 1.994-.176.147-.367.31-.584.07-.198-.215-.091-.403.1-.563.938-.793 1.853-1.608 2.816-2.371.743-.585 1.684-.483 2.164.209.165.237.25.572.237.858a1.991 1.991 0 0 1-.65 1.412c-1.725 2.08-2.635 3.335-4.865 5.033-1.596.966-3.54 1.328-4.341 1.251v-.009z" fill="#5E5E5E"/>
    <path d="M16.284 20.687c.772-.108 1.56-.219 2.2-.698.567-.428.613-1.148.045-1.575-.344-.259-.795-.471-1.223-.53-.785-.107-1.593-.052-2.384-.12-.584-.049-1.214-.076-1.73-.307-1.008-.452-1.95-1.037-2.92-1.566-.489-.268-.956-.597-1.475-.79-1.574-.588-3.173-.625-4.795-.127-.856.265-1.745.434-2.621.65-.224.055-.458.175-.357.412.058.135.315.206.493.273.075.031.185-.015.276-.04.886-.224 1.78-.418 2.654-.685a5.793 5.793 0 0 1 4.25.292c.878.409 1.67.984 2.514 1.47 1.151.665 2.338 1.224 3.756 1.126a9.028 9.028 0 0 1 1.499.018c.454.047.905.145 1.336.277.153.047.322.262.341.416.016.117-.162.32-.305.381a5.38 5.38 0 0 1-1.103.37c-1.408.285-4.272.298-4.272.298-.451-.025-.922-.188-1.324-.394-.59-.302-1.132-.692-1.69-1.055-.198-.13-.383-.111-.474.077-.055.114-.039.329.042.415.189.197.445.332.656.51 1.1.927 1.537.936 2.964 1.188 1.427.252 3.647-.19 3.922-.371m-1.595-5.215c-2.868-.022-5.47-2.713-4.444-5.805.577-1.741 1.43-3.369 2.287-4.99.564-1.064 1.161-2.107 1.755-3.156.314-.557.58-.59.898-.043.821 1.412 1.645 2.824 2.365 4.282.652 1.317 1.259 2.664 1.73 4.045.739 2.175-.426 4.415-2.667 5.285-.6.234-1.171.228-1.807.382h-.117zm.13-13.225h-.133c-.348.63-.701 1.258-1.045 1.892-.973 1.784-1.96 3.562-2.563 5.497-.172.554-.337 1.16-.282 1.723.263 2.664 3.127 4.174 5.684 3.033 1.674-.748 2.572-2.547 2.167-3.944-.244-.833-.49-1.68-.867-2.464-.82-1.707-1.729-3.38-2.601-5.066-.117-.225-.24-.45-.36-.67zm-.951 21.82c-3.5-.148-5.66-.865-8.165-2.305-.448-.258-.931-.461-1.418-.652a1.996 1.996 0 0 0-1.534.016c-.396.163-.805.298-1.21.436-.114.04-.247.102-.348.077-.162-.043-.366-.12-.431-.24-.045-.086.078-.35.191-.393 1.389-.548 2.768-1.142 4.286-.32.983.532 1.979 1.052 3.017 1.473 1.917.779 3.945 1.12 6.027 1.188.88.027 1.375-.204 2.197-.523 3.138-1.22 4.13-2.618 5.867-4.974.23-.234.52-1.16.592-1.483.039-.175-.091-.465-.244-.575-.159-.111-.467-.136-.662-.071-.253.086-.473.286-.684.461-.791.659-1.573 1.33-2.358 1.994-.176.147-.367.31-.584.07-.198-.215-.091-.403.1-.563.938-.793 1.853-1.608 2.816-2.371.743-.585 1.684-.483 2.164.209.165.237.25.572.237.858a1.991 1.991 0 0 1-.65 1.412c-1.725 2.08-2.635 3.335-4.865 5.033-1.596.966-3.54 1.328-4.341 1.251v-.009z" stroke="#5E5E5E"/>
</svg>
