<svg width="18" height="19" viewBox="0 0 18 19" fill="none" xmlns="http://www.w3.org/2000/svg">
    <path d="M9.001 18.5c-.676 0-1.37-.077-2.062-.231l-.459-.101.016-.456a2.246 2.246 0 0 0-1.166-2.044 2.396 2.396 0 0 0-2.405.042l-.397.24-.318-.333a8.953 8.953 0 0 1-2.072-3.464L0 11.717l.415-.214A2.254 2.254 0 0 0 1.661 9.5c0-.841-.479-1.61-1.246-2.004L0 7.281l.138-.436A9.008 9.008 0 0 1 2.21 3.381l.318-.332.397.24c.735.445 1.656.46 2.405.042a2.253 2.253 0 0 0 1.166-2.044L6.48.83 6.94.73a9.38 9.38 0 0 1 4.125 0l.458.1-.016.457A2.248 2.248 0 0 0 12.67 3.33c.749.418 1.67.403 2.405-.042l.397-.24.318.332a8.952 8.952 0 0 1 2.072 3.464l.138.436-.415.214A2.254 2.254 0 0 0 16.339 9.5c0 .841.479 1.61 1.246 2.004l.415.214-.138.436a9.009 9.009 0 0 1-2.072 3.464l-.318.333-.397-.24a2.396 2.396 0 0 0-2.405-.042 2.246 2.246 0 0 0-1.164 2.044l.016.456-.458.1A9.684 9.684 0 0 1 9 18.5zm-1.386-1.222c.935.158 1.835.16 2.772 0a3.353 3.353 0 0 1 1.716-2.564 3.552 3.552 0 0 1 3.14-.16 7.931 7.931 0 0 0 1.396-2.326A3.325 3.325 0 0 1 15.205 9.5c0-1.09.54-2.098 1.434-2.726a7.874 7.874 0 0 0-1.396-2.326 3.559 3.559 0 0 1-3.14-.16 3.358 3.358 0 0 1-1.716-2.564 8.03 8.03 0 0 0-2.772 0 3.353 3.353 0 0 1-1.716 2.564 3.552 3.552 0 0 1-3.14.16 7.929 7.929 0 0 0-1.395 2.326A3.326 3.326 0 0 1 2.798 9.5c0 1.09-.54 2.1-1.434 2.727.32.837.794 1.63 1.395 2.325a3.552 3.552 0 0 1 3.14.161c.972.544 1.6 1.5 1.716 2.564zM9 13.078c-2.033 0-3.687-1.606-3.687-3.579S6.968 5.92 9.001 5.92s3.687 1.606 3.687 3.58c0 1.972-1.654 3.578-3.687 3.578zm0-6.056c-1.407 0-2.552 1.112-2.552 2.477 0 1.366 1.145 2.478 2.552 2.478s2.553-1.112 2.553-2.478c0-1.365-1.146-2.477-2.553-2.477z" fill="#484848"/>
</svg>
