<svg width="60" height="60" viewBox="0 0 60 60" fill="none" xmlns="http://www.w3.org/2000/svg">
    <path d="M58.605 0H8.372a1.4 1.4 0 0 0-1.395 1.395v50.233a1.4 1.4 0 0 0 1.395 1.395h50.233A1.4 1.4 0 0 0 60 51.628V1.395A1.4 1.4 0 0 0 58.605 0zm-1.396 50.233H9.767V2.79H57.21v47.442z" fill="#FFA902"/>
    <path d="M46.047 57.21H2.79V13.952a1.4 1.4 0 0 0-1.396-1.395A1.4 1.4 0 0 0 0 13.954v44.65A1.4 1.4 0 0 0 1.395 60h44.651a1.4 1.4 0 0 0 1.396-1.395 1.4 1.4 0 0 0-1.395-1.396zM18.14 16.047h30.697a1.4 1.4 0 0 0 1.396-1.396 1.4 1.4 0 0 0-1.396-1.395H18.14a1.4 1.4 0 0 0-1.395 1.395 1.4 1.4 0 0 0 1.396 1.396zM22.326 21.628a1.4 1.4 0 0 0-1.396 1.395 1.4 1.4 0 0 0 1.396 1.396H44.65a1.4 1.4 0 0 0 1.395-1.396 1.4 1.4 0 0 0-1.395-1.395H22.326z" fill="#FFA902"/>
    <path d="M18.14 32.79h30.697a1.4 1.4 0 0 0 1.396-1.395A1.4 1.4 0 0 0 48.837 30H18.14a1.4 1.4 0 0 0-1.395 1.395 1.4 1.4 0 0 0 1.396 1.396zM44.651 38.372H22.326a1.4 1.4 0 0 0-1.396 1.395 1.4 1.4 0 0 0 1.396 1.396H44.65a1.4 1.4 0 0 0 1.395-1.396 1.4 1.4 0 0 0-1.395-1.395z" fill="#FFA902"/>
</svg>
