<svg width="16" height="16" viewBox="0 0 16 16" fill="none" xmlns="http://www.w3.org/2000/svg">
    <path d="M6.697 1a.318.318 0 0 0-.288.319V4.5H4.79a.318.318 0 0 0-.214.11l-3.5 4.136A.318.318 0 0 0 1 8.955v5.727a.318.318 0 0 0 .318.318h13.364a.318.318 0 0 0 .318-.318V8.955a.318.318 0 0 0-.075-.21l-3.5-4.135a.32.32 0 0 0-.243-.11H9.59V1.32A.318.318 0 0 0 9.273 1H6.697zm.348.637h1.91V6.09a.318.318 0 0 0 .318.318h.611L8 8.766 6.116 6.409h.611a.318.318 0 0 0 .318-.318V1.637zm-2.078 3.5H6.41v.636h-.954a.318.318 0 0 0-.249.517l2.545 3.182a.318.318 0 0 0 .498 0l2.545-3.182a.319.319 0 0 0-.248-.517H9.59v-.636h1.442l2.963 3.5h-3.928a.318.318 0 0 0-.318.318c0 .97-.78 1.75-1.75 1.75s-1.75-.78-1.75-1.75a.318.318 0 0 0-.318-.318H2.004l2.963-3.5zm-3.33 4.136h4.011A2.384 2.384 0 0 0 8 11.34a2.384 2.384 0 0 0 2.352-2.068h4.012v5.09H1.636v-5.09z" fill="#393939" stroke="#393939" stroke-width=".8"/>
</svg>
