<svg width="51" height="60" viewBox="0 0 51 60" fill="none" xmlns="http://www.w3.org/2000/svg">
    <path d="M25.248 57.91h-.01a23.393 23.393 0 0 1-8.995-1.88 23.184 23.184 0 0 1-7.546-5.188 23.872 23.872 0 0 1-6.696-16.784 23.881 23.881 0 0 1 7.012-16.66L24.48 2.056l.019-.019.018-.02a1.636 1.636 0 0 1 1.24-.517h.013a1.863 1.863 0 0 1 1.308.564l.007.008 15.2 15.572.002.003A23.872 23.872 0 0 1 49 34.423a23.88 23.88 0 0 1-6.996 16.666l-.004.004a22.96 22.96 0 0 1-7.665 5.112 23.166 23.166 0 0 1-9.086 1.704z" fill="#2168C4" stroke="#fff" stroke-width="3"/>
</svg>
