<svg width="22" height="22" viewBox="0 0 22 22" fill="none" xmlns="http://www.w3.org/2000/svg">
    <path d="M22 11.006C22 17.07 17.057 22.002 10.982 22 4.935 21.998-.018 17.036 0 10.986.02 4.773 5.134-.076 11.14 0 17.103.077 22.008 4.968 22 11.006zM7.304 14.463c.194-.245.223-.252.454-.155 2.162.909 4.324.909 6.485 0 .233-.097.255-.091.444.137-.051.032-.1.068-.152.094-.273.131-.544.267-.822.386-.122.053-.144.106-.075.215.19.303.378.606.56.914.07.118.147.127.27.087 1.123-.362 2.16-.89 3.122-1.571.115-.081.172-.169.174-.312.003-.248.03-.495.036-.744.057-2.44-.638-4.66-1.979-6.687-.075-.114-.196-.235-.32-.273a91.433 91.433 0 0 0-2.459-.714c-.051-.014-.152.036-.183.086-.095.154-.172.32-.246.486-.04.09-.084.13-.19.115a10.623 10.623 0 0 0-2.846-.007c-.055.007-.144-.046-.175-.096-.093-.156-.168-.322-.245-.487-.042-.09-.1-.131-.2-.102-.815.236-1.63.466-2.442.71a.564.564 0 0 0-.286.207c-1.483 2.212-2.177 4.64-2.01 7.31.018.296.122.475.37.638.92.61 1.893 1.105 2.947 1.437.064.02.183.021.208-.015.243-.358.471-.726.71-1.101l-1.15-.557z" fill="#231F20"/>
    <path d="M14.48 11.374c-.012.527-.131.873-.412 1.154-.495.496-1.223.471-1.683-.057-.395-.453-.46-1.173-.155-1.698.48-.826 1.568-.835 2.039-.003.124.22.17.483.211.605zM9.964 11.51c-.005.357-.109.68-.342.955a1.122 1.122 0 0 1-1.725.028 1.48 1.48 0 0 1-.1-1.833c.517-.714 1.516-.676 1.952.09.128.225.178.493.263.742l-.048.018z" fill="#231F20"/>
</svg>
