<svg width="60" height="60" viewBox="0 0 60 60" fill="none" xmlns="http://www.w3.org/2000/svg">
    <path d="M53.054 3.163a3.818 3.818 0 0 1 3.781 3.823v3.054h-8.888V3.163h5.107zm-8.265 0v6.877h-13.21V3.163h13.21zm-16.369 0v6.877H15.215V3.163h13.207zm-16.368 0v6.877H3.164V6.986a3.82 3.82 0 0 1 3.781-3.823h5.107zm11.343 20.242 11.42 6.591V30l-11.42 6.592V23.405zM21.82 19.09h-.011a1.58 1.58 0 0 0-1.57 1.666h-.004v18.569a1.58 1.58 0 0 0 1.264 1.55h-.003c.104.02.212.031.324.031.267 0 .538-.066.789-.212l16.152-9.325c.046-.027.093-.058.135-.09h.004a1.65 1.65 0 0 0 .44-.494 1.578 1.578 0 0 0-.58-2.157L22.61 19.303a1.551 1.551 0 0 0-.789-.213zm35.015-5.892v33.596h-.004l-53.668.003V13.202H3.16l53.67-.004h.006zm0 36.758v3.055c0 2.099-1.686 3.8-3.781 3.823h-5.107v-6.878h8.888zm-12.047 0v6.882l-13.21-.004v-6.878h13.21zm-16.368 0v6.882l-13.207-.004V49.96l13.207-.004zm-16.369 0v6.882l-5.107-.004a3.823 3.823 0 0 1-3.78-3.823v-3.05H3.16l8.892-.005zM6.942 0C3.148.023.071 3.02.001 6.8v46.396c.07 3.78 3.147 6.777 6.94 6.8l46.12.004c3.79-.027 6.867-3.023 6.936-6.804V6.8c-.07-3.78-3.146-6.777-6.935-6.8H6.94z" fill="#2B8649"/>
</svg>
