<svg width="25" height="25" viewBox="0 0 25 25" fill="none" xmlns="http://www.w3.org/2000/svg">
    <path d="m23.726 7.276-10.405-6.06a1.676 1.676 0 0 0-1.642 0L1.274 7.275A.55.55 0 0 0 1 7.75v14.594c0 .431.167.846.466 1.155.298.31.705.489 1.133.5h19.714a1.633 1.633 0 0 0 1.19-.469A1.655 1.655 0 0 0 24 22.344V7.75a.556.556 0 0 0-.274-.474zm-11.5-5.1a.544.544 0 0 1 .548 0l10 5.817-10 5.818a.545.545 0 0 1-.548 0l-10-5.818 10-5.817zm10.131 20.72H2.643a.556.556 0 0 1-.548-.552V9.185l9.584 5.586a1.643 1.643 0 0 0 1.642 0l9.584-5.586v13.159a.546.546 0 0 1-.548.552z" fill="#696969" stroke="#696969"/>
</svg>
