<svg width="23" height="25" viewBox="0 0 23 25" fill="none" xmlns="http://www.w3.org/2000/svg">
    <path d="M8.474 23.182a4.006 4.006 0 0 1-1.34-2.78V19.247H2.088a1.382 1.382 0 0 1-.748-.225 1.31 1.31 0 0 1-.49-.582c-.099-.233-.125-.49-.076-.737s.172-.477.355-.66l.002-.001 2.3-2.26.224-.22V8.41a7.513 7.513 0 0 1 .703-3.157 7.692 7.692 0 0 1 1.977-2.598A7.93 7.93 0 0 1 9.24 1.081a8.064 8.064 0 0 1 3.308-.266 8.078 8.078 0 0 1 4.906 2.686 7.706 7.706 0 0 1 1.892 5.16v5.9l.224.22 2.3 2.26v.001c.184.183.307.413.356.66.05.247.023.503-.077.737a1.31 1.31 0 0 1-.489.582c-.22.144-.48.223-.748.225h-5.046v1.157a4.006 4.006 0 0 1-1.34 2.78 4.23 4.23 0 0 1-2.995 1.063l-.031-.001-.031.001a4.23 4.23 0 0 1-2.995-1.064zm6.329-2.673.005-.044V19.246H8.192v1.219l.005.044c.094.798.5 1.526 1.125 2.033.613.497 1.39.747 2.178.705a3.191 3.191 0 0 0 2.178-.705 3.085 3.085 0 0 0 1.125-2.033z" stroke="#5E5E5E" stroke-width="1.5"/>
</svg>
