<svg width="32" height="32" viewBox="0 0 32 32" fill="none" xmlns="http://www.w3.org/2000/svg">
    <path d="M31 16c0 8.284-6.716 15-15 15-8.284 0-15-6.716-15-15C1 7.716 7.716 1 16 1c8.284 0 15 6.716 15 15z" fill="#fff"/>
    <path d="M4.75 15.605v-1a1 1 0 0 0-.029 2l.029-1zm8.935 5.769-.999.043.999-.043zm-.767 5.371a1 1 0 1 0 1.998-.087l-1.998.087zm7.994-10.296.383-.924-.383.925zm3.535 4.232a1 1 0 0 0 1.857-.743l-1.857.743zm-13.81-5.174.025 1-.026-1zm6.929-6.697-.998-.062.998.062zm1.21-4.06a1 1 0 1 0-2 0h2zM30 16c0 7.732-6.268 14-14 14v2c8.837 0 16-7.163 16-16h-2zM16 30C8.268 30 2 23.732 2 16H0c0 8.837 7.163 16 16 16v-2zM2 16C2 8.268 8.268 2 16 2V0C7.163 0 0 7.163 0 16h2zM16 2c7.732 0 14 6.268 14 14h2c0-8.837-7.163-16-16-16v2zM4.75 16.605h2.679v-2H4.75v2zm2.679 0h.231v-2h-.231v2zm5.257 4.812.232 5.328 1.998-.087-.232-5.327-1.998.086zM7.66 16.605a5.03 5.03 0 0 1 5.026 4.812l1.998-.086a7.03 7.03 0 0 0-7.024-6.726v2zm-2.939 0c.795.023 1.725.016 2.724 0l-.032-2a61.93 61.93 0 0 1-2.634 0l-.058 2zm2.724 0c2.254-.036 4.871-.12 7.297-.048 2.463.072 4.547.303 5.788.817l.765-1.848c-1.619-.67-4.045-.897-6.494-.969-2.486-.072-5.18.013-7.388.048l.032 2zm13.085.768c1.592.66 2.583 1.526 3.17 2.203.294.34.488.636.606.837a3.286 3.286 0 0 1 .143.273l-.001-.002v-.002h-.001l.928-.373a90.275 90.275 0 0 0 .928-.373l-.001-.003a7.633 7.633 0 0 0-1.09-1.666c-.771-.89-2.011-1.953-3.917-2.742l-.765 1.848zm-15.78-.768c1.636 0 3.83-.044 5.912-.098l-.052-2a245.8 245.8 0 0 1-5.86.098v2zm13.814-7.733c.115-1.853.212-3.572.212-4.122h-2c0 .47-.09 2.107-.208 3.998l1.996.124zm-7.902 7.635a8.133 8.133 0 0 0 7.902-7.635l-1.996-.124a6.132 6.132 0 0 1-5.958 5.76l.052 1.999z" fill="#F23A00"/>
</svg>
