<svg width="16" height="10" viewBox="0 0 16 10" fill="none" xmlns="http://www.w3.org/2000/svg">
    <path d="M15.904 4.702C15.761 4.51 12.33 0 8 0S.24 4.51.096 4.702a.511.511 0 0 0 0 .596C.239 5.49 3.67 10 8 10s7.76-4.51 7.904-4.702a.511.511 0 0 0 0-.596zM8 9.102C4.633 9.101 1.741 5.988.907 5 1.74 4.01 4.627.899 8 .899c3.367 0 6.259 3.112 7.092 4.101-.832.99-3.72 4.101-7.092 4.101z" fill="#5E5E5E"/>
    <path d="M8 1.677c-1.553 0-2.817 1.49-2.817 3.323 0 1.832 1.264 3.323 2.817 3.323 1.553 0 2.817-1.49 2.817-3.323S9.553 1.677 8 1.677zm0 5.747C6.867 7.424 5.945 6.337 5.945 5S6.867 2.576 8 2.576 10.055 3.663 10.055 5 9.133 7.424 8 7.424z" fill="#5E5E5E"/>
</svg>
