<svg width="18" height="18" viewBox="0 0 18 18" fill="none" xmlns="http://www.w3.org/2000/svg">
    <path d="M17 9A8 8 0 1 1 1 9a8 8 0 0 1 16 0z" fill="#F22C00"/>
    <path d="M3 8.79v-.55a.55.55 0 0 0-.016 1.1L3 8.79zm4.765 3.076-.55.024.55-.024zm-.426 2.866a.55.55 0 1 0 1.1-.048l-1.1.048zm4.28-5.492.211-.508-.21.508zm1.87 2.262a.55.55 0 0 0 1.022-.408l-1.022.409zM6.14 8.737l.015.55-.015-.55zm3.696-3.572-.549-.034.55.034zM10.497 3a.55.55 0 0 0-1.1 0h1.1zm5.953 6A7.45 7.45 0 0 1 9 16.45v1.1A8.55 8.55 0 0 0 17.55 9h-1.1zM9 16.45A7.45 7.45 0 0 1 1.55 9H.45A8.55 8.55 0 0 0 9 17.55v-1.1zM1.55 9A7.45 7.45 0 0 1 9 1.55V.45A8.55 8.55 0 0 0 .45 9h1.1zM9 1.55A7.45 7.45 0 0 1 16.45 9h1.1A8.55 8.55 0 0 0 9 .45v1.1zM3 9.34h1.429v-1.1H3v1.1zm1.429 0h.123v-1.1h-.123v1.1zm2.787 2.55.123 2.841 1.1-.047-.124-2.842-1.1.048zM4.552 9.34a2.666 2.666 0 0 1 2.664 2.55l1.099-.048A3.766 3.766 0 0 0 4.552 8.24v1.1zm-1.568 0c.424.011.92.008 1.454 0l-.018-1.1c-.53.008-1.006.011-1.404 0l-.032 1.1zm1.454 0c1.202-.02 2.597-.064 3.89-.027 1.314.039 2.423.162 3.082.435l.42-1.016c-.866-.359-2.163-.48-3.47-.518-1.325-.039-2.763.007-3.94.026l.018 1.1zm6.972.408c.846.35 1.372.81 1.684 1.17.156.181.26.338.321.444a1.767 1.767 0 0 1 .075.143l.001.002v-.003h-.001v-.001l.51-.205a43.155 43.155 0 0 0 .51-.205v-.001l-.001-.003-.003-.007a.976.976 0 0 0-.037-.08 2.814 2.814 0 0 0-.103-.194 4.083 4.083 0 0 0-.44-.61c-.413-.476-1.077-1.045-2.096-1.466l-.42 1.016zM3 9.339c.873 0 2.043-.023 3.154-.052l-.029-1.1c-1.11.03-2.267.052-3.125.052v1.1zm7.384-4.14c.061-.987.113-1.905.113-2.199h-1.1c0 .25-.048 1.122-.11 2.131l1.097.068zm-4.23 4.088a4.354 4.354 0 0 0 4.23-4.088l-1.098-.068a3.254 3.254 0 0 1-3.161 3.056l.029 1.1z" fill="#fff"/>
</svg>
