<svg width="14" height="16" viewBox="0 0 14 16" fill="none" xmlns="http://www.w3.org/2000/svg">
    <path d="M5.185 14.37a2.338 2.338 0 0 1-.8-1.63v-.742H1.272a.81.81 0 0 1-.434-.129.742.742 0 0 1-.28-.327.688.688 0 0 1-.043-.41.716.716 0 0 1 .202-.37l1.4-1.355.152-.147V5.546a4.398 4.398 0 0 1 .423-1.87 4.574 4.574 0 0 1 1.19-1.542 4.807 4.807 0 0 1 1.754-.937 4.94 4.94 0 0 1 1.998-.158 4.895 4.895 0 0 1 2.96 1.597 4.531 4.531 0 0 1 1.14 3.06h-.001V9.26l.152.147 1.4 1.355v.001a.716.716 0 0 1 .202.37.688.688 0 0 1-.043.409.742.742 0 0 1-.28.327.81.81 0 0 1-.434.129H9.614v.742a2.338 2.338 0 0 1-.799 1.63 2.558 2.558 0 0 1-1.794.628L7 14.997h-.02c-.665.028-1.31-.2-1.795-.627zm3.869-1.558.003-.03v-.785H4.943v.785l.003.03c.06.494.314.943.704 1.255a2 2 0 0 0 1.35.431 2 2 0 0 0 1.35-.431c.39-.312.644-.76.704-1.255z" stroke="#231F20"/>
</svg>
