<svg width="14" height="16" viewBox="0 0 14 16" fill="none" xmlns="http://www.w3.org/2000/svg">
    <path d="M7.178 15.5a6.864 6.864 0 0 1-2.534-.506c-.8-.326-1.524-.8-2.127-1.395-1.225-1.213-1.9-2.828-1.884-4.504.017-1.675.724-3.279 1.972-4.47L6.701.75a.832.832 0 0 1 .285-.188.927.927 0 0 1 .683.008.885.885 0 0 1 .285.189l4.026 3.933c1.225 1.211 1.903 2.826 1.888 4.502-.015 1.676-.72 3.28-1.968 4.472a6.502 6.502 0 0 1-2.161 1.375 6.808 6.808 0 0 1-2.561.458z" fill="#2168C4"/>
    <path d="M11.285 9.125c0 2.071-1.767 3.75-3.945 3.75-2.18 0-3.946-1.679-3.946-3.75 0-2.071 1.767-3.75 3.946-3.75 2.178 0 3.945 1.679 3.945 3.75z" fill="#fff"/>
    <path d="M5.761 7.625h3.157v3H5.76v-3z" fill="#2168C4"/>
</svg>
