<svg width="88" height="76" viewBox="0 0 88 76" fill="none" xmlns="http://www.w3.org/2000/svg">
    <path d="M47.263 10.283H27.706a1.63 1.63 0 0 0 0 3.26h19.557a1.63 1.63 0 0 0 0-3.26zM27.706 23.326h6.519a1.63 1.63 0 0 0 0-3.26h-6.52a1.63 1.63 0 0 0 0 3.26z" fill="#2B8649"/>
    <path d="M70.08 58.38a1.63 1.63 0 0 0-1.63 1.63v12.23H19.557V10.282c0-2.41-.894-4.734-2.51-6.522h44.884a6.518 6.518 0 0 1 6.519 6.522v8.152a1.631 1.631 0 0 0 2.782 1.153 1.63 1.63 0 0 0 .477-1.153v-8.152A9.785 9.785 0 0 0 61.931.5H9.779A9.776 9.776 0 0 0 0 10.283v14.673a1.63 1.63 0 0 0 1.63 1.631h14.668V73.87a1.631 1.631 0 0 0 1.63 1.63h52.151a1.63 1.63 0 0 0 1.63-1.63V60.01a1.63 1.63 0 0 0-1.63-1.63zM3.26 10.283A6.523 6.523 0 0 1 9.779 3.76a6.518 6.518 0 0 1 6.519 6.522v13.043H3.26V10.283z" fill="#2B8649"/>
    <path d="M27.706 62.456a1.63 1.63 0 0 0 0 3.261h10.593a1.63 1.63 0 0 0 0-3.26H27.706zM87.526 32.897 75.996 21.36a1.63 1.63 0 0 0-2.298 0l-25.36 25.37a1.711 1.711 0 0 0-.415.701l-4.604 16.141a1.632 1.632 0 0 0 .415 1.63c.305.307.718.48 1.15.482.151-.002.302-.024.448-.065l16.134-4.606a1.63 1.63 0 0 0 .701-.416l25.36-25.37a1.631 1.631 0 0 0 0-2.299v-.032zM50.302 50.995l7.603 7.605-10.642 3.041 3.04-10.646zm10.716 6.114-9.224-9.229 23.053-23.054 9.216 9.22L61.018 57.11zM48.893 31.478a1.63 1.63 0 0 0-1.63-1.63H27.706a1.63 1.63 0 0 0 0 3.26h19.557a1.63 1.63 0 0 0 1.63-1.63z" fill="#2B8649"/>
</svg>
