<svg width="16" height="12" viewBox="0 0 16 12" fill="none" xmlns="http://www.w3.org/2000/svg">
    <path d="M15.358 5.656a.446.446 0 0 0-.663 0l-.916.95V6c0-3.312-2.59-6-5.779-6-1.61 0-3.174.705-4.263 1.95a.504.504 0 0 0 .031.69c.19.18.49.163.664-.033C5.347 1.574 6.642.967 8 .967c2.668 0 4.832 2.246 4.832 5.017v.606l-.916-.95a.446.446 0 0 0-.663 0 .488.488 0 0 0 0 .688l1.72 1.787a.446.446 0 0 0 .332.147c.127 0 .253-.049.332-.147l1.72-1.787a.468.468 0 0 0 0-.672zM11.569 9.377c-.916 1.033-2.211 1.64-3.569 1.64-2.668 0-4.832-2.246-4.832-5.017v-.606l.916.95a.447.447 0 0 0 .663 0 .488.488 0 0 0 0-.688l-1.72-1.803a.474.474 0 0 0-.664 0L.643 5.656a.488.488 0 0 0 0 .688c.189.197.489.197.662 0l.916-.95V6c0 3.312 2.59 6 5.779 6a5.656 5.656 0 0 0 4.263-1.95.504.504 0 0 0-.031-.69.446.446 0 0 0-.663.017z" fill="#fff"/>
</svg>
