<svg width="50" height="60" viewBox="0 0 50 60" fill="none" xmlns="http://www.w3.org/2000/svg">
    <path d="M24.482 59.358h-.003a23.783 23.783 0 0 1-9.282-1.974 23.93 23.93 0 0 1-7.792-5.452 25.306 25.306 0 0 1-6.91-17.626 25.3 25.3 0 0 1 7.233-17.493l.001-.001L23.047 1.35l.006-.006.006-.007a2.603 2.603 0 0 1 1.965-.836h.005a2.782 2.782 0 0 1 1.988.874l.002.003 15.053 15.694h.001a25.306 25.306 0 0 1 6.925 17.62 25.3 25.3 0 0 1-7.217 17.5l-.002.001a23.691 23.691 0 0 1-7.918 5.374 23.549 23.549 0 0 1-9.379 1.79z" fill="#fff" stroke="#2168C4"/>
</svg>
