<svg width="15" height="16" viewBox="0 0 15 16" fill="none" xmlns="http://www.w3.org/2000/svg">
    <path d="M9.995 7.553 7.73 4.468a.808.808 0 0 0-.519-.314.83.83 0 0 0-.598.128.786.786 0 0 0-.218.22.753.753 0 0 0-.104.584c.024.1.068.193.13.276L7.801 7.23H1.303a.82.82 0 0 0-.568.226A.756.756 0 0 0 .5 8c0 .205.084.4.235.545a.82.82 0 0 0 .568.226H7.73l-1.446 1.851a.758.758 0 0 0-.153.572.752.752 0 0 0 .313.508.825.825 0 0 0 1.125-.154l2.41-3.085a.751.751 0 0 0 .016-.91z" fill="#231F20"/>
    <path d="M5.75 1.25H14v13.5H5.75" stroke="#231F20" stroke-width="1.5" stroke-linecap="round"/>
</svg>
