<svg width="14" height="14" viewBox="0 0 14 14" fill="none" xmlns="http://www.w3.org/2000/svg">
    <path d="M3.964 13.5H3.96a3.313 3.313 0 0 1-1.33-.293 3.45 3.45 0 0 1-1.123-.812A3.892 3.892 0 0 1 .5 9.735a3.885 3.885 0 0 1 1.054-2.64L4.03 4.512l.006-.007.006-.006c.001 0 .003 0 .005.002a.034.034 0 0 1 .01.008l.003.002 2.432 2.621A3.891 3.891 0 0 1 7.5 9.792a3.886 3.886 0 0 1-1.052 2.641l-.002.002a3.406 3.406 0 0 1-1.139.8 3.275 3.275 0 0 1-1.343.265zm5.208-6.227c-.33-.146-.63-.36-.88-.627A2.983 2.983 0 0 1 7.5 4.589a2.98 2.98 0 0 1 .828-2.041l1.957-2.01 1.922 2.038v.001c.514.552.8 1.289.793 2.056a2.98 2.98 0 0 1-.827 2.042l-.001.001c-.255.267-.56.477-.894.618-.335.142-.694.211-1.056.206h-.003a2.64 2.64 0 0 1-1.047-.227z" fill="#fff" stroke="#5E5E5E"/>
</svg>
