<svg width="15" height="11" viewBox="0 0 15 11" fill="none" xmlns="http://www.w3.org/2000/svg">
    <path d="M12.9 1.784a1.909 1.909 0 0 0-2.651-.394L5.908 4.61l-1.342-.995a.462.462 0 0 1-.174-.473c.079-.332.095-.679.016-1.042a2.227 2.227 0 0 0-1.8-1.705A2.225 2.225 0 0 0 .004 2.59c0 1.232.994 2.226 2.225 2.226.427 0 .806-.11 1.153-.316a.453.453 0 0 1 .505.032l1.294.963-1.294.963a.453.453 0 0 1-.505.031 2.24 2.24 0 0 0-1.547-.284A2.246 2.246 0 0 0 .02 8.114c-.19 1.453 1.026 2.668 2.478 2.51a2.244 2.244 0 0 0 1.941-1.862 2.216 2.216 0 0 0-.047-.916.462.462 0 0 1 .174-.474l1.342-.994 4.34 3.22a1.88 1.88 0 0 0 2.652-.394l-5.003-3.71 5.003-3.71zM2.23 3.521a.933.933 0 0 1-.932-.932c0-.505.41-.931.931-.931.506 0 .932.41.932.931 0 .506-.41.932-.932.932zm0 5.809a.933.933 0 0 1-.932-.932c0-.505.41-.93.931-.93.506 0 .932.41.932.93 0 .506-.41.932-.932.932zm4.467-3.394a.452.452 0 0 1-.442-.442c0-.237.205-.442.442-.442.237 0 .442.205.442.442 0 .237-.19.442-.442.442z" fill="#696969"/>
    <path d="M12.206 4.926h-1.989v1.136h1.989V4.926zM15 4.926h-1.989v1.136H15V4.926z" fill="#696969"/>
</svg>
