<svg width="40" height="40" viewBox="0 0 40 40" fill="none" xmlns="http://www.w3.org/2000/svg">
    <path d="M27.348 12.374a3.337 3.337 0 0 0-4.714 0L19.03 15.98a3.312 3.312 0 0 0-.976 2.357c0 1.68 1.147 2.486 1.254 2.635a1.177 1.177 0 0 1-1.664 1.663c-.118-.158-1.524-1.232-1.868-3.4l-3.4 3.4a3.337 3.337 0 0 0 0 4.714l.277.278c1.3 1.3 3.414 1.3 4.714 0l3.605-3.605c.63-.63.976-1.467.976-2.357 0-1.68-1.147-2.486-1.254-2.635a1.176 1.176 0 1 1 1.664-1.663c.118.158 1.524 1.232 1.868 3.4l3.4-3.4c1.3-1.3 1.3-3.415 0-4.714l-.277-.278z" fill="#696969"/>
    <path d="M20 0C8.947 0 0 8.945 0 20c0 11.053 8.945 20 20 20 11.053 0 20-8.945 20-20C40 8.947 31.055 0 20 0zm9.29 19.03-3.605 3.604a5.707 5.707 0 0 1-1.827 1.226 5.652 5.652 0 0 1-1.224 1.825L19.03 29.29a5.693 5.693 0 0 1-8.041 0l-.277-.278a5.693 5.693 0 0 1 0-8.041l3.604-3.605a5.706 5.706 0 0 1 1.827-1.226 5.655 5.655 0 0 1 1.224-1.825l3.605-3.604a5.693 5.693 0 0 1 8.041 0l.277.277a5.693 5.693 0 0 1 0 8.041z" fill="#696969"/>
</svg>
