<svg width="22" height="23" viewBox="0 0 22 23" fill="none" xmlns="http://www.w3.org/2000/svg">
    <path fill-rule="evenodd" clip-rule="evenodd" d="M9.087 2.413a7.177 7.177 0 0 0-7.174 7.174 7.177 7.177 0 0 0 7.174 7.174 7.177 7.177 0 0 0 7.174-7.174 7.177 7.177 0 0 0-7.174-7.174zm0 .957a6.22 6.22 0 0 1 6.218 6.217 6.22 6.22 0 0 1-6.218 6.218A6.22 6.22 0 0 1 2.87 9.587 6.22 6.22 0 0 1 9.087 3.37z" fill="#5E5E5E"/>
    <path fill-rule="evenodd" clip-rule="evenodd" d="m14.016 17.221 4.719 4.72a1.914 1.914 0 0 0 2.705-2.706l-4.719-4.72a9.04 9.04 0 0 0 1.453-4.928C18.174 4.572 14.102.5 9.087.5S0 4.572 0 9.587s4.072 9.087 9.087 9.087a9.04 9.04 0 0 0 4.929-1.453zm3.738-.32-1.353 1.353 3.01 3.01a.956.956 0 0 0 1.353-1.353l-3.01-3.01zM9.087 1.457a8.134 8.134 0 0 1 8.13 8.13 8.134 8.134 0 0 1-8.13 8.13 8.134 8.134 0 0 1-8.13-8.13 8.134 8.134 0 0 1 8.13-8.13zM16.152 15.3c-.402.497-.855.95-1.352 1.352l.925.926 1.353-1.353-.926-.925z" fill="#5E5E5E"/>
</svg>
