<svg width="19" height="17" viewBox="0 0 19 17" fill="none" xmlns="http://www.w3.org/2000/svg">
    <path fill-rule="evenodd" clip-rule="evenodd" d="M0 15.028c0-2.961 2.38-5.361 5.314-5.361h1.928c2.935 0 5.314 2.4 5.314 5.36 0 .814-.653 1.473-1.459 1.473H1.459C.653 16.5 0 15.84 0 15.028zm11.565 0c0-2.409-1.935-4.361-4.323-4.361H5.314c-2.387 0-4.323 1.952-4.323 4.36 0 .262.21.473.468.473h9.638a.47.47 0 0 0 .468-.472zM10.726 7.768a5.29 5.29 0 0 1 1.032-.101h1.928c2.935 0 5.314 2.4 5.314 5.36 0 .814-.653 1.473-1.46 1.473H14.54a.498.498 0 0 1-.496-.5c0-.276.222-.5.496-.5h3.002a.47.47 0 0 0 .468-.472c0-2.409-1.936-4.361-4.323-4.361h-1.928c-.288 0-.57.028-.84.082a.5.5 0 0 1-.192-.981zM6.278 3.167a1.991 1.991 0 0 0-1.982 2c0 1.104.887 2 1.982 2a1.991 1.991 0 0 0 1.983-2c0-1.105-.888-2-1.983-2zm-2.974 2c0-1.657 1.332-3 2.974-3 1.643 0 2.974 1.343 2.974 3s-1.331 3-2.974 3c-1.642 0-2.974-1.343-2.974-3zM13.3 1.5c-.867 0-1.57.709-1.57 1.583 0 .875.703 1.584 1.57 1.584.867 0 1.57-.71 1.57-1.584 0-.874-.703-1.583-1.57-1.583zm-2.561 1.583c0-1.426 1.147-2.583 2.56-2.583 1.415 0 2.562 1.157 2.562 2.583 0 1.427-1.147 2.584-2.561 2.584s-2.561-1.157-2.561-2.584z" fill="#696969"/>
</svg>
