<svg width="18" height="18" viewBox="0 0 18 18" fill="none" xmlns="http://www.w3.org/2000/svg">
    <path fill-rule="evenodd" clip-rule="evenodd" d="m14.222 1.85 3.706 6.354A.53.53 0 0 1 17.47 9h-7.412a.53.53 0 0 1-.457-.796l3.705-6.353a.53.53 0 0 1 .915 0zm-.457 1.318L10.98 7.941h5.569l-2.784-4.773zM3.705 7.412a3.706 3.706 0 1 1 0-7.412 3.706 3.706 0 0 1 0 7.412zm0-1.06a2.647 2.647 0 1 0 0-5.293 2.647 2.647 0 0 0 0 5.294zm.53 4.766h5.824a.53.53 0 0 1 .53.53v5.823a.53.53 0 0 1-.53.529H4.235a.53.53 0 0 1-.53-.53v-5.823a.53.53 0 0 1 .53-.53zm.53 5.823h4.764v-4.764H4.765v4.764z" fill="#393939"/>
</svg>
