<svg width="41" height="40" viewBox="0 0 41 40" fill="none" xmlns="http://www.w3.org/2000/svg">
    <path d="M40.5 20c0-11.043-8.957-20-20-20S.5 8.957.5 20c0 9.98 7.313 18.258 16.875 19.758V25.78h-5.078V20h5.078v-4.406c0-5.012 2.988-7.781 7.555-7.781 2.187 0 4.476.39 4.476.39v4.922h-2.523c-2.485 0-3.258 1.543-3.258 3.125V20h5.547l-.887 5.781h-4.66v13.977C33.188 38.258 40.5 29.984 40.5 20z" fill="#1977F3"/>
    <path d="M28.285 25.781 29.172 20h-5.547v-3.75c0-1.582.773-3.125 3.258-3.125h2.523V8.203s-2.289-.39-4.476-.39c-4.567 0-7.555 2.765-7.555 7.78V20h-5.078v5.781h5.078v13.977c1.02.16 2.063.242 3.125.242 1.063 0 2.105-.086 3.125-.242V25.78h4.66z" fill="#FEFEFE"/>
</svg>
