<svg width="16" height="18" viewBox="0 0 16 18" fill="none" xmlns="http://www.w3.org/2000/svg">
    <path d="M7.543 18a7.406 7.406 0 0 1-5.282-2.28 7.728 7.728 0 0 1 .1-10.77L7.002.3a.94.94 0 0 1 .71-.3 1 1 0 0 1 .71.31l4.563 4.72a7.728 7.728 0 0 1-.09 10.77A7.332 7.332 0 0 1 7.543 18z" fill="#2168C4"/>
    <path d="M12.197 10.35c0 2.485-2.002 4.5-4.471 4.5-2.47 0-4.471-2.015-4.471-4.5s2.002-4.5 4.471-4.5c2.47 0 4.471 2.015 4.471 4.5z" fill="#fff"/>
    <path d="M5.938 8.55h3.576v3.6H5.938v-3.6z" fill="#2168C4"/>
</svg>
