<svg width="13" height="15" viewBox="0 0 13 15" fill="none" xmlns="http://www.w3.org/2000/svg">
    <path d="M11.92 0a.597.597 0 0 1 .41.165.562.562 0 0 1 .17.397.547.547 0 0 1-.17.398.581.581 0 0 1-.41.165H1.08A.597.597 0 0 1 .67.96.562.562 0 0 1 .5.563.547.547 0 0 1 .67.164.582.582 0 0 1 1.08 0h10.84zM7.162 1.792 12.177 5.9c.278.27.36.67.21 1.022a.941.941 0 0 1-.356.421.986.986 0 0 1-.538.158h-2.09v6.586c0 .242-.1.474-.277.646A.96.96 0 0 1 8.46 15H4.541a.96.96 0 0 1-.667-.268.901.901 0 0 1-.277-.646V7.5h-2.09a.987.987 0 0 1-.538-.157.941.941 0 0 1-.356-.422.908.908 0 0 1 .21-1.022l.035-.031 4.98-4.076A.987.987 0 0 1 6.5 1.54c.246 0 .483.09.663.253zm1.079 4.583h2.72L6.5 2.723 2.038 6.375h2.72v7.5h3.484v-7.5z" fill="#fff"/>
</svg>
