<svg width="14" height="12" viewBox="0 0 14 12" fill="none" xmlns="http://www.w3.org/2000/svg">
    <path d="M4.77 5.333c.534 0 1.056-.156 1.5-.45.444-.292.79-.709.994-1.196A2.636 2.636 0 0 0 6.68.781 2.731 2.731 0 0 0 3.737.203a2.693 2.693 0 0 0-1.212.982 2.643 2.643 0 0 0 .336 3.367c.506.5 1.193.781 1.909.781zM10.168 6.667c.4 0 .792-.117 1.125-.337.333-.22.593-.532.746-.898a1.978 1.978 0 0 0-.439-2.18 2.049 2.049 0 0 0-2.207-.434 2.02 2.02 0 0 0-.908.738 1.982 1.982 0 0 0 .252 2.525c.38.375.894.586 1.431.586zM12.87 11.333a.68.68 0 0 0 .476-.195.662.662 0 0 0 .198-.471c0-.623-.178-1.234-.512-1.762a3.361 3.361 0 0 0-1.378-1.229 3.412 3.412 0 0 0-3.55.357 4.744 4.744 0 0 0-2.418-1.271 4.78 4.78 0 0 0-2.726.267A4.713 4.713 0 0 0 .842 8.745a4.626 4.626 0 0 0-.798 2.588c0 .177.071.347.198.472A.68.68 0 0 0 .719 12h8.1a.68.68 0 0 0 .477-.195.663.663 0 0 0 .198-.472" fill="#5E5E5E"/>
</svg>
