<svg width="23" height="23" viewBox="0 0 23 23" fill="none" xmlns="http://www.w3.org/2000/svg">
    <path d="M1 2.654C1 1.74 1.74 1 2.654 1h5.308c.913 0 1.653.74 1.653 1.654v5.308c0 .913-.74 1.653-1.653 1.653H2.654C1.74 9.615 1 8.875 1 7.962V2.654zm12.385 0c0-.914.74-1.654 1.654-1.654h5.307C21.26 1 22 1.74 22 2.654v5.308c0 .913-.74 1.653-1.654 1.653H15.04c-.914 0-1.654-.74-1.654-1.653V2.654zM1 15.039c0-.914.74-1.654 1.654-1.654h5.308c.913 0 1.653.74 1.653 1.654v5.307c0 .913-.74 1.654-1.653 1.654H2.654C1.74 22 1 21.26 1 20.346V15.04zm12.385 0c0-.914.74-1.654 1.654-1.654h5.307c.913 0 1.654.74 1.654 1.654v5.307C22 21.26 21.26 22 20.346 22H15.04c-.914 0-1.654-.74-1.654-1.654V15.04z" stroke="#696969" stroke-width="2"/>
</svg>
