<svg width="60" height="60" viewBox="0 0 60 60" fill="none" xmlns="http://www.w3.org/2000/svg">
    <path d="M60 0H8.986v8.986H0V60h51.014v-8.986H60V0zm-4.286 46.728h-4.7V8.986H13.272v-4.7h42.442v42.442zm-8.986 8.986h-28.89c1.056-15.447 13.443-27.834 28.89-28.89v28.89zM4.286 13.271h42.442v9.302c-17.804 1.074-32.067 15.337-33.14 33.141H4.285V13.271z" fill="#EA7DB7"/>
    <path d="M14.081 29.96c3.8 0 6.893-3.093 6.893-6.893s-3.092-6.89-6.893-6.89c-3.8 0-6.893 3.09-6.893 6.89s3.093 6.893 6.893 6.893zm0-9.498a2.61 2.61 0 0 1 2.608 2.605 2.61 2.61 0 0 1-2.608 2.607 2.61 2.61 0 0 1-2.607-2.607 2.61 2.61 0 0 1 2.607-2.605z" fill="#EA7DB7"/>
</svg>
