<svg width="90" height="64" viewBox="0 0 90 64" fill="none" xmlns="http://www.w3.org/2000/svg">
    <path d="M45 23.666a6.673 6.673 0 0 0-6.667 6.667c0 1.61.6 3.17 1.667 4.383v15.617c0 2.757 2.243 5 5 5s5-2.243 5-5V34.716a6.655 6.655 0 0 0 1.667-4.383A6.673 6.673 0 0 0 45 23.666zm2.218 9.132a1.66 1.66 0 0 0-.551 1.238v16.297A1.67 1.67 0 0 1 45 52a1.67 1.67 0 0 1-1.667-1.667V34.036c0-.471-.2-.921-.551-1.238a3.294 3.294 0 0 1-1.115-2.465A3.337 3.337 0 0 1 45 27a3.337 3.337 0 0 1 3.333 3.333c0 .94-.396 1.817-1.115 2.465z" fill="#2B8649"/>
    <path d="M1.667 57h26.395c4.46 4.123 10.4 6.666 16.938 6.666 6.538 0 12.478-2.543 16.938-6.666h26.394c.92 0 1.666-.747 1.666-1.667L90 2c0-.05-.025-.095-.028-.145-.009-.099-.004-.195-.03-.294-.012-.04-.037-.071-.05-.11-.025-.071-.059-.135-.094-.203a1.647 1.647 0 0 0-.216-.325c-.027-.032-.04-.073-.07-.103-.022-.022-.055-.032-.079-.052a1.632 1.632 0 0 0-.348-.233c-.053-.029-.102-.064-.158-.085a1.686 1.686 0 0 0-.594-.117H1.667c-.212 0-.41.048-.599.122C1.007.478.955.516.895.546a1.623 1.623 0 0 0-.328.222 1.697 1.697 0 0 0-.36.468c-.037.069-.07.135-.097.21-.015.04-.042.074-.053.115-.027.099-.022.199-.03.297C.025 1.908 0 1.95 0 2v53.333A1.67 1.67 0 0 0 1.667 57zm60.015-4.524c-.175.212-.372.405-.555.612-.297.33-.589.665-.909.98-3.916 3.868-9.291 6.265-15.218 6.265-5.925 0-11.298-2.395-15.213-6.262-.329-.325-.63-.668-.937-1.01-.175-.196-.362-.381-.53-.583-.177-.212-.33-.438-.497-.657-2.356-3.07-3.923-6.771-4.358-10.818-.005-.043-.015-.085-.018-.128a21.506 21.506 0 0 1-.114-2.209c0-6.463 2.859-12.256 7.362-16.23a21.79 21.79 0 0 1 1.58-1.268 21.896 21.896 0 0 1 3.02-1.845c.16-.08.322-.157.485-.233.432-.205.87-.399 1.313-.574.197-.078.399-.148.599-.22.421-.151.845-.298 1.275-.423.253-.073.511-.133.768-.198.388-.099.777-.197 1.172-.274.353-.068.713-.113 1.071-.163.314-.045.624-.1.939-.13C43.603 17.04 44.297 17 45 17c.703 0 1.397.04 2.083.105.315.03.627.086.939.13.358.05.718.096 1.071.163.395.077.784.175 1.172.273.257.065.515.125.768.199.43.125.854.271 1.275.423.2.072.402.142.599.22.445.175.881.368 1.313.573.162.077.325.154.485.234a22.673 22.673 0 0 1 1.713.963 22.116 22.116 0 0 1 1.625 1.12c.432.327.854.668 1.262 1.03 4.503 3.977 7.362 9.77 7.362 16.233a22 22 0 0 1-.112 2.209c-.005.046-.015.091-.02.138-.438 4.05-2.008 7.755-4.37 10.827-.165.21-.313.43-.483.636zm24.983 1.192h-21.67c.19-.252.358-.518.538-.777.097-.14.197-.278.292-.42.402-.601.778-1.216 1.123-1.848l.037-.063a24.53 24.53 0 0 0 1.85-4.36c.037-.119.068-.239.103-.357a24.105 24.105 0 0 0 .6-2.457c.109-.57.195-1.145.264-1.725.025-.213.056-.425.078-.641.073-.779.12-1.562.12-2.354 0-6.585-2.578-12.565-6.753-17.035l23.42-16.718-.002 48.755zM82.213 3.666 60.718 19.251a25.079 25.079 0 0 0-3.5-2.373l-.036-.022a24.795 24.795 0 0 0-1.409-.713c-.21-.102-.416-.208-.63-.303a24.807 24.807 0 0 0-1.291-.522c-.285-.108-.569-.217-.857-.315-.402-.137-.807-.26-1.217-.375-.35-.1-.701-.188-1.056-.272-.372-.086-.742-.173-1.119-.243a25.951 25.951 0 0 0-1.345-.207c-.305-.04-.606-.09-.915-.118A23.84 23.84 0 0 0 45 13.666c-.785 0-1.567.045-2.343.119-.309.028-.61.078-.915.118-.45.06-.9.122-1.345.207-.377.07-.749.156-1.119.243a25.003 25.003 0 0 0-2.273.647c-.288.098-.572.205-.857.315-.435.165-.868.333-1.291.521-.214.095-.42.204-.63.304-.475.228-.95.456-1.409.713l-.036.022a25.07 25.07 0 0 0-3.5 2.373L7.787 3.666h74.426zM3.333 4.913l23.42 16.718C22.578 26.101 20 32.081 20 38.666c0 .792.047 1.575.12 2.354.02.215.052.425.077.638.07.583.156 1.16.265 1.732a25.209 25.209 0 0 0 .603 2.463c.033.113.063.228.098.342a24.529 24.529 0 0 0 1.879 4.41c.35.638.73 1.261 1.136 1.87.092.138.19.273.285.411.182.26.35.527.542.782H3.333V4.913z" fill="#2B8649"/>
</svg>
