<svg width="41" height="41" viewBox="0 0 41 41" fill="none" xmlns="http://www.w3.org/2000/svg">
    <path d="M40.5 20.5c0 11.046-8.954 20-20 20s-20-8.954-20-20 8.954-20 20-20 20 8.954 20 20z" fill="#2DC100"/>
    <path d="M25.677 16.327c-2.562.133-4.79.91-6.6 2.665-1.827 1.773-2.661 3.945-2.433 6.639-1.002-.124-1.914-.26-2.831-.338-.317-.027-.693.011-.961.163-.891.502-1.745 1.07-2.757 1.703.185-.84.305-1.576.518-2.284.157-.52.084-.81-.395-1.148-3.076-2.171-4.372-5.421-3.402-8.767.898-3.095 3.102-4.973 6.098-5.951 4.088-1.336 8.683.027 11.169 3.273.898 1.172 1.449 2.488 1.594 4.045zm-11.793-1.043c.024-.612-.506-1.163-1.136-1.182a1.148 1.148 0 0 0-1.194 1.11c-.02.644.473 1.16 1.123 1.176.644.017 1.184-.477 1.207-1.104zm6.153-1.182c-.632.012-1.166.55-1.155 1.164a1.153 1.153 0 0 0 1.186 1.128 1.133 1.133 0 0 0 1.14-1.162 1.14 1.14 0 0 0-1.17-1.13z" fill="#fff"/>
    <path d="M31.434 32.3c-.812-.361-1.556-.903-2.348-.986-.79-.082-1.62.373-2.445.457-2.516.258-4.77-.443-6.627-2.162-3.534-3.269-3.03-8.28 1.06-10.96 3.633-2.38 8.963-1.587 11.525 1.717 2.236 2.883 1.973 6.709-.756 9.13-.79.702-1.075 1.278-.568 2.202.094.17.105.387.159.602zm-9.236-8.942a.957.957 0 0 0 .962-.914.961.961 0 0 0-.955-.995.971.971 0 0 0-.965.99c.017.507.446.919.958.92zm5.954-1.907a.955.955 0 0 0-.948.913.94.94 0 0 0 .936.988.93.93 0 0 0 .946-.906.948.948 0 0 0-.934-.995z" fill="#fff"/>
</svg>
