<svg width="12" height="16" viewBox="0 0 12 16" fill="none" xmlns="http://www.w3.org/2000/svg">
    <path d="M11.25 13.996H.753a.748.748 0 0 0-.75.752.754.754 0 0 0 .75.752H11.25a.748.748 0 0 0 .75-.752.753.753 0 0 0-.75-.752zM.753 12.491H.82l3.127-.286c.343-.034.663-.185.907-.428l6.748-6.77a1.447 1.447 0 0 0-.052-2.038L9.496.908A1.497 1.497 0 0 0 7.5.855L.753 7.625a1.506 1.506 0 0 0-.427.91L.003 11.67a.754.754 0 0 0 .462.764c.091.038.19.057.288.056zm7.7-10.53L10.5 4.014 9 5.481 6.992 3.465l1.462-1.504zM1.78 8.663l4.221-4.205L8.026 6.49l-4.199 4.212-2.25.21.203-2.248z" fill="#696969"/>
</svg>
