<svg width="12" height="12" viewBox="0 0 12 12" fill="none" xmlns="http://www.w3.org/2000/svg">
    <path d="M5.692 12a5.492 5.492 0 0 1-2.027-.405 5.241 5.241 0 0 1-1.702-1.116C.983 9.51.443 8.217.456 6.877c.013-1.34.58-2.623 1.578-3.576L5.31.2a.698.698 0 0 1 .501-.2.742.742 0 0 1 .502.207l3.22 3.146c.98.97 1.523 2.262 1.51 3.602-.011 1.34-.576 2.624-1.573 3.578a5.203 5.203 0 0 1-1.73 1.1 5.444 5.444 0 0 1-2.048.366z" fill="#5E5E5E"/>
    <path d="M8.977 6.9c0 1.657-1.413 3-3.156 3s-3.156-1.343-3.156-3 1.413-3 3.156-3 3.156 1.343 3.156 3z" fill="#fff"/>
    <path d="M4.559 5.7h2.525v2.4H4.559V5.7z" fill="#5E5E5E"/>
</svg>
