<svg width="17" height="15" viewBox="0 0 17 15" fill="none" xmlns="http://www.w3.org/2000/svg">
    <path d="M5.907 6.667c.668 0 1.32-.196 1.875-.562a3.343 3.343 0 0 0 1.243-1.496c.256-.61.322-1.28.192-1.926A3.32 3.32 0 0 0 8.294.976 3.388 3.388 0 0 0 6.566.064a3.414 3.414 0 0 0-1.95.19A3.366 3.366 0 0 0 3.1 1.48a3.304 3.304 0 0 0 .42 4.21 3.397 3.397 0 0 0 2.386.976zM12.655 8.334c.501 0 .99-.147 1.407-.422.416-.274.74-.665.932-1.122a2.472 2.472 0 0 0-.549-2.724 2.56 2.56 0 0 0-2.759-.542c-.462.19-.857.51-1.135.92a2.478 2.478 0 0 0 .315 3.157 2.548 2.548 0 0 0 1.79.733zM16.031 14.167a.85.85 0 0 0 .597-.244.828.828 0 0 0 .247-.59 4.13 4.13 0 0 0-.64-2.202 4.2 4.2 0 0 0-1.722-1.536 4.265 4.265 0 0 0-4.439.447 5.93 5.93 0 0 0-3.022-1.59 5.975 5.975 0 0 0-3.408.334A5.891 5.891 0 0 0 .997 10.93 5.782 5.782 0 0 0 0 14.167c0 .22.089.433.247.589A.85.85 0 0 0 .844 15h10.125a.85.85 0 0 0 .596-.244.828.828 0 0 0 .248-.59" fill="#5E5E5E"/>
</svg>
