<svg width="25" height="25" viewBox="0 0 25 25" fill="none" xmlns="http://www.w3.org/2000/svg">
    <path d="M10.392 16.558a16.139 16.139 0 0 0 2.103 3.375 16.179 16.179 0 0 0 2.11-3.375 48.45 48.45 0 0 0-4.213 0zM5.43 17.021c1.178 1.581 2.908 2.718 4.885 3.212a16.671 16.671 0 0 1-1.975-3.541c-.974.08-1.949.189-2.91.33zM4.443 9.33a7.71 7.71 0 0 0 0 5.964 54.12 54.12 0 0 1 3.33-.421 11.282 11.282 0 0 1 0-5.128 49.138 49.138 0 0 1-3.33-.415zM9.747 14.732a51.567 51.567 0 0 1 5.504 0 9.638 9.638 0 0 0 0-4.847 48.695 48.695 0 0 1-5.504 0 9.637 9.637 0 0 0 0 4.847zM20.555 15.294a7.787 7.787 0 0 0 0-5.964 49.66 49.66 0 0 1-3.33.415 11.282 11.282 0 0 1 0 5.128c1.09.103 2.213.244 3.33.42zM14.676 4.39c.808 1.102 1.473 2.29 1.981 3.542.975-.08 1.949-.196 2.91-.33-1.18-1.58-2.912-2.718-4.89-3.211zM14.605 8.066a16.018 16.018 0 0 0-2.11-3.376 15.984 15.984 0 0 0-2.103 3.376c1.4.061 2.813.061 4.213 0zM1.522 8.004a.792.792 0 0 0 .879-.048c.252-.201.364-.575.474-.856l.4-1.018h3.41l.401.996c.148.366.328.91.784 1.014a.89.89 0 0 0 .689-.135.812.812 0 0 0 .238-.255.766.766 0 0 0 .103-.326 2.47 2.47 0 0 0-.258-.85l-2.19-5.12a4.882 4.882 0 0 0-.49-1.029c-.312-.43-.915-.449-1.431-.272-.62.212-.804.924-1.02 1.444L1.364 6.57c-.206.482-.427 1.103.157 1.435zm3.442-6.27 1.264 3.14H3.722l1.242-3.14zM22.902 19.375a.67.67 0 0 0 .461-.18.6.6 0 0 0 .19-.436.6.6 0 0 0-.19-.436.67.67 0 0 0-.46-.18H18.55l.074-.78a.595.595 0 0 0-.149-.45.677.677 0 0 0-.918-.078.606.606 0 0 0-.23.418l-.085.89h-1.486a.67.67 0 0 0-.46.18.6.6 0 0 0-.191.436.6.6 0 0 0 .19.436.67.67 0 0 0 .461.18h1.369l-.206 2.167c-.015.16.037.32.145.445.32.346.675.66 1.061.938a6.209 6.209 0 0 1-2.712.845.665.665 0 0 0-.432.208.596.596 0 0 0 .04.85.672.672 0 0 0 .508.17 7.353 7.353 0 0 0 3.77-1.34c.915.483 2.098 1.048 3.542 1.177a.672.672 0 0 0 .511-.168.596.596 0 0 0 .042-.85.665.665 0 0 0-.43-.21c-1.041-.092-1.922-.51-2.646-.845a8.214 8.214 0 0 0 1.836-3.387h.748zm-3.73 2.743a7.337 7.337 0 0 1-.93-.738l.191-2.005h2.376a6.649 6.649 0 0 1-1.637 2.743z" fill="#5E5E5E"/>
    <path d="M12.5.483c-1.425 0-2.84.23-4.183.683l.602 1.404c2-.66 4.16-.753 6.216-.27a11.037 11.037 0 0 1 5.358 2.992 10.103 10.103 0 0 1 2.754 5.279 9.8 9.8 0 0 1-.75 5.843h.407c.419 0 .83.102 1.196.294.596-1.398.902-2.891.9-4.398C25 6.145 19.392.483 12.5.483zM1.598 12.443a9.618 9.618 0 0 1 .32-2.472c-.55.001-1.084-.166-1.525-.475a11.211 11.211 0 0 0-.133 5.34 11.55 11.55 0 0 0 2.363 4.851A12.393 12.393 0 0 0 7 23.061a13.097 13.097 0 0 0 5.5 1.208c.169 0 .342-.004.511-.013.052-.457.246-.888.558-1.24.116-.133.25-.252.397-.354-.486.064-.976.096-1.466.095-2.89-.003-5.662-1.09-7.705-3.024-2.044-1.934-3.194-4.556-3.197-7.29z" fill="#5E5E5E"/>
</svg>
