<svg width="16" height="18" viewBox="0 0 16 18" fill="none" xmlns="http://www.w3.org/2000/svg">
    <path d="M15.522 13.296a2.48 2.48 0 0 0-1.911-.915c-.273 0-.546.041-.82.146l-3.088 1.081c-.02.125-.042.27-.063.395l-.02.063c-.022.041-.022.104-.043.124a1.31 1.31 0 0 1-1.218.812c-.084 0-.168 0-.231-.021l-4.622-.811c-.168-.021-.273-.167-.273-.333v-.063c.021-.187.21-.29.378-.27l4.622.811h.105c.252 0 .504-.145.588-.395 0-.02.021-.062.021-.083v-.021a1.47 1.47 0 0 0-1.008-1.83l-2.1-.603s-1.43-1.456-3.068-1.56c-.756-.063-1.911.27-2.479.52v.312l-.126 4.263c0 .063-.02.125-.042.208l4.685 2.018a4.48 4.48 0 0 0 3.55-.021l6.995-3.14c.273-.125.357-.479.168-.687z" fill="#2191FB"/>
    <path d="M9.002 11.212a3.985 3.985 0 0 1-1.619-.36 4.176 4.176 0 0 1-1.358-.997A4.741 4.741 0 0 1 4.82 6.638a4.732 4.732 0 0 1 1.26-3.192L8.698.679a.506.506 0 0 1 .4-.179.539.539 0 0 1 .4.185l2.571 2.808a4.74 4.74 0 0 1 1.207 3.216 4.732 4.732 0 0 1-1.257 3.194 4.13 4.13 0 0 1-1.381.982 3.944 3.944 0 0 1-1.636.327z" fill="#2191FB"/>
    <path d="M11.626 6.66c0 1.479-1.129 2.678-2.52 2.678-1.392 0-2.52-1.2-2.52-2.678 0-1.48 1.128-2.678 2.52-2.678 1.391 0 2.52 1.199 2.52 2.678z" fill="#fff"/>
    <path d="M8.097 5.588h2.017v2.143H8.097V5.588z" fill="#2191FB"/>
</svg>
