<svg width="26" height="22" viewBox="0 0 26 22" fill="none" xmlns="http://www.w3.org/2000/svg">
    <path fill-rule="evenodd" clip-rule="evenodd" d="M10.656 1.625a3.125 3.125 0 1 0 0 6.25 3.125 3.125 0 0 0 0-6.25zM5.97 4.75a4.687 4.687 0 1 1 9.375 0 4.687 4.687 0 0 1-9.375 0zM.5 19.594A8.594 8.594 0 0 1 9.094 11h3.125a8.594 8.594 0 0 1 8.594 8.594v.781c0 .863-.7 1.563-1.563 1.563H2.062c-.862 0-1.562-.7-1.562-1.563v-.781zm8.594-7.032a7.031 7.031 0 0 0-7.031 7.032v.781H19.25v-.781a7.031 7.031 0 0 0-7.031-7.032H9.094zM22.375 3.97a.781.781 0 0 0-1.563 0v2.344H18.47a.781.781 0 1 0 0 1.562h2.343v2.344a.781.781 0 0 0 1.563 0V7.875h2.344a.781.781 0 0 0 0-1.563h-2.344V3.97z" fill="#fff"/>
</svg>
