<svg width="101" height="100" viewBox="0 0 101 100" fill="none" xmlns="http://www.w3.org/2000/svg">
    <rect x=".75" width="100" height="100" rx="50" fill="#5E5E5E" fill-opacity=".8"/>
    <path d="M27.536 52.5h5.357c.982 0 1.786-1.125 1.786-2.5v-5c0-1.375-.804-2.5-1.786-2.5s-1.786 1.125-1.786 2.5v2.5h-3.571c-.982 0-1.786 1.125-1.786 2.5s.804 2.5 1.786 2.5zM40.036 67.5c.982 0 1.785-1.125 1.785-2.5V35c0-1.375-.803-2.5-1.785-2.5-.982 0-1.786 1.125-1.786 2.5v30c0 1.375.804 2.5 1.786 2.5zM47.179 62.5c.982 0 1.785-1.125 1.785-2.5V40c0-1.375-.803-2.5-1.785-2.5-.983 0-1.786 1.125-1.786 2.5v20c0 1.375.803 2.5 1.786 2.5zM54.321 75c.983 0 1.786-1.125 1.786-2.5v-45c0-1.375-.803-2.5-1.786-2.5-.982 0-1.785 1.125-1.785 2.5v45c0 1.375.803 2.5 1.785 2.5zM61.464 65c.982 0 1.786-1.125 1.786-2.5v-25c0-1.375-.804-2.5-1.786-2.5s-1.785 1.125-1.785 2.5v25c0 1.375.803 2.5 1.785 2.5zM73.964 47.5h-3.571V45c0-1.375-.804-2.5-1.786-2.5s-1.786 1.125-1.786 2.5v5c0 1.375.804 2.5 1.786 2.5h5.357c.982 0 1.786-1.125 1.786-2.5s-.804-2.5-1.786-2.5z" fill="#fff"/>
</svg>
