<svg width="25" height="18" viewBox="0 0 25 18" fill="none" xmlns="http://www.w3.org/2000/svg">
    <path d="M24.85 8.488C24.627 8.158 19.266.406 12.5.406S.374 8.158.15 8.488c-.2.293-.2.731 0 1.024.224.33 5.585 8.082 12.35 8.082s12.126-7.752 12.35-8.082c.2-.293.2-.731 0-1.024zM12.5 16.05c-5.26 0-9.78-5.35-11.082-7.05C2.718 7.3 7.23 1.951 12.5 1.951c5.26 0 9.78 5.35 11.082 7.05-1.3 1.7-5.812 7.048-11.082 7.048z" fill="#696969"/>
    <path d="M12.5 3.288C10.073 3.288 7.031 5.85 7.031 9s3.042 5.712 5.469 5.712c2.427 0 5.469-2.562 5.469-5.712S14.927 3.288 12.5 3.288z" fill="#696969"/>
</svg>
