<svg width="20" height="18" viewBox="0 0 20 18" fill="none" xmlns="http://www.w3.org/2000/svg">
    <path d="m6.685 7.274-.176.178a.673.673 0 0 0 .475.195h3.803a.67.67 0 0 0 .657-.669.67.67 0 0 0-.657-.668H6.984a.67.67 0 0 0-.474 1.142l.175-.178zm0 0a.416.416 0 0 1-.123-.296.42.42 0 0 1 .422-.418h3.797a.42.42 0 0 1 .413.418.42.42 0 0 1-.413.419H6.984a.423.423 0 0 1-.299-.123zm9.814-4.26-.003-.002A10.095 10.095 0 0 0 10 .751a10.093 10.093 0 0 0-6.496 2.261l-.002.002C1.734 4.496.75 6.483.75 8.61c0 1.891.784 3.682 2.206 5.098-.074.117-.156.238-.246.371a13.51 13.51 0 0 0-1.264 2.227.666.666 0 0 0 .037.615.673.673 0 0 0 .524.324h.002c.048.003.099.005.154.005h.015a21.79 21.79 0 0 0 2.25-.253c1.627-.225 3.827-.527 5.57-.527 2.367.029 4.668-.772 6.498-2.262l.003-.002c1.767-1.481 2.751-3.468 2.751-5.596s-.984-4.114-2.751-5.596zM4.24 15.674c-.366.05-.723.1-1.04.14.192-.337.4-.665.622-.983a8.51 8.51 0 0 0 .58-.944l.003-.006a.666.666 0 0 0-.158-.8c-1.395-1.22-2.153-2.81-2.153-4.47 0-3.556 3.501-6.523 7.906-6.523 4.405 0 7.907 2.967 7.907 6.522 0 3.556-3.5 6.523-7.907 6.523-1.843 0-4.113.314-5.755.54H4.24zm9.448-5.43a.67.67 0 0 0-.671-.669H6.983a.67.67 0 0 0-.671.669.67.67 0 0 0 .671.668h6.034a.67.67 0 0 0 .671-.668z" fill="#696969" stroke="#696969" stroke-width=".5"/>
</svg>
