<svg width="16" height="16" viewBox="0 0 16 16" fill="none" xmlns="http://www.w3.org/2000/svg">
    <path d="M9.5 9.757c-1.746-.013-3.33-1.651-2.706-3.533.352-1.06.871-2.05 1.393-3.037.343-.648.707-1.283 1.068-1.922.191-.338.353-.359.547-.026.5.86 1.001 1.72 1.44 2.607.396.801.766 1.621 1.052 2.462.45 1.324-.259 2.687-1.623 3.217-.366.142-.713.138-1.1.232H9.5zm.079-8.05h-.081c-.211.384-.427.766-.636 1.152-.592 1.086-1.193 2.168-1.56 3.346-.105.337-.205.706-.172 1.049.16 1.621 1.904 2.54 3.46 1.846 1.019-.455 1.566-1.55 1.319-2.4-.148-.508-.298-1.023-.527-1.5-.5-1.04-1.053-2.058-1.584-3.084-.071-.137-.146-.274-.22-.409zM9 14.989c-2.13-.09-3.446-.526-4.97-1.403a6.363 6.363 0 0 0-.863-.397 1.215 1.215 0 0 0-.934.01c-.24.099-.49.181-.737.266-.069.024-.15.061-.21.046-.1-.026-.224-.073-.263-.146-.028-.052.047-.213.116-.24.845-.333 1.684-.694 2.609-.194.598.324 1.204.64 1.836.897 1.167.474 2.401.681 3.669.723.535.017.837-.124 1.337-.319 1.91-.742 2.514-1.593 3.571-3.027.14-.143.317-.706.36-.903.024-.107-.055-.283-.148-.35a.525.525 0 0 0-.403-.043c-.154.052-.288.174-.416.28-.482.401-.958.81-1.436 1.214-.107.09-.223.19-.355.043-.12-.131-.056-.245.06-.343.572-.483 1.128-.979 1.715-1.443.452-.356 1.025-.294 1.317.127a.89.89 0 0 1 .144.522c-.016.324-.14.63-.395.86-1.05 1.266-1.604 2.03-2.962 3.063-.971.589-2.154.809-2.642.762v-.005z" fill="#231F20"/>
    <path d="M10.303 12.983c.47-.065.95-.133 1.34-.425.345-.26.372-.698.027-.958a1.685 1.685 0 0 0-.745-.322c-.477-.066-.97-.032-1.45-.074-.356-.03-.74-.046-1.053-.187-.615-.275-1.187-.63-1.778-.953-.298-.163-.582-.363-.898-.481a4.419 4.419 0 0 0-2.919-.077c-.52.161-1.062.264-1.595.395-.136.034-.279.107-.217.251.035.083.191.126.3.167.045.019.112-.01.168-.025.539-.136 1.084-.254 1.615-.417a3.526 3.526 0 0 1 2.587.178c.535.249 1.017.599 1.53.895.701.404 1.424.745 2.287.685.302-.02.61-.018.912.011.277.028.551.088.814.169.092.028.195.16.207.253.01.07-.099.194-.186.232-.215.095-.44.178-.671.225-.857.174-2.6.181-2.6.181a2.08 2.08 0 0 1-.806-.24c-.36-.183-.69-.42-1.03-.642-.12-.078-.232-.067-.287.047-.034.07-.024.2.025.253.115.12.27.202.4.31.668.564.935.57 1.804.724.868.153 2.22-.116 2.387-.227M9.5 9.757c-1.746-.013-3.33-1.651-2.706-3.533.352-1.06.871-2.05 1.393-3.037.343-.648.707-1.283 1.068-1.922.191-.338.353-.359.547-.026.5.86 1.001 1.72 1.44 2.607.396.801.766 1.621 1.052 2.462.45 1.324-.259 2.687-1.623 3.217-.366.142-.713.138-1.1.232H9.5zm.079-8.05h-.081c-.211.384-.427.766-.636 1.152-.592 1.086-1.193 2.168-1.56 3.346-.105.337-.205.706-.172 1.049.16 1.621 1.904 2.54 3.46 1.846 1.019-.455 1.566-1.55 1.319-2.4-.148-.508-.298-1.023-.527-1.5-.5-1.04-1.053-2.058-1.584-3.084-.071-.137-.146-.274-.22-.409zM9 14.988c-2.13-.09-3.446-.525-4.97-1.402a6.363 6.363 0 0 0-.863-.397 1.215 1.215 0 0 0-.934.01c-.24.099-.49.181-.737.266-.069.024-.15.061-.21.046-.1-.026-.224-.073-.263-.146-.028-.052.047-.213.116-.24.845-.333 1.684-.694 2.609-.194.598.324 1.204.64 1.836.897 1.167.474 2.401.681 3.669.723.535.017.837-.124 1.337-.319 1.91-.742 2.514-1.593 3.571-3.027.14-.143.317-.706.36-.903.024-.107-.055-.283-.148-.35a.525.525 0 0 0-.403-.043c-.154.052-.288.174-.416.28-.482.401-.958.81-1.436 1.214-.107.09-.223.19-.355.043-.12-.131-.056-.245.06-.343.572-.483 1.128-.979 1.715-1.443.452-.356 1.025-.294 1.317.127a.89.89 0 0 1 .144.522c-.016.324-.14.63-.395.86-1.05 1.266-1.604 2.03-2.962 3.063-.971.589-2.154.809-2.642.762v-.005z" stroke="#231F20" stroke-width=".5"/>
</svg>
