<svg width="19" height="18" viewBox="0 0 19 18" fill="none" xmlns="http://www.w3.org/2000/svg">
    <path d="M15.559 12c-.744.002-1.459.31-1.99.86L6.086 9.342v-.67l7.483-3.53a2.78 2.78 0 0 0 1.736.846 2.729 2.729 0 0 0 1.85-.506c.543-.39.942-.965 1.128-1.63a3.156 3.156 0 0 0-.105-2.014 2.946 2.946 0 0 0-1.29-1.489A2.71 2.71 0 0 0 14.996.06a2.82 2.82 0 0 0-1.638 1.042 3.105 3.105 0 0 0-.641 1.901v.34l-7.483 3.52a2.796 2.796 0 0 0-1.456-.807 2.704 2.704 0 0 0-1.635.18A2.882 2.882 0 0 0 .876 7.34 3.12 3.12 0 0 0 .4 9.001c0 .591.166 1.17.476 1.661.31.492.75.877 1.267 1.105a2.704 2.704 0 0 0 1.635.18 2.796 2.796 0 0 0 1.456-.806l7.483 3.53V15c0 .593.167 1.173.479 1.666.312.493.756.878 1.275 1.105.52.227 1.09.286 1.642.17a2.8 2.8 0 0 0 1.455-.82c.397-.42.668-.954.778-1.536a3.155 3.155 0 0 0-.162-1.734 2.97 2.97 0 0 0-1.047-1.346 2.736 2.736 0 0 0-1.578-.505z" fill="#696969"/>
</svg>
