<svg width="16" height="11" viewBox="0 0 16 11" fill="none" xmlns="http://www.w3.org/2000/svg">
    <path d="M15.904 5.173C15.761 4.96 12.33 0 8 0S.24 4.961.096 5.173a.609.609 0 0 0 0 .654C.239 6.04 3.67 11 8 11s7.76-4.961 7.904-5.173a.608.608 0 0 0 0-.654zM8 10.01c-3.367 0-6.259-3.423-7.093-4.511C1.74 4.41 4.627.989 8 .989c3.367 0 6.259 3.423 7.092 4.511-.832 1.089-3.72 4.511-7.092 4.511z" fill="#393939"/>
    <path d="M8 1.844c-1.553 0-3.5 1.64-3.5 3.656S6.447 9.156 8 9.156s3.5-1.64 3.5-3.656S9.553 1.844 8 1.844z" fill="#393939"/>
</svg>
