<svg width="349" height="206" viewBox="0 0 349 206" fill="none" xmlns="http://www.w3.org/2000/svg">
    <mask id="mfrsssx1pa" style="mask-type:alpha" maskUnits="userSpaceOnUse" x="0" y="0" width="349" height="206">
        <path transform="rotate(-90 0 206)" fill="#F8F5F5" d="M0 206h206v348.5H0z"/>
    </mask>
    <g mask="url(#mfrsssx1pa)" stroke-width="25" stroke-linecap="round">
        <path d="M21.781 135c16.978 41.705 43.147 66.268 58.084 78" stroke="#2168C4"/>
        <path d="M244.1 220c3.37-18.337 24.078-55.523 36.092-71.039 12.015-15.517 33.777-29.167 71.529-36.71 24.358-4.867 49.317-4.792 73.636 3.828 57.05 22.974 74.244 55.309 80.118 69.71" stroke="#2B8649"/>
        <path d="M168.992 206c0-20.397-7.047-41.573-25.415-59.575-11.338-11.112-21.061-20.667-37.93-29.788-17.193-9.297-37.206-16.52-53.798-26.09C30.2 78.061 31.542 60.424 31.981 44.297 32.506 25.004 34.913 3.771 43.592-15" stroke="#F21000"/>
        <path d="M138.36-7.946c25.625 15.272 35.423 31.696 40.783 50.391 3.239 11.297 8.378 22.46 22.843 32.036 15.87 10.505 42.278 12.291 65.434 4.91 14.694-4.683 25.79-13.39 38.718-19.174 29.584-13.237 61.297-27.121 98.215-35.952 31.389-7.508 63.216-12.468 96.409-17.48" stroke="#FFA902"/>
    </g>
</svg>
