<svg width="1440" height="1024" viewBox="0 0 1440 1024" fill="none" xmlns="http://www.w3.org/2000/svg">
    <mask id="8v7cj0jp3a" style="mask-type:alpha" maskUnits="userSpaceOnUse" x="0" y="0" width="1440" height="1024">
        <path transform="rotate(-90 0 1024)" fill="#F8F5F5" d="M0 1024h1024v1440H0z"/>
    </mask>
    <g mask="url(#8v7cj0jp3a)" stroke-width="36" stroke-linecap="round">
        <path d="M738-16.5C538 22 417.5 65 321 206" stroke="#2191FB"/>
        <path d="M1042.87 1057.87c-11.8-28.11 10.19-97.796 15.63-118.87 8.84-34.2 38.96-100.963 95.63-139.585 36.57-24.92 77.59-41.999 123.55-44.364 109.75-.949 160.66 41.211 180.4 61.217" stroke="#2B8649"/>
        <path d="M467.422 747C453.667 782.427 432 884.337 331.887 907.885c-66.387 15.615-164.405-28.191-190.31-39.867" stroke="#F23A00"/>
        <path d="M150.537 323c-23.197 9.5-40.104 23.126-60 37-35 24.408-61.137 51-69 83-6.928 28.199-6.693 42.604-12 72.5C-10.67 629.352-85.13 543.042-103 464.249" stroke="#EA7DB7"/>
        <path d="M1236.35-21c-11.75 45.652-32.31 67.834-58.29 84.306-15.7 9.953-30.34 22.727-38.42 48.923-8.87 28.74.2 69.556 21.72 101.35 13.66 20.175 60.44 69.913 74.99 86.921 33.28 38.919 39.87 43.964 69.74 95.965 25.39 44.212 47.11 90.228 69.51 138.289" stroke="#FFA902"/>
    </g>
</svg>
