<svg width="12" height="14" viewBox="0 0 12 14" fill="none" xmlns="http://www.w3.org/2000/svg">
    <path d="M5.77 14a5.76 5.76 0 0 1-4.109-1.774 6.01 6.01 0 0 1 .078-8.376L5.349.234A.731.731 0 0 1 5.901 0a.778.778 0 0 1 .553.241l3.548 3.671a6.011 6.011 0 0 1-.07 8.376A5.703 5.703 0 0 1 5.769 14z" fill="#2191FB"/>
    <path d="M9.39 8.05c0 1.933-1.558 3.5-3.478 3.5-1.92 0-3.478-1.567-3.478-3.5s1.557-3.5 3.478-3.5c1.92 0 3.477 1.567 3.477 3.5z" fill="#fff"/>
    <path d="M4.52 6.65h2.783v2.8H4.52v-2.8z" fill="#2191FB"/>
</svg>
