<svg width="16" height="16" viewBox="0 0 16 16" fill="none" xmlns="http://www.w3.org/2000/svg">
<g clip-path="url(#clip0_2420_9031)">
<path fill-rule="evenodd" clip-rule="evenodd" d="M11.0135 0.850501C12.1097 -0.285697 13.8919 -0.285697 14.9882 0.850501L15.1793 1.04861C16.2756 2.18481 16.2756 4.03186 15.1793 5.16805L13.2341 7.18408L14.5216 8.51838L13.7289 9.33994L6.97693 2.3596L7.76962 1.53805L9.05704 2.87235L11.0022 0.856327L11.0135 0.850501ZM7.38171 4.61452L10.9854 8.34941L6.90947 12.5737C6.69583 12.7951 6.44847 12.9816 6.17861 13.1214L4.58199 13.9488C4.41895 14.0304 4.27278 14.1411 4.14348 14.2751L2.9966 15.4638C2.31073 16.1746 1.19759 16.1746 0.517336 15.4638C-0.168539 14.7529 -0.168539 13.5992 0.517336 12.8942L1.66421 11.7056C1.79351 11.5715 1.90033 11.4201 1.97904 11.2511L2.77735 9.59631C2.91228 9.31663 3.09218 9.06026 3.30581 8.83885L7.38171 4.61452ZM7.38171 6.26346L4.10412 9.66041C3.97482 9.79442 3.868 9.94591 3.7893 10.1149L2.99098 11.7697C2.85606 12.0493 2.67616 12.3057 2.46252 12.5271L1.31565 13.7158C1.06828 13.9721 1.06828 14.3858 1.31565 14.6422C1.56301 14.8986 1.96217 14.8986 2.20954 14.6422L3.35641 13.4536C3.57004 13.2321 3.81741 13.0457 4.08726 12.9059L5.68389 12.0785C5.84692 11.9969 5.99309 11.8862 6.1224 11.7522L9.39998 8.35523L7.38171 6.26346Z" fill="#231F20"/>
</g>
<defs>
<clipPath id="clip0_2420_9031">
<rect width="16" height="16" fill="white"/>
</clipPath>
</defs>
</svg>
