<svg width="176" height="102" viewBox="0 0 176 102" fill="none" xmlns="http://www.w3.org/2000/svg">
<rect x="0.5" y="0.5" width="175" height="101" rx="19.5" fill="white"/>
<rect x="0.5" y="0.5" width="175" height="101" rx="19.5" fill="#935A8A" fill-opacity="0.15"/>
<path d="M78.5678 25.3013C78.5678 25.3013 73.5554 28.9862 73.4853 33.7131C73.4151 38.4401 73.4853 46.381 73.4853 46.381M97.4313 25.3013C97.4313 25.3013 102.444 28.9862 102.514 33.7131C102.584 38.44 102.514 44.1839 102.514 44.1839M88.0123 35.3201V55M87.9549 19.9341V15M81.1059 20.3861L84.0458 22.7024M95.2184 20.3861L92.2786 22.7024M80.6021 28.3082L83.542 25.9856M94.7083 28.3082L91.7684 25.9856M88.0123 25.8098V31.177M81.2908 35.3201V41.3591M94.7274 35.3201V47.7621" stroke="#231F20" stroke-width="2" stroke-miterlimit="10" stroke-linecap="round"/>
<!-- <path d="M54.7 82V71.328H58.94C59.7613 71.328 60.4493 71.44 61.004 71.664C61.5587 71.8773 61.98 72.2027 62.268 72.64C62.556 73.0667 62.7 73.6053 62.7 74.256C62.7 74.7253 62.5933 75.1093 62.38 75.408C62.1773 75.7067 61.9267 75.9467 61.628 76.128C61.34 76.2987 61.068 76.448 60.812 76.576L60.572 76.128C61.0627 76.1707 61.5107 76.304 61.916 76.528C62.332 76.7413 62.6627 77.04 62.908 77.424C63.1533 77.808 63.276 78.2773 63.276 78.832C63.276 79.568 63.1 80.1707 62.748 80.64C62.4067 81.1093 61.9373 81.456 61.34 81.68C60.7533 81.8933 60.0867 82 59.34 82H54.7ZM56.876 80.272H59.228C59.548 80.272 59.8467 80.2293 60.124 80.144C60.4013 80.0587 60.6253 79.904 60.796 79.68C60.9667 79.456 61.052 79.1467 61.052 78.752C61.052 78.4427 60.9987 78.1973 60.892 78.016C60.7853 77.824 60.6413 77.68 60.46 77.584C60.2787 77.4773 60.076 77.408 59.852 77.376C59.6387 77.3333 59.4147 77.312 59.18 77.312H56.876V80.272ZM56.876 75.648H59.116C59.34 75.648 59.5587 75.616 59.772 75.552C59.9853 75.4773 60.156 75.3547 60.284 75.184C60.4227 75.0027 60.492 74.752 60.492 74.432C60.492 73.9093 60.348 73.552 60.06 73.36C59.772 73.168 59.404 73.072 58.956 73.072H56.876V75.648ZM65.1513 82V74.72C65.3006 74.624 65.5619 74.496 65.9353 74.336C66.3193 74.176 66.7619 74.0373 67.2633 73.92C67.7646 73.792 68.2713 73.728 68.7833 73.728C69.1673 73.728 69.4713 73.76 69.6953 73.824C69.9299 73.8773 70.1113 73.9467 70.2393 74.032V75.568C70.0259 75.536 69.7806 75.5093 69.5033 75.488C69.2366 75.4667 68.9593 75.4613 68.6713 75.472C68.3939 75.472 68.1219 75.4827 67.8553 75.504C67.5993 75.5253 67.3753 75.552 67.1833 75.584V82H65.1513ZM74.7686 82.24C74.3206 82.24 73.894 82.1973 73.4886 82.112C73.0833 82.0267 72.7206 81.888 72.4006 81.696C72.0806 81.4933 71.8246 81.2213 71.6326 80.88C71.4513 80.528 71.3606 80.0907 71.3606 79.568C71.3606 79.024 71.4726 78.5653 71.6966 78.192C71.9206 77.808 72.246 77.52 72.6726 77.328C73.11 77.1253 73.6433 77.024 74.2726 77.024C74.6566 77.024 75.014 77.0613 75.3446 77.136C75.6753 77.2 75.974 77.2907 76.2406 77.408C76.5073 77.5253 76.726 77.6533 76.8966 77.792L77.0406 78.928C76.8166 78.7787 76.5286 78.6613 76.1766 78.576C75.8353 78.48 75.462 78.432 75.0566 78.432C74.4913 78.432 74.07 78.5227 73.7926 78.704C73.5153 78.8853 73.3766 79.168 73.3766 79.552C73.3766 79.8187 73.4513 80.0427 73.6006 80.224C73.75 80.3947 73.942 80.528 74.1766 80.624C74.4113 80.7093 74.6566 80.752 74.9126 80.752C75.4993 80.752 75.9206 80.7147 76.1766 80.64C76.4433 80.5547 76.5766 80.3787 76.5766 80.112V76.928C76.5766 76.4053 76.4113 76.0267 76.0806 75.792C75.75 75.5467 75.286 75.424 74.6886 75.424C74.23 75.424 73.7606 75.504 73.2806 75.664C72.8006 75.8133 72.4113 76.0107 72.1126 76.256V74.416C72.4006 74.2347 72.8326 74.0747 73.4086 73.936C73.9846 73.7973 74.6033 73.728 75.2646 73.728C75.542 73.728 75.8353 73.7547 76.1446 73.808C76.454 73.8613 76.7473 73.9467 77.0246 74.064C77.3126 74.1813 77.574 74.3467 77.8086 74.56C78.0433 74.7627 78.23 75.024 78.3686 75.344C78.5073 75.6533 78.5766 76.032 78.5766 76.48V80.304C78.5766 80.8053 78.4166 81.2 78.0966 81.488C77.7766 81.7653 77.334 81.9573 76.7686 82.064C76.2033 82.1813 75.5366 82.24 74.7686 82.24ZM80.8231 74.608C81.0471 74.5013 81.3138 74.3947 81.6231 74.288C81.9325 74.1813 82.2685 74.0907 82.6311 74.016C82.9938 73.9307 83.3565 73.8667 83.7191 73.824C84.0925 73.7707 84.4445 73.744 84.7751 73.744C85.5218 73.744 86.1405 73.8453 86.6311 74.048C87.1325 74.24 87.5058 74.5493 87.7511 74.976C88.0071 75.392 88.1351 75.9413 88.1351 76.624V82H86.1191V76.976C86.1191 76.7733 86.0925 76.5813 86.0391 76.4C85.9858 76.208 85.8951 76.0427 85.7671 75.904C85.6391 75.7547 85.4631 75.6427 85.2391 75.568C85.0151 75.4827 84.7271 75.44 84.3751 75.44C84.1085 75.44 83.8365 75.4667 83.5591 75.52C83.2818 75.5733 83.0471 75.6427 82.8551 75.728V82H80.8231V74.608ZM94.034 82.176C93.5007 82.176 92.9887 82.1013 92.498 81.952C92.0073 81.8027 91.57 81.5627 91.186 81.232C90.802 80.9013 90.498 80.4747 90.274 79.952C90.05 79.4293 89.938 78.7947 89.938 78.048C89.938 77.2693 90.0447 76.608 90.258 76.064C90.4713 75.52 90.7647 75.0773 91.138 74.736C91.5113 74.384 91.9433 74.1333 92.434 73.984C92.9353 73.824 93.4633 73.744 94.018 73.744C94.4447 73.744 94.882 73.7867 95.33 73.872C95.778 73.9573 96.178 74.08 96.53 74.24V76C96.1673 75.84 95.8047 75.712 95.442 75.616C95.0793 75.5093 94.706 75.456 94.322 75.456C93.5753 75.456 92.994 75.6427 92.578 76.016C92.162 76.3893 91.954 77.0027 91.954 77.856C91.954 78.7307 92.1407 79.3813 92.514 79.808C92.898 80.2347 93.5273 80.448 94.402 80.448C94.7967 80.448 95.1807 80.3893 95.554 80.272C95.9273 80.144 96.258 80.0053 96.546 79.856V81.632C96.1727 81.8133 95.7833 81.9467 95.378 82.032C94.9727 82.128 94.5247 82.176 94.034 82.176ZM98.3544 82V70.64H100.386V75.328L99.6344 74.848C100.061 74.5173 100.546 74.2507 101.09 74.048C101.634 73.8453 102.178 73.744 102.722 73.744C103.33 73.744 103.858 73.8453 104.306 74.048C104.754 74.2507 105.101 74.5813 105.346 75.04C105.602 75.488 105.73 76.096 105.73 76.864V82H103.698V77.216C103.698 76.6187 103.554 76.176 103.266 75.888C102.989 75.5893 102.568 75.44 102.002 75.44C101.714 75.44 101.426 75.4827 101.138 75.568C100.85 75.6533 100.6 75.76 100.386 75.888L100.37 82H98.3544ZM112.528 82V71.328H114.704V82H112.528ZM120.114 82.256C119.282 82.256 118.648 82.0533 118.21 81.648C117.773 81.232 117.554 80.6347 117.554 79.856V75.536H116.306V73.936H117.554V71.712H119.65V73.936H121.522V75.536H119.65V79.536C119.65 79.8667 119.714 80.112 119.842 80.272C119.97 80.432 120.194 80.512 120.514 80.512C120.685 80.512 120.861 80.4853 121.042 80.432C121.234 80.368 121.394 80.2933 121.522 80.208V81.968C121.309 82.0747 121.074 82.1493 120.818 82.192C120.573 82.2347 120.338 82.256 120.114 82.256Z" fill="#231F20"/> -->
<rect x="0.5" y="0.5" width="175" height="101" rx="19.5" stroke="#935A8A"/>
</svg>
