<svg width="15" height="16" viewBox="0 0 15 16" fill="none" xmlns="http://www.w3.org/2000/svg">
<path d="M9.49543 7.55318L7.23002 4.46809C7.10717 4.30182 6.92073 4.189 6.71149 4.15432C6.50224 4.11963 6.28721 4.16589 6.11339 4.28299C6.0265 4.34144 5.95254 4.41583 5.89577 4.50188C5.83899 4.58792 5.80053 4.68391 5.78261 4.7843C5.76468 4.88469 5.76765 4.9875 5.79133 5.08679C5.81501 5.18607 5.85894 5.27987 5.92059 5.36277L7.30232 7.22924H7.23002H0.803336C0.590278 7.22924 0.385946 7.3105 0.235292 7.45514C0.0846371 7.59979 0 7.79596 0 8.00052C0 8.20507 0.0846371 8.40125 0.235292 8.54589C0.385946 8.69053 0.590278 8.77179 0.803336 8.77179H7.23002L5.78402 10.6228C5.72072 10.7039 5.67467 10.7961 5.64848 10.8942C5.6223 10.9923 5.61651 11.0944 5.63142 11.1947C5.64634 11.2949 5.68169 11.3914 5.73544 11.4786C5.78919 11.5657 5.86029 11.6418 5.94468 11.7026C6.08374 11.8027 6.25287 11.8569 6.42669 11.8569C6.5514 11.8569 6.6744 11.829 6.78595 11.7754C6.8975 11.7219 6.99453 11.6442 7.06936 11.5484L9.47936 8.46328C9.58225 8.33283 9.63926 8.17435 9.64214 8.01075C9.64503 7.84714 9.59365 7.6869 9.49543 7.55318Z" fill="#5E5E5E"/>
<path d="M5.25 1.25049H13.4995V14.7497H5.25" stroke="#5E5E5E" stroke-width="1.5" stroke-linecap="round"/>
</svg>
