<svg width="42" height="42" viewBox="0 0 42 42" fill="none" xmlns="http://www.w3.org/2000/svg">
<path d="M20.7184 18.9909C22.0842 18.9909 23.4194 18.5859 24.555 17.8271C25.6907 17.0682 26.5759 15.9897 27.0985 14.7278C27.6212 13.4659 27.758 12.0774 27.4915 10.7378C27.2251 9.39819 26.5673 8.16768 25.6015 7.20188C24.6357 6.23608 23.4052 5.57836 22.0656 5.3119C20.726 5.04543 19.3375 5.18219 18.0756 5.70488C16.8137 6.22757 15.7352 7.11271 14.9763 8.24837C14.2175 9.38403 13.8125 10.7192 13.8125 12.0851C13.8125 13.9166 14.5401 15.6731 15.8352 16.9682C17.1303 18.2633 18.8868 18.9909 20.7184 18.9909Z" fill="white"/>
<path d="M31.0769 36.2556C31.5347 36.2556 31.9739 36.0737 32.2977 35.7499C32.6214 35.4261 32.8033 34.987 32.8033 34.5291C32.8033 31.3239 31.5301 28.25 29.2636 25.9835C26.9972 23.7171 23.9233 22.4438 20.7181 22.4438C17.5129 22.4438 14.4389 23.7171 12.1725 25.9835C9.90608 28.25 8.63281 31.3239 8.63281 34.5291C8.63281 34.987 8.81471 35.4261 9.13848 35.7499C9.46226 36.0737 9.90139 36.2556 10.3593 36.2556H31.0769Z" fill="white"/>
</svg>
