<svg width="12" height="16" viewBox="0 0 12 16" fill="none" xmlns="http://www.w3.org/2000/svg">
<path d="M11.2502 13.9957H0.753116C0.554258 13.9957 0.363546 14.0749 0.222932 14.216C0.0823191 14.357 0.0033232 14.5483 0.0033232 14.7478C0.0033232 14.9473 0.0823191 15.1386 0.222932 15.2797C0.363546 15.4208 0.554258 15.5 0.753116 15.5H11.2502C11.4491 15.5 11.6398 15.4208 11.7804 15.2797C11.921 15.1386 12 14.9473 12 14.7478C12 14.5483 11.921 14.357 11.7804 14.216C11.6398 14.0749 11.4491 13.9957 11.2502 13.9957Z" fill="currentColor"/>
<path d="M0.752944 12.4913H0.820425L3.94706 12.2054C4.28956 12.1712 4.6099 12.0198 4.85431 11.7767L11.6024 5.00718C11.8644 4.72961 12.0059 4.35919 11.9961 3.97711C11.9862 3.59503 11.8258 3.23244 11.55 2.9688L9.49552 0.907857C9.22739 0.6552 8.87603 0.510229 8.50829 0.500521C8.14055 0.490813 7.78208 0.617045 7.50108 0.855205L0.752944 7.62473C0.510585 7.86991 0.359681 8.19127 0.325562 8.53486L0.00315134 11.6714C-0.00694914 11.7816 0.00730094 11.8926 0.0448857 11.9966C0.0824704 12.1006 0.142464 12.1951 0.220591 12.2731C0.290652 12.3429 0.373741 12.398 0.465094 12.4354C0.556446 12.4729 0.654266 12.4918 0.752944 12.4913ZM8.45331 1.96089L10.5002 4.01432L9.00066 5.48105L6.99122 3.46523L8.45331 1.96089ZM1.78016 8.66273L6.00149 4.4581L8.02593 6.48896L3.82709 10.7011L1.57772 10.9117L1.78016 8.66273Z" fill="currentColor"/>
</svg>
