<svg width="21" height="18" viewBox="0 0 21 18" fill="none" xmlns="http://www.w3.org/2000/svg">
<path d="M10.5 18C10.3618 18.0008 10.2249 17.9741 10.097 17.9214C9.96904 17.8687 9.8527 17.791 9.7546 17.6929L1.59719 9.45505C0.573956 8.41227 0 7.00441 0 5.5373C0 4.07018 0.573956 2.66233 1.59719 1.61954C2.62843 0.58241 4.02534 0 5.48167 0C6.938 0 8.33492 0.58241 9.36615 1.61954L10.5 2.7631L11.6338 1.61954C12.6651 0.58241 14.062 0 15.5183 0C16.9747 0 18.3716 0.58241 19.4028 1.61954C20.426 2.66233 21 4.07018 21 5.5373C21 7.00441 20.426 8.41227 19.4028 9.45505L11.2454 17.6929C11.1473 17.791 11.031 17.8687 10.903 17.9214C10.7751 17.9741 10.6382 18.0008 10.5 18Z" fill="currentColor"/>
</svg>
