<svg width="57" height="40" viewBox="0 0 57 40" fill="none" xmlns="http://www.w3.org/2000/svg">
<path d="M21.9647 35H19.1297C18.4613 35 17.8204 34.7345 17.3478 34.2619C16.8752 33.7893 16.6097 33.1483 16.6097 32.48V30.845C16.6016 30.7487 16.5662 30.6566 16.5078 30.5796C16.4494 30.5026 16.3703 30.4438 16.2797 30.41C16.1879 30.3512 16.0812 30.3199 15.9722 30.3199C15.8632 30.3199 15.7565 30.3512 15.6647 30.41L14.5547 31.61C14.3219 31.8445 14.0449 32.0306 13.7399 32.1575C13.4348 32.2845 13.1076 32.3499 12.7772 32.3499C12.4467 32.3499 12.1196 32.2845 11.8145 32.1575C11.5094 32.0306 11.2325 31.8445 10.9997 31.61L8.94469 29.6C8.70682 29.3676 8.5179 29.09 8.38909 28.7834C8.26027 28.4768 8.19417 28.1475 8.19469 27.815C8.19565 27.1348 8.4652 26.4825 8.94469 26L10.0547 24.89C10.1083 24.8074 10.1368 24.711 10.1368 24.6125C10.1368 24.514 10.1083 24.4176 10.0547 24.335C9.96469 24.11 9.81469 23.945 9.60469 23.945H8.07469C7.40497 23.941 6.76403 23.6722 6.29186 23.1972C5.8197 22.7223 5.55468 22.0797 5.55469 21.41V18.575C5.55469 17.9067 5.82019 17.2657 6.29278 16.7931C6.76537 16.3205 7.40634 16.055 8.07469 16.055H9.70969C9.80602 16.0469 9.89805 16.0115 9.97507 15.9531C10.0521 15.8947 10.1109 15.8156 10.1447 15.725C10.2035 15.6332 10.2347 15.5265 10.2347 15.4175C10.2347 15.3085 10.2035 15.2018 10.1447 15.11L8.94469 14C8.71021 13.7672 8.52412 13.4902 8.39714 13.1852C8.27015 12.8801 8.20477 12.5529 8.20477 12.2225C8.20477 11.8921 8.27015 11.5649 8.39714 11.2598C8.52412 10.9548 8.71021 10.6778 8.94469 10.445L10.9547 8.39C11.1848 8.15326 11.4599 7.96494 11.7639 7.83613C12.0679 7.70733 12.3945 7.64064 12.7247 7.64C13.0641 7.63851 13.4004 7.70399 13.7144 7.83269C14.0284 7.96139 14.314 8.15077 14.5547 8.39L15.6647 9.5C15.7473 9.55359 15.8437 9.58211 15.9422 9.58211C16.0407 9.58211 16.1371 9.55359 16.2197 9.5C16.4447 9.41 16.6097 9.26 16.6097 9.05V7.52C16.6136 6.85028 16.8825 6.20934 17.3575 5.73717C17.8324 5.26501 18.475 4.99999 19.1447 5H22.0547C22.723 5 23.364 5.2655 23.8366 5.73809C24.3092 6.21068 24.5747 6.85165 24.5747 7.52V9.155C24.5828 9.25133 24.6181 9.34336 24.6766 9.42038C24.735 9.4974 24.8141 9.55622 24.9047 9.59C24.9965 9.6488 25.1032 9.68006 25.2122 9.68006C25.3212 9.68006 25.4279 9.6488 25.5197 9.59L26.5547 8.39C26.7875 8.15553 27.0644 7.96944 27.3695 7.84245C27.6746 7.71546 28.0017 7.65008 28.3322 7.65008C28.6626 7.65008 28.9898 7.71546 29.2949 7.84245C29.5999 7.96944 29.8769 8.15553 30.1097 8.39L32.1647 10.4C32.4019 10.6329 32.5903 10.9107 32.7191 11.2171C32.8479 11.5236 32.9144 11.8526 32.9147 12.185C32.9219 12.5229 32.859 12.8587 32.7299 13.1711C32.6008 13.4835 32.4084 13.7657 32.1647 14L31.0547 15.11C31.0011 15.1926 30.9726 15.289 30.9726 15.3875C30.9726 15.486 31.0011 15.5824 31.0547 15.665C31.1447 15.89 31.2947 16.055 31.5047 16.055H33.1397C33.791 16.0859 34.4054 16.3665 34.8551 16.8386C35.3049 17.3107 35.5554 17.938 35.5547 18.59V21.5C35.5547 22.1683 35.2892 22.8093 34.8166 23.2819C34.344 23.7545 33.703 24.02 33.0347 24.02H31.3997C31.3034 24.0281 31.2113 24.0635 31.1343 24.1219C31.0573 24.1803 30.9985 24.2594 30.9647 24.35C30.9111 24.4326 30.8826 24.529 30.8826 24.6275C30.8826 24.726 30.9111 24.8224 30.9647 24.905L32.1197 26.06C32.3542 26.2928 32.5402 26.5698 32.6672 26.8748C32.7942 27.1799 32.8596 27.5071 32.8596 27.8375C32.8596 28.1679 32.7942 28.4951 32.6672 28.8002C32.5402 29.1052 32.3542 29.3822 32.1197 29.615L30.1547 31.61C29.9246 31.8467 29.6495 32.0351 29.3455 32.1639C29.0415 32.2927 28.7148 32.3594 28.3847 32.36C27.7149 32.3512 27.0748 32.0822 26.5997 31.61L25.4447 30.5C25.3621 30.4464 25.2657 30.4179 25.1672 30.4179C25.0687 30.4179 24.9723 30.4464 24.8897 30.5C24.6647 30.59 24.4997 30.74 24.4997 30.95V32.585C24.4688 33.2363 24.1882 33.8507 23.7161 34.3004C23.244 34.7502 22.6167 35.0007 21.9647 35ZM19.6097 32H21.4997V30.845C21.5061 30.1533 21.7176 29.479 22.1074 28.9076C22.4973 28.3362 23.048 27.8933 23.6897 27.635C24.334 27.3533 25.0477 27.27 25.7396 27.3955C26.4315 27.5211 27.0704 27.8499 27.5747 28.34L28.3847 29.15L29.7047 27.83L28.8947 27.005C28.4077 26.5083 28.0792 25.8781 27.951 25.1944C27.8228 24.5107 27.9007 23.8044 28.1747 23.165C28.4353 22.5261 28.8792 21.9786 29.4504 21.5915C30.0217 21.2045 30.6947 20.9952 31.3847 20.99H32.5547V19.055H31.3997C30.708 19.0486 30.0337 18.8371 29.4623 18.4472C28.8908 18.0574 28.4479 17.5067 28.1897 16.865C27.908 16.2206 27.8247 15.507 27.9502 14.8151C28.0758 14.1232 28.4046 13.4843 28.8947 12.98L29.7047 12.17L28.3847 10.85L27.5597 11.66C27.0553 12.1207 26.4297 12.4278 25.7567 12.5449C25.0836 12.6621 24.3911 12.5845 23.7607 12.3213C23.1303 12.0581 22.5882 11.6202 22.1982 11.0593C21.8083 10.4983 21.5867 9.83763 21.5597 9.155V8H19.6097V9.155C19.6033 9.84672 19.3918 10.521 19.0019 11.0924C18.6121 11.6638 18.0614 12.1067 17.4197 12.365C16.7753 12.6467 16.0617 12.73 15.3698 12.6045C14.6778 12.4789 14.039 12.1501 13.5347 11.66L12.7247 10.85L11.4047 12.17L12.2147 12.995C12.6754 13.4994 12.9825 14.125 13.0996 14.798C13.2168 15.4711 13.1392 16.1636 12.876 16.794C12.6128 17.4244 12.1749 17.9665 11.614 18.3565C11.053 18.7464 10.3923 18.9679 9.70969 18.995H8.55469V20.885H9.70969C10.4014 20.8914 11.0757 21.1029 11.6471 21.4928C12.2185 21.8826 12.6614 22.4333 12.9197 23.075C13.2013 23.7194 13.2847 24.433 13.1591 25.1249C13.0336 25.8168 12.7048 26.4557 12.2147 26.96L11.4047 27.77L12.7247 29.09L13.5497 28.28C14.0541 27.8193 14.6797 27.5122 15.3527 27.3951C16.0258 27.2779 16.7183 27.3555 17.3487 27.6187C17.9791 27.8819 18.5212 28.3198 18.9112 28.8807C19.3011 29.4417 19.5226 30.1024 19.5497 30.785L19.6097 32Z" fill="#888888" fill-opacity="0.9"/>
<path d="M20.5547 25.25C19.5163 25.25 18.5013 24.9421 17.6379 24.3652C16.7746 23.7883 16.1017 22.9684 15.7043 22.0091C15.307 21.0498 15.203 19.9942 15.4056 18.9758C15.6081 17.9574 16.1082 17.0219 16.8424 16.2877C17.5766 15.5535 18.5121 15.0535 19.5305 14.8509C20.5489 14.6483 21.6045 14.7523 22.5638 15.1496C23.5231 15.547 24.343 16.2199 24.9199 17.0833C25.4968 17.9466 25.8047 18.9617 25.8047 20C25.8047 21.3924 25.2516 22.7277 24.267 23.7123C23.2824 24.6969 21.9471 25.25 20.5547 25.25ZM20.5547 17.75C20.1097 17.75 19.6747 17.882 19.3047 18.1292C18.9346 18.3764 18.6463 18.7278 18.476 19.139C18.3057 19.5501 18.2611 20.0025 18.3479 20.439C18.4347 20.8754 18.649 21.2763 18.9637 21.591C19.2784 21.9057 19.6793 22.12 20.1157 22.2068C20.5522 22.2936 21.0046 22.249 21.4157 22.0787C21.8269 21.9084 22.1783 21.62 22.4255 21.25C22.6727 20.88 22.8047 20.445 22.8047 20C22.8047 19.4033 22.5676 18.831 22.1457 18.409C21.7237 17.9871 21.1514 17.75 20.5547 17.75Z" fill="#888888" fill-opacity="0.9"/>
<path d="M49.7778 26.5L43.5232 16.75H56.0324L49.7778 26.5Z" fill="#888888" fill-opacity="0.9"/>
</svg>
