<svg width="31" height="103" viewBox="0 0 31 103" fill="none" xmlns="http://www.w3.org/2000/svg">
<g id="expand icon" filter="url(#filter0_d_3208_17719)">
<g id="Rectangle 68">
<path d="M2.5 12C2.5 6.7533 6.7533 2.5 12 2.5H24.5V96.5H12C6.75329 96.5 2.5 92.2467 2.5 87V12Z" fill="white"/>
<path d="M2.5 12C2.5 6.7533 6.7533 2.5 12 2.5H24.5V96.5H12C6.75329 96.5 2.5 92.2467 2.5 87V12Z" fill="#DDDDDD" fill-opacity="0.6"/>
<path d="M2.5 12C2.5 6.7533 6.7533 2.5 12 2.5H24.5V96.5H12C6.75329 96.5 2.5 92.2467 2.5 87V12Z" stroke="white"/>
<path d="M2.5 12C2.5 6.7533 6.7533 2.5 12 2.5H24.5V96.5H12C6.75329 96.5 2.5 92.2467 2.5 87V12Z" stroke="#DDDDDD" stroke-opacity="0.6"/>
</g>
<path id="Polygon 3" d="M21 49.7284L9.75 59.8855L9.75 39.5713L21 49.7284Z" fill="#8C8C8C"/>
</g>
<defs>
<filter id="filter0_d_3208_17719" x="0" y="0" width="31" height="103" filterUnits="userSpaceOnUse" color-interpolation-filters="sRGB">
<feFlood flood-opacity="0" result="BackgroundImageFix"/>
<feColorMatrix in="SourceAlpha" type="matrix" values="0 0 0 0 0 0 0 0 0 0 0 0 0 0 0 0 0 0 127 0" result="hardAlpha"/>
<feOffset dx="2" dy="2"/>
<feGaussianBlur stdDeviation="2"/>
<feComposite in2="hardAlpha" operator="out"/>
<feColorMatrix type="matrix" values="0 0 0 0 0.4625 0 0 0 0 0.4625 0 0 0 0 0.4625 0 0 0 0.8 0"/>
<feBlend mode="normal" in2="BackgroundImageFix" result="effect1_dropShadow_3208_17719"/>
<feBlend mode="normal" in="SourceGraphic" in2="effect1_dropShadow_3208_17719" result="shape"/>
</filter>
</defs>
</svg>
