<svg width="32" height="36" viewBox="0 0 32 36" fill="none" xmlns="http://www.w3.org/2000/svg">
<path d="M12.0982 32.6228C11.0672 31.6951 10.454 30.4116 10.3816 29.0519V28.4943V26.9943H8.88161H2.90701C2.62382 26.9921 2.34951 26.908 2.11822 26.7554C1.88627 26.6023 1.70918 26.388 1.60522 26.1421C1.50138 25.8965 1.47388 25.6277 1.52503 25.3684C1.57601 25.1099 1.70365 24.8684 1.89599 24.6752C1.89677 24.6745 1.89755 24.6737 1.89833 24.6729L5.09576 21.5114L5.5411 21.0711V20.4448V12.2743C5.54399 10.8148 5.86326 9.37189 6.47852 8.04153C7.09398 6.71072 7.99193 5.52228 9.114 4.5565C10.2361 3.59065 11.5565 2.8699 12.9874 2.44382C14.4134 2.01921 15.9154 1.89734 17.3935 2.08655C19.9496 2.47551 22.2718 3.75816 23.9355 5.69205C25.602 7.6292 26.4962 10.0895 26.4591 12.6182L26.4589 12.6292V12.6402V20.4448V21.0711L26.9042 21.5114L30.1017 24.6729C30.1025 24.6737 30.1032 24.6745 30.104 24.6752C30.2964 24.8684 30.424 25.1099 30.475 25.3684C30.5261 25.6277 30.4986 25.8965 30.3948 26.1421C30.2908 26.388 30.1137 26.6023 29.8818 26.7554C29.6505 26.908 29.3762 26.9921 29.093 26.9943H23.1184H21.6184V28.4943V29.0519C21.546 30.4116 20.9328 31.6951 19.9018 32.6228C18.8616 33.5587 17.4813 34.0548 16.063 33.9952L16 33.9925L15.937 33.9952C14.5187 34.0548 13.1384 33.5587 12.0982 32.6228ZM21.049 29.2639L21.0592 29.1769V29.0892V28.4943V26.9943H19.5592H12.4408H10.9408V28.4943V29.0892V29.1769L10.951 29.2639C11.0956 30.4968 11.7177 31.6212 12.6792 32.406C13.6131 33.1681 14.7982 33.5544 16 33.4966C17.2018 33.5544 18.3869 33.1681 19.3208 32.406C20.2823 31.6212 20.9044 30.4968 21.049 29.2639Z" stroke="currentColor" stroke-width="3"/>
</svg>
