<svg width="21" height="18" viewBox="0 0 21 18" fill="none" xmlns="http://www.w3.org/2000/svg">
<path d="M10.5058 17L10.5058 16.9999L10.4942 17C10.4888 17 10.4833 16.999 10.4779 16.9968L10.097 17.9214L10.4778 16.9968C10.4726 16.9946 10.4674 16.9913 10.4625 16.9866C10.4623 16.9864 10.4621 16.9862 10.4618 16.9859L2.31096 8.75466C2.31044 8.75414 2.30993 8.75362 2.30942 8.7531C1.47147 7.89831 1 6.74297 1 5.5373C1 4.33199 1.47118 3.17699 2.30865 2.32228C3.15286 1.47448 4.29392 1 5.48167 1C6.6703 1 7.81217 1.47519 8.65657 2.32417C8.65673 2.32432 8.65688 2.32448 8.65703 2.32463L9.78988 3.46719L10.5 4.18339L11.2101 3.46719L12.343 2.32463C12.3431 2.32448 12.3433 2.32432 12.3434 2.32417C13.1878 1.47519 14.3297 1 15.5183 1C16.7061 1 17.8471 1.47447 18.6913 2.32224C19.5288 3.17695 20 4.33197 20 5.5373C20 6.74305 19.5285 7.89847 18.6904 8.75327C18.69 8.75373 18.6895 8.7542 18.689 8.75466L10.5382 16.9859C10.5379 16.9862 10.5377 16.9864 10.5375 16.9866C10.5326 16.9913 10.5274 16.9946 10.5222 16.9968L10.5221 16.9968C10.5167 16.999 10.5112 17 10.5058 17Z" stroke="currentColor" stroke-width="2"/>
</svg>
