<svg width="16" height="15" viewBox="0 0 16 15" fill="none" xmlns="http://www.w3.org/2000/svg">
<path d="M9.49977 9.25711C7.75416 9.244 6.17048 7.60559 6.79447 5.72377C7.14596 4.66396 7.6653 3.67343 8.18661 2.68664C8.53021 2.03877 8.89354 1.404 9.25491 0.765493C9.44645 0.426577 9.60837 0.40598 9.80189 0.739278C10.3015 1.59874 10.803 2.4582 11.2414 3.34574C11.6383 4.14716 12.0076 4.9673 12.2939 5.80803C12.7441 7.13186 12.0352 8.49501 10.6707 9.02492C10.3054 9.16723 9.95811 9.16348 9.57108 9.25711H9.49977ZM9.57875 1.20739C9.55111 1.20739 9.52544 1.20739 9.49779 1.20739C9.2865 1.59125 9.07126 1.97323 8.86195 2.35896C8.26955 3.44499 7.66925 4.52727 7.30196 5.70505C7.19731 6.04209 7.0966 6.41096 7.13017 6.75362C7.29012 8.37518 9.03375 9.29455 10.5898 8.59987C11.6087 8.14486 12.1557 7.04947 11.9089 6.19938C11.7608 5.69194 11.6107 5.17701 11.3816 4.69953C10.882 3.66032 10.3291 2.6417 9.79794 1.61559C9.72685 1.4789 9.65181 1.34221 9.57875 1.20739Z" fill="#5E5E5E"/>
<path d="M9 14.4885C6.86934 14.3987 5.55439 13.9626 4.02994 13.0863C3.75744 12.929 3.46321 12.8054 3.16701 12.6893C2.86094 12.5676 2.545 12.5714 2.233 12.6987C1.99209 12.7979 1.74328 12.8803 1.49645 12.9646C1.42733 12.9889 1.34637 13.0264 1.28516 13.0114C1.18643 12.9852 1.06202 12.9384 1.02253 12.8653C0.994883 12.8129 1.06992 12.6519 1.13903 12.6257C1.98419 12.2924 2.82342 11.931 3.74757 12.4309C4.34589 12.7549 4.95211 13.0713 5.584 13.3278C6.75103 13.8016 7.9852 14.0094 9.25293 14.0506C9.78807 14.0675 10.0898 13.9267 10.5898 13.7323C12.5 12.9898 13.1037 12.1388 14.1612 10.7045C14.3014 10.5622 14.4779 9.9986 14.5213 9.80199C14.545 9.69526 14.466 9.51925 14.3732 9.45184C14.2765 9.38443 14.0889 9.36945 13.9704 9.40878C13.8164 9.4612 13.6821 9.58291 13.5538 9.68964C13.0719 10.0904 12.596 10.4985 12.1182 10.903C12.0115 10.9929 11.895 11.0921 11.7627 10.9461C11.6423 10.815 11.7074 10.7008 11.8239 10.6034C12.3946 10.1203 12.9515 9.62411 13.538 9.15974C13.9902 8.80397 14.5628 8.86576 14.8551 9.28707C14.9558 9.43124 15.0071 9.63534 14.9992 9.80948C14.9834 10.1334 14.859 10.4386 14.6043 10.6689C13.5538 11.9347 13 12.6987 11.6423 13.7323C10.6707 14.3207 9.48774 14.5407 9 14.4939V14.4885Z" fill="#5E5E5E"/>
<path d="M10.3035 12.4834C10.7734 12.4178 11.2533 12.3504 11.6423 12.0583C11.9878 11.798 12.0155 11.3599 11.6699 11.0996C11.4606 10.9423 11.1861 10.8131 10.9255 10.7775C10.4476 10.712 9.95591 10.7457 9.47409 10.7045C9.11865 10.6746 8.73557 10.6577 8.4216 10.5173C7.80748 10.242 7.23483 9.88625 6.6444 9.56419C6.34623 9.40128 6.06187 9.20093 5.74593 9.08297C4.78822 8.72533 3.8147 8.70286 2.82737 9.0062C2.30606 9.16723 1.765 9.27021 1.23184 9.40128C1.09559 9.43499 0.953415 9.50801 1.01463 9.65219C1.05017 9.73458 1.20617 9.77765 1.31478 9.81884C1.3602 9.83757 1.42733 9.80948 1.48263 9.7945C2.02171 9.65781 2.56672 9.53985 3.0979 9.37694C3.99045 9.10356 4.86128 9.17284 5.68471 9.55483C6.21985 9.80386 6.70167 10.154 7.21508 10.4499C7.91608 10.8543 8.63881 11.1951 9.50174 11.1352C9.80386 11.1146 10.1119 11.1165 10.414 11.1464C10.6905 11.1745 10.965 11.2344 11.2276 11.3149C11.3204 11.343 11.4231 11.4741 11.4349 11.5677C11.4448 11.6389 11.3362 11.7625 11.2493 11.7999C11.0341 11.8954 10.809 11.9778 10.5779 12.0246C9.72093 12.1987 7.9773 12.2062 7.9773 12.2062C7.70282 12.1913 7.41649 12.092 7.17164 11.9666C6.81225 11.7831 6.48248 11.5453 6.14284 11.3243C6.02238 11.2457 5.90982 11.2569 5.85453 11.3711C5.82096 11.4404 5.83084 11.5715 5.8802 11.6239C5.99473 11.7437 6.15073 11.8261 6.27909 11.9347C6.9485 12.4983 7.21508 12.504 8.08364 12.6575C8.9522 12.8109 10.3035 12.5419 10.4706 12.4314M9.49977 9.25711C7.75416 9.244 6.17048 7.60559 6.79447 5.72377C7.14596 4.66396 7.6653 3.67343 8.18661 2.68664C8.53021 2.03877 8.89354 1.404 9.25491 0.765493C9.44645 0.426577 9.60837 0.40598 9.80189 0.739278C10.3015 1.59874 10.803 2.4582 11.2414 3.34574C11.6383 4.14716 12.0076 4.9673 12.2939 5.80803C12.7441 7.13186 12.0352 8.49501 10.6707 9.02492C10.3054 9.16723 9.95811 9.16348 9.57108 9.25711H9.49977ZM9.57875 1.20739C9.55111 1.20739 9.52544 1.20739 9.49779 1.20739C9.2865 1.59125 9.07126 1.97323 8.86195 2.35896C8.26955 3.44499 7.66925 4.52727 7.30196 5.70505C7.19731 6.04209 7.0966 6.41096 7.13017 6.75362C7.29012 8.37518 9.03375 9.29455 10.5898 8.59987C11.6087 8.14486 12.1557 7.04947 11.9089 6.19938C11.7608 5.69194 11.6107 5.17701 11.3816 4.69953C10.882 3.66032 10.3291 2.6417 9.79794 1.61559C9.72685 1.4789 9.65181 1.34221 9.57875 1.20739ZM9 14.4885C6.86934 14.3987 5.55439 13.9626 4.02994 13.0863C3.75744 12.929 3.46321 12.8054 3.16701 12.6893C2.86094 12.5676 2.545 12.5714 2.233 12.6987C1.99209 12.7979 1.74328 12.8803 1.49645 12.9646C1.42733 12.9889 1.34637 13.0264 1.28516 13.0114C1.18643 12.9852 1.06202 12.9384 1.02253 12.8653C0.994883 12.8129 1.06992 12.6519 1.13903 12.6257C1.98419 12.2924 2.82342 11.931 3.74757 12.4309C4.34589 12.7549 4.95211 13.0713 5.584 13.3278C6.75103 13.8016 7.9852 14.0094 9.25293 14.0506C9.78807 14.0675 10.0898 13.9266 10.5898 13.7323C12.5 12.9898 13.1037 12.1388 14.1612 10.7045C14.3014 10.5622 14.4779 9.9986 14.5213 9.80199C14.545 9.69526 14.466 9.51925 14.3732 9.45184C14.2765 9.38443 14.0889 9.36945 13.9704 9.40878C13.8164 9.4612 13.6821 9.58291 13.5538 9.68964C13.0719 10.0904 12.596 10.4985 12.1182 10.903C12.0115 10.9929 11.895 11.0921 11.7627 10.9461C11.6423 10.815 11.7074 10.7008 11.8239 10.6034C12.3946 10.1203 12.9515 9.62411 13.538 9.15974C13.9902 8.80397 14.5628 8.86576 14.8551 9.28707C14.9558 9.43124 15.0071 9.63534 14.9992 9.80948C14.9834 10.1334 14.859 10.4386 14.6043 10.6689C13.5538 11.9347 13 12.6987 11.6423 13.7323C10.6707 14.3207 9.48774 14.5407 9 14.4939V14.4885Z" stroke="#5E5E5E" stroke-width="0.7"/>
</svg>
