<svg width="19" height="19" viewBox="0 0 19 19" fill="none" xmlns="http://www.w3.org/2000/svg">
<path d="M16.4796 14.9675L13.8745 12.425C14.715 11.3768 15.1711 10.0825 15.1694 8.75C15.1694 7.56332 14.8099 6.40328 14.1364 5.41658C13.4628 4.42989 12.5055 3.66085 11.3855 3.20673C10.2654 2.7526 9.03298 2.63378 7.84395 2.86529C6.65492 3.0968 5.56273 3.66825 4.70548 4.50736C3.84824 5.34648 3.26445 6.41558 3.02794 7.57946C2.79143 8.74335 2.91281 9.94975 3.37675 11.0461C3.84069 12.1425 4.62634 13.0795 5.63435 13.7388C6.64236 14.3981 7.82746 14.75 9.03978 14.75C10.4011 14.7517 11.7234 14.3052 12.7942 13.4825L15.3916 16.0325C15.4628 16.1028 15.5476 16.1586 15.6409 16.1967C15.7343 16.2347 15.8345 16.2544 15.9356 16.2544C16.0368 16.2544 16.1369 16.2347 16.2303 16.1967C16.3236 16.1586 16.4084 16.1028 16.4796 16.0325C16.5514 15.9628 16.6084 15.8798 16.6473 15.7884C16.6862 15.697 16.7063 15.599 16.7063 15.5C16.7063 15.401 16.6862 15.303 16.6473 15.2116C16.6084 15.1202 16.5514 15.0372 16.4796 14.9675ZM4.44257 8.75C4.44257 7.85999 4.71219 6.98996 5.21734 6.24994C5.72249 5.50992 6.44047 4.93314 7.2805 4.59254C8.12054 4.25195 9.04488 4.16284 9.93666 4.33647C10.8284 4.5101 11.6476 4.93869 12.2905 5.56802C12.9334 6.19736 13.3713 6.99918 13.5487 7.8721C13.7261 8.74501 13.635 9.64981 13.2871 10.4721C12.9391 11.2943 12.3499 11.9972 11.5939 12.4916C10.8379 12.9861 9.94903 13.25 9.03978 13.25C7.82053 13.25 6.65121 12.7759 5.78906 11.932C4.92691 11.0881 4.44257 9.94348 4.44257 8.75Z" fill="currentColor"/>
</svg>
