<svg width="18" height="19" viewBox="0 0 18 19" fill="none" xmlns="http://www.w3.org/2000/svg">
<g id="Group">
<path id="Vector" d="M13.7445 11.5554C12.8343 12.4663 11.6282 12.9672 10.3311 12.9672C9.03396 12.9672 7.82787 12.4663 6.91761 11.5554C6.39422 11.0317 6.03011 10.4397 5.77979 9.75655C5.64325 9.34667 5.84806 8.89126 6.25768 8.73186C6.66729 8.59524 7.12242 8.80017 7.28172 9.21005C7.44101 9.66546 7.69133 10.0753 8.03268 10.4169C8.6471 11.0317 9.44358 11.3505 10.3083 11.3505C11.1731 11.3505 11.9695 11.0089 12.584 10.4169L15.474 7.59333C16.0885 6.97852 16.407 6.18154 16.407 5.31625C16.407 4.45097 16.0657 3.65399 15.474 3.03918C14.2224 1.78679 12.1744 1.78679 10.9227 3.03918L8.26024 5.70336C7.94165 6.02215 7.44101 6.02215 7.14518 5.70336C6.82659 5.38457 6.82659 4.88361 7.14518 4.56482L9.78493 1.90064C11.651 0.0334441 14.7231 0.0334441 16.5891 1.90064C17.4994 2.81147 18 4.01832 18 5.31625C18 6.61418 17.4994 7.82103 16.5891 8.73186L13.7445 11.5554Z" fill="#5E5E5E"/>
<path id="Vector_2" d="M7.12283 15.9496L9.78534 13.2854C10.1039 12.9666 10.6046 12.9666 10.9004 13.2854C11.219 13.6042 11.219 14.1052 10.9004 14.4239L8.2379 17.0881C7.30488 18.0217 6.07603 18.4999 4.82443 18.4999C3.57283 18.4999 2.36673 18.0217 1.41096 17.0881C0.500706 16.1773 6.48499e-05 14.9704 6.48499e-05 13.6725C6.48499e-05 12.3746 0.500706 11.1677 1.41096 10.2569L4.27828 7.41056C5.18853 6.49974 6.39462 5.99878 7.69174 5.99878C8.98886 5.99878 10.195 6.49974 11.1052 7.41056C11.6286 7.93429 11.9927 8.52633 12.243 9.20945C12.3796 9.61932 12.1748 10.0747 11.7651 10.2341C11.3555 10.3708 10.9004 10.1658 10.7411 9.75595C10.5818 9.30053 10.3315 8.89066 9.99014 8.5491C9.37572 7.93429 8.57924 7.6155 7.7145 7.6155C6.84975 7.6155 6.05328 7.95706 5.43885 8.5491L2.5943 11.3954C1.97988 12.0103 1.66128 12.8072 1.66128 13.6725C1.66128 14.5378 2.00263 15.3348 2.5943 15.9496C3.82315 17.202 5.87123 17.202 7.12283 15.9496Z" fill="#5E5E5E"/>
</g>
</svg>
