<svg width="32" height="40" viewBox="0 0 32 40" fill="none" xmlns="http://www.w3.org/2000/svg">
<path d="M16.0003 0.833496C11.9601 0.833294 8.08306 2.4277 5.21187 5.27018C2.34068 8.11266 0.707394 11.9735 0.666992 16.0135C0.666992 26.5168 14.1795 38.2085 14.7545 38.7068C15.1017 39.0038 15.5435 39.167 16.0003 39.167C16.4572 39.167 16.899 39.0038 17.2462 38.7068C17.917 38.2085 31.3337 26.5168 31.3337 16.0135C31.2933 11.9735 29.66 8.11266 26.7888 5.27018C23.9176 2.4277 20.0406 0.833294 16.0003 0.833496ZM16.0003 21.9168C14.6735 21.9168 13.3766 21.5234 12.2734 20.7863C11.1702 20.0492 10.3104 19.0015 9.80263 17.7757C9.2949 16.5499 9.16205 15.2011 9.42089 13.8998C9.67973 12.5985 10.3186 11.4032 11.2568 10.465C12.195 9.52681 13.3903 8.8879 14.6916 8.62906C15.9929 8.37022 17.3417 8.50307 18.5675 9.0108C19.7933 9.51854 20.841 10.3784 21.5781 11.4815C22.3152 12.5847 22.7087 13.8817 22.7087 15.2085C22.7087 16.9877 22.0019 18.6939 20.7438 19.952C19.4858 21.2101 17.7795 21.9168 16.0003 21.9168Z" fill="currentColor"/>
</svg>
