<svg width="18" height="16" viewBox="0 0 18 16" fill="none" xmlns="http://www.w3.org/2000/svg">
<path d="M6.30117 7.11111C7.01318 7.11111 7.70921 6.90258 8.30122 6.51189C8.89324 6.1212 9.35466 5.5659 9.62714 4.91621C9.89961 4.26652 9.97091 3.55161 9.832 2.8619C9.69309 2.17219 9.35022 1.53865 8.84676 1.0414C8.34329 0.544146 7.70183 0.205512 7.0035 0.0683206C6.30517 -0.0688713 5.58133 0.00154055 4.92351 0.270652C4.2657 0.539764 3.70345 0.995488 3.30788 1.5802C2.91231 2.1649 2.70117 2.85233 2.70117 3.55556C2.70117 4.49855 3.08046 5.40292 3.75559 6.06971C4.43072 6.73651 5.34639 7.11111 6.30117 7.11111Z" fill="#A56D19"/>
<path d="M13.5008 8.889C14.0348 8.889 14.5568 8.7326 15.0008 8.43958C15.4448 8.14657 15.7909 7.73009 15.9953 7.24282C16.1996 6.75555 16.2531 6.21937 16.1489 5.70209C16.0447 5.18481 15.7876 4.70965 15.41 4.33671C15.0324 3.96377 14.5513 3.7098 14.0275 3.6069C13.5038 3.50401 12.9609 3.55682 12.4675 3.75865C11.9742 3.96049 11.5525 4.30228 11.2558 4.74081C10.9591 5.17934 10.8008 5.69491 10.8008 6.22233C10.8008 6.92958 11.0852 7.60785 11.5916 8.10795C12.0979 8.60805 12.7847 8.889 13.5008 8.889Z" fill="#A56D19"/>
<path d="M17.1 15.1113C17.3387 15.1113 17.5676 15.0176 17.7364 14.8509C17.9052 14.6842 18 14.4581 18 14.2224C17.9993 13.3916 17.7628 12.5777 17.3174 11.8729C16.8721 11.1682 16.2356 10.6008 15.4803 10.2352C14.725 9.86965 13.8811 9.72046 13.0442 9.8046C12.2074 9.88874 11.4112 10.2028 10.746 10.7113C9.86446 9.84403 8.74265 9.25402 7.52204 9.01565C6.30143 8.77727 5.03669 8.90121 3.8873 9.37183C2.73792 9.84245 1.75537 10.6387 1.06357 11.6601C0.371762 12.6815 0.00168317 13.8824 0 15.1113C0 15.347 0.0948211 15.5731 0.263604 15.7398C0.432387 15.9065 0.661305 16.0002 0.9 16.0002H11.7C11.9387 16.0002 12.1676 15.9065 12.3364 15.7398C12.5052 15.5731 12.6 15.347 12.6 15.1113" fill="#A56D19"/>
</svg>
