<svg width="15" height="15" viewBox="0 0 15 15" fill="none" xmlns="http://www.w3.org/2000/svg">
<path id="delete" d="M14.25 3.00083H10.5003V1.74841C10.4827 1.26831 10.2754 0.814771 9.92397 0.487219C9.57252 0.159667 9.10553 -0.0151703 8.62538 0.00103376H6.37554C5.89539 -0.0151703 5.4284 0.159667 5.07695 0.487219C4.7255 0.814771 4.51826 1.26831 4.50067 1.74841V3.00083H0.750925C0.552026 3.00083 0.361274 3.07984 0.220631 3.22048C0.0799887 3.36112 0.000976563 3.55188 0.000976562 3.75078C0.000976563 3.94967 0.0799887 4.14043 0.220631 4.28107C0.361274 4.42171 0.552026 4.50072 0.750925 4.50072H1.50087V12.7502C1.50087 13.3469 1.73791 13.9191 2.15984 14.341C2.58177 14.763 3.15402 15 3.75072 15H11.2502C11.8469 15 12.4192 14.763 12.8411 14.341C13.263 13.9191 13.5 13.3469 13.5 12.7502V4.50072H14.25C14.4489 4.50072 14.6396 4.42171 14.7803 4.28107C14.9209 4.14043 14.9999 3.94967 14.9999 3.75078C14.9999 3.55188 14.9209 3.36112 14.7803 3.22048C14.6396 3.07984 14.4489 3.00083 14.25 3.00083ZM6.00056 1.74841C6.00056 1.62842 6.15805 1.50093 6.37554 1.50093H8.62538C8.84287 1.50093 9.00036 1.62842 9.00036 1.74841V3.00083H6.00056V1.74841Z" fill="#5E5E5E"/>
</svg>
