<svg width="16" height="16" viewBox="0 0 16 16" fill="none" xmlns="http://www.w3.org/2000/svg">
<circle cx="8" cy="8" r="8" fill="#81CA89"/>
<path d="M8.24563 3C11.2369 3.03338 12.3906 3.3672 12.5554 3.76777C12.7202 4.16835 12.583 4.4354 11.4788 4.56893C10.0847 4.7375 9.09962 5.52057 9.18203 6.4C9.21219 6.7218 10.9395 6.5929 10.8977 7.8C10.865 8.74496 9.04595 8.73862 8.99997 9.07143C8.92448 9.61705 9.28568 11.2143 11.0997 11.3287C12.5501 11.6124 12.3576 11.7459 12.3906 11.9963C12.4235 12.2467 10.5282 13.0478 8.24563 12.9978" fill="white"/>
<path d="M8.24563 3C5.30973 3.03338 4.17743 3.3672 4.01567 3.76777C3.85392 4.16835 3.97004 4.4354 5.05382 4.56893C6.42373 4.73771 7.50461 5.52057 7.42373 6.4C7.39413 6.7218 5.56735 6.51657 5.61094 7.8C5.64922 8.92696 7.52627 8.73862 7.5714 9.07143C7.64548 9.61705 7.28568 11.2143 5.42586 11.3287C4.00239 11.6124 4.20978 11.7459 4.17743 11.9963C4.14508 12.2467 6.00529 13.0478 8.24563 12.9978" fill="white"/>
</svg>
