<svg width="14" height="14" viewBox="0 0 14 14" fill="none" xmlns="http://www.w3.org/2000/svg">
<rect width="14.0011" height="14" rx="7" fill="#E41A1A"/>
<path d="M7.93979 6.99943L10.8041 4.14179C10.9295 4.01635 11 3.84623 11 3.66884C11 3.49146 10.9295 3.32133 10.8041 3.1959C10.6787 3.07047 10.5085 3 10.3312 3C10.1538 3 9.98365 3.07047 9.85821 3.1959L7.00057 6.06021L4.14292 3.1959C4.01749 3.07047 3.84737 3 3.66998 3C3.49259 3 3.32247 3.07047 3.19704 3.1959C3.0716 3.32133 3.00114 3.49146 3.00114 3.66884C3.00114 3.84623 3.0716 4.01635 3.19704 4.14179L6.06134 6.99943L3.19704 9.85708C3.1346 9.919 3.08505 9.99267 3.05123 10.0738C3.01741 10.155 3 10.2421 3 10.33C3 10.418 3.01741 10.505 3.05123 10.5862C3.08505 10.6674 3.1346 10.741 3.19704 10.803C3.25896 10.8654 3.33263 10.915 3.41381 10.9488C3.49498 10.9826 3.58204 11 3.66998 11C3.75792 11 3.84498 10.9826 3.92615 10.9488C4.00733 10.915 4.081 10.8654 4.14292 10.803L7.00057 7.93866L9.85821 10.803C9.92014 10.8654 9.99381 10.915 10.075 10.9488C10.1562 10.9826 10.2432 11 10.3312 11C10.4191 11 10.5062 10.9826 10.5873 10.9488C10.6685 10.915 10.7422 10.8654 10.8041 10.803C10.8665 10.741 10.9161 10.6674 10.9499 10.5862C10.9837 10.505 11.0011 10.418 11.0011 10.33C11.0011 10.2421 10.9837 10.155 10.9499 10.0738C10.9161 9.99267 10.8665 9.919 10.8041 9.85708L7.93979 6.99943Z" fill="white"/>
</svg>
