<svg width="172" height="38" viewBox="0 0 172 38" fill="none" xmlns="http://www.w3.org/2000/svg">
<rect x="0.5" y="0.5" width="171.001" height="37" rx="18.5" fill="white"/>
<rect x="0.5" y="0.5" width="171.001" height="37" rx="18.5" fill="#5D9A64" fill-opacity="0.08"/>
<path d="M28.3574 21.7724C25.6142 21.7518 23.1254 19.1751 24.106 16.2155C24.6584 14.5487 25.4745 12.9909 26.2937 11.439C26.8337 10.42 27.4047 9.42174 27.9726 8.41754C28.2736 7.88453 28.528 7.85213 28.8321 8.37632C29.6173 9.728 30.4055 11.0797 31.0944 12.4755C31.7181 13.7359 32.2984 15.0258 32.7484 16.348C33.4559 18.43 32.3419 20.5739 30.1976 21.4073C29.6235 21.6311 28.9904 21.7165 28.3822 21.8637L28.3574 21.7724ZM28.4815 9.11253C28.438 9.11253 28.3977 9.11253 28.3543 9.11253C28.0222 9.71622 27.684 10.317 27.355 10.9236C26.4241 12.6316 25.4807 14.3337 24.9035 16.1861C24.7391 16.7161 24.5808 17.2963 24.6335 17.8352C24.8849 20.3854 27.625 21.8313 30.0703 20.7388C31.6716 20.0232 32.5311 18.3005 32.1432 16.9635C31.9105 16.1654 31.6747 15.3556 31.3147 14.6047C30.5296 12.9703 29.6607 11.3683 28.8259 9.75451C28.7142 9.53953 28.5963 9.32456 28.4815 9.11253Z" fill="#231F20"/>
<path d="M28.1122 29.9915C24.7639 29.8502 22.1572 29.1728 19.7615 27.7947C19.3333 27.5473 18.8709 27.3529 18.4055 27.1703C17.9245 26.9789 17.428 26.9848 16.9377 27.1851C16.5591 27.3411 16.1681 27.4707 15.7802 27.6032C15.6716 27.6415 15.5443 27.7004 15.4481 27.6769C15.293 27.6356 15.0975 27.562 15.0354 27.4472C14.992 27.3647 15.1099 27.1115 15.2185 27.0702C16.5467 26.546 17.8655 25.9777 19.3178 26.764C20.2581 27.2734 21.2107 27.7711 22.2038 28.1745C24.0377 28.9196 25.9772 29.2465 27.9695 29.3113C28.8104 29.3378 29.5397 29.0874 30.1913 28.5957C32.2301 27.0555 34.0641 25.3121 35.8422 23.5158C36.0626 23.292 36.1805 22.9386 36.2488 22.6294C36.286 22.4615 36.1619 22.1847 36.016 22.0787C35.864 21.9727 35.5692 21.9491 35.383 22.011C35.1409 22.0934 34.9299 22.2848 34.7282 22.4527C33.971 23.0829 33.2232 23.7249 32.4722 24.361C32.3046 24.5023 32.1215 24.6584 31.9136 24.4287C31.7243 24.2226 31.8267 24.0429 32.0098 23.8898C32.9066 23.13 33.7817 22.3496 34.7034 21.6193C35.414 21.0598 36.3139 21.157 36.7732 21.8196C36.9315 22.0463 37.0121 22.3673 36.9997 22.6412C36.9749 23.1506 36.7794 23.6306 36.3791 23.9929C34.5917 25.6037 32.8042 27.2175 30.9982 28.8106C30.0362 29.6587 28.8849 30.0651 28.1184 29.9915H28.1122Z" fill="#231F20"/>
<path d="M26.9827 27.0143C25.5304 27.3441 24.3481 26.87 23.2961 25.9836C23.0944 25.8128 22.8492 25.6832 22.6692 25.4947C22.5917 25.4123 22.5761 25.2061 22.6289 25.0972C22.7158 24.9175 22.8927 24.8999 23.082 25.0236C23.6157 25.371 24.1339 25.745 24.6987 26.0336C25.0835 26.2309 25.5335 26.387 25.9648 26.4106C27.3364 26.4901 28.7049 26.3988 30.0517 26.1249C30.4148 26.0513 30.7685 25.9217 31.1068 25.7715C31.2433 25.7126 31.414 25.5183 31.3985 25.4064C31.3799 25.2591 31.2185 25.053 31.0726 25.0088C30.6599 24.8822 30.2286 24.788 29.7941 24.7438C29.3193 24.6967 28.8353 24.6937 28.3605 24.7261C27.0044 24.8204 25.8686 24.2844 24.767 23.6483C23.9602 23.183 23.203 22.6323 22.362 22.2407C21.068 21.6399 19.6995 21.531 18.2968 21.9609C17.4621 22.2171 16.6056 22.4026 15.7584 22.6176C15.6716 22.6412 15.566 22.6853 15.4947 22.6559C15.324 22.5911 15.0788 22.5234 15.023 22.3938C14.9268 22.167 15.1502 22.0522 15.3643 21.9992C16.2022 21.7931 17.0525 21.6311 17.8717 21.3778C19.4233 20.9008 20.9532 20.9361 22.4582 21.4986C22.9547 21.6841 23.4016 21.9992 23.8702 22.2554C24.798 22.7619 25.6979 23.3214 26.663 23.7543C27.1564 23.9752 27.7584 24.0017 28.317 24.0488C29.0742 24.1136 29.8469 24.0606 30.5979 24.1637C31.0075 24.2196 31.4388 24.4228 31.7678 24.6702C32.3108 25.0795 32.2674 25.7686 31.7243 26.1779C31.113 26.6373 30.3589 26.7433 29.6204 26.8464C28.7391 26.9672 27.8515 27.0319 26.964 27.1203C26.9702 27.082 26.9733 27.0467 26.9796 27.0084L26.9827 27.0143Z" fill="#231F20"/>
<path d="M28.8694 19.9437C28.7018 19.9437 28.5963 19.9731 28.5498 19.9378C28.4225 19.8347 28.2767 19.7169 28.2332 19.5756C28.2146 19.5137 28.4225 19.3518 28.556 19.3047C28.7701 19.2281 29.009 19.2222 29.2294 19.1574C30.1665 18.8865 30.6351 18.2563 30.7344 17.3522C30.7623 17.1019 30.7934 16.8663 31.1533 16.9252C31.4761 16.9782 31.4761 17.1696 31.4574 17.4435C31.3488 19.0838 29.8376 19.8877 28.8694 19.9407V19.9437Z" fill="#231F20"/>
<path d="M51.4986 24.14C51.032 24.14 50.6353 24.1073 50.3086 24.042C49.982 23.9767 49.688 23.8833 49.4266 23.762C49.1653 23.6407 48.8806 23.5007 48.5726 23.342V22.25C48.8713 22.502 49.2726 22.726 49.7766 22.922C50.2806 23.118 50.8686 23.216 51.5406 23.216C52.25 23.216 52.7633 23.0667 53.0806 22.768C53.4073 22.46 53.5706 22.0727 53.5706 21.606C53.5706 21.214 53.4633 20.9013 53.2486 20.668C53.034 20.4253 52.7586 20.2293 52.4226 20.08C52.0866 19.9213 51.732 19.772 51.3586 19.632C51.0413 19.52 50.724 19.4033 50.4066 19.282C50.0986 19.1513 49.8186 18.9927 49.5666 18.806C49.3146 18.61 49.114 18.3627 48.9646 18.064C48.8153 17.756 48.7406 17.3733 48.7406 16.916C48.7406 16.664 48.7873 16.398 48.8806 16.118C48.9833 15.838 49.142 15.5767 49.3566 15.334C49.5806 15.0913 49.8746 14.8953 50.2386 14.746C50.612 14.5967 51.0646 14.522 51.5966 14.522C51.9606 14.522 52.2686 14.55 52.5206 14.606C52.782 14.6527 53.0293 14.7273 53.2626 14.83C53.496 14.9233 53.7573 15.04 54.0466 15.18V16.216C53.804 16.076 53.5706 15.95 53.3466 15.838C53.132 15.7167 52.8893 15.6233 52.6186 15.558C52.3573 15.4833 52.0353 15.446 51.6526 15.446C51.1953 15.446 50.8266 15.5113 50.5466 15.642C50.276 15.7727 50.0753 15.9453 49.9446 16.16C49.8233 16.3747 49.7626 16.6033 49.7626 16.846C49.7626 17.2287 49.8466 17.532 50.0146 17.756C50.192 17.98 50.4346 18.1667 50.7426 18.316C51.06 18.456 51.424 18.596 51.8346 18.736C52.1613 18.848 52.488 18.974 52.8146 19.114C53.1413 19.2447 53.4353 19.4127 53.6966 19.618C53.9673 19.814 54.182 20.066 54.3406 20.374C54.5086 20.6727 54.5926 21.046 54.5926 21.494C54.5926 21.914 54.4993 22.3293 54.3126 22.74C54.126 23.1413 53.8086 23.4773 53.3606 23.748C52.9126 24.0093 52.292 24.14 51.4986 24.14ZM58.4662 24.112C57.9716 24.112 57.5562 23.9627 57.2202 23.664C56.8842 23.356 56.7162 22.9033 56.7162 22.306V17.938H55.4982V17.014H56.7162V15.04H57.7242V17.014H59.5302V17.938H57.7242V21.984C57.7242 22.376 57.7849 22.67 57.9062 22.866C58.0276 23.062 58.2749 23.16 58.6482 23.16C58.8162 23.16 58.9796 23.146 59.1382 23.118C59.2969 23.0807 59.4276 23.0387 59.5302 22.992V23.944C59.3996 23.9907 59.2316 24.028 59.0262 24.056C58.8302 24.0933 58.6436 24.112 58.4662 24.112ZM61.0742 24V17.574C61.1862 17.5273 61.4008 17.448 61.7182 17.336C62.0448 17.224 62.4322 17.1213 62.8802 17.028C63.3375 16.9347 63.8088 16.888 64.2942 16.888C64.3688 16.888 64.4435 16.8973 64.5182 16.916C64.5928 16.9347 64.6675 16.9533 64.7422 16.972V17.868C64.4995 17.84 64.2615 17.826 64.0282 17.826C63.8042 17.826 63.5848 17.84 63.3702 17.868C63.1555 17.8867 62.9408 17.9147 62.7262 17.952C62.5115 17.9893 62.2968 18.0267 62.0822 18.064V24H61.0742ZM68.4633 24.21C67.8007 24.21 67.2267 24.0747 66.7413 23.804C66.256 23.524 65.8827 23.1087 65.6213 22.558C65.36 22.0073 65.2293 21.3213 65.2293 20.5C65.2293 19.296 65.5 18.3953 66.0413 17.798C66.592 17.1913 67.3433 16.888 68.2953 16.888C69.042 16.888 69.6393 17.056 70.0873 17.392C70.5447 17.728 70.8713 18.1807 71.0673 18.75C71.2633 19.3193 71.3567 19.9633 71.3473 20.682H65.7333L65.8033 19.758H70.6893L70.2973 19.898C70.2693 19.198 70.092 18.6753 69.7653 18.33C69.448 17.9847 68.958 17.812 68.2953 17.812C67.838 17.812 67.4553 17.896 67.1473 18.064C66.8487 18.232 66.6247 18.526 66.4753 18.946C66.326 19.3567 66.2513 19.9353 66.2513 20.682C66.2513 21.5313 66.4473 22.18 66.8393 22.628C67.2407 23.0667 67.8007 23.286 68.5193 23.286C68.8647 23.286 69.182 23.2627 69.4713 23.216C69.7607 23.16 70.0267 23.0853 70.2693 22.992C70.512 22.8987 70.7267 22.796 70.9133 22.684V23.72C70.5773 23.8787 70.204 24 69.7933 24.084C69.392 24.168 68.9487 24.21 68.4633 24.21ZM75.3636 24.21C75.0556 24.21 74.7429 24.1773 74.4256 24.112C74.1176 24.0467 73.8283 23.9347 73.5576 23.776C73.2963 23.6173 73.0816 23.4027 72.9136 23.132C72.7549 22.852 72.6756 22.502 72.6756 22.082C72.6756 21.5033 72.7829 21.0413 72.9976 20.696C73.2216 20.3413 73.5249 20.0893 73.9076 19.94C74.2996 19.7813 74.7476 19.702 75.2516 19.702C75.6343 19.702 75.9656 19.7253 76.2456 19.772C76.5256 19.8187 76.7729 19.8887 76.9876 19.982C77.2116 20.066 77.4123 20.164 77.5896 20.276L77.7856 21.2C77.5709 21.0413 77.2583 20.906 76.8476 20.794C76.4463 20.6727 76.0029 20.612 75.5176 20.612C74.9296 20.612 74.4769 20.724 74.1596 20.948C73.8423 21.172 73.6836 21.4987 73.6836 21.928C73.6836 22.2733 73.7769 22.5487 73.9636 22.754C74.1596 22.9593 74.4023 23.104 74.6916 23.188C74.9903 23.272 75.2936 23.314 75.6016 23.314C76.2083 23.314 76.6656 23.272 76.9736 23.188C77.2909 23.0947 77.4496 22.8893 77.4496 22.572V19.366C77.4496 18.8247 77.2909 18.428 76.9736 18.176C76.6563 17.924 76.2036 17.798 75.6156 17.798C75.2423 17.798 74.8456 17.854 74.4256 17.966C74.0149 18.0687 73.6603 18.2367 73.3616 18.47V17.462C73.6509 17.2753 74.0383 17.1353 74.5236 17.042C75.0089 16.9393 75.4803 16.888 75.9376 16.888C76.2456 16.888 76.5303 16.9207 76.7916 16.986C77.0529 17.042 77.2863 17.1307 77.4916 17.252C77.6969 17.364 77.8696 17.5133 78.0096 17.7C78.1589 17.8773 78.2709 18.0873 78.3456 18.33C78.4296 18.5633 78.4716 18.8293 78.4716 19.128V22.516C78.4716 23.0107 78.3223 23.3793 78.0236 23.622C77.7343 23.8647 77.3516 24.0233 76.8756 24.098C76.4089 24.1727 75.9049 24.21 75.3636 24.21ZM86.1535 19.45V24H85.1455V19.45C85.1455 19.282 85.1222 19.1047 85.0755 18.918C85.0382 18.7313 84.9589 18.554 84.8375 18.386C84.7162 18.2087 84.5295 18.0687 84.2775 17.966C84.0255 17.854 83.6895 17.798 83.2695 17.798C82.9802 17.798 82.6815 17.8213 82.3735 17.868C82.0655 17.9147 81.7529 17.9847 81.4355 18.078V24H80.4275V17.574C80.6515 17.462 80.8802 17.364 81.1135 17.28C81.3562 17.1867 81.5989 17.112 81.8415 17.056C82.0935 17 82.3455 16.958 82.5975 16.93C82.8589 16.902 83.1202 16.888 83.3815 16.888C84.0629 16.888 84.6042 16.9907 85.0055 17.196C85.4069 17.392 85.6962 17.6813 85.8735 18.064C86.0602 18.4467 86.1535 18.9087 86.1535 19.45ZM84.8235 17.854C85.1315 17.6207 85.4442 17.434 85.7615 17.294C86.0789 17.154 86.4055 17.0513 86.7415 16.986C87.0869 16.9207 87.4322 16.888 87.7775 16.888C88.4589 16.888 89.0002 16.9907 89.4015 17.196C89.8029 17.392 90.0922 17.6813 90.2695 18.064C90.4562 18.4467 90.5495 18.9087 90.5495 19.45V24H89.5415V19.45C89.5415 19.282 89.5182 19.1047 89.4715 18.918C89.4342 18.7313 89.3549 18.554 89.2335 18.386C89.1122 18.2087 88.9255 18.0687 88.6735 17.966C88.4215 17.854 88.0855 17.798 87.6655 17.798C87.3762 17.798 87.0775 17.84 86.7695 17.924C86.4615 18.008 86.1489 18.1527 85.8315 18.358L84.8235 17.854ZM98.4855 24.112C97.9908 24.112 97.5755 23.9627 97.2395 23.664C96.9035 23.356 96.7355 22.9033 96.7355 22.306V17.938H95.5175V17.014H96.7355V15.04H97.7435V17.014H99.5495V17.938H97.7435V21.984C97.7435 22.376 97.8041 22.67 97.9255 22.866C98.0468 23.062 98.2941 23.16 98.6675 23.16C98.8355 23.16 98.9988 23.146 99.1575 23.118C99.3161 23.0807 99.4468 23.0387 99.5495 22.992V23.944C99.4188 23.9907 99.2508 24.028 99.0455 24.056C98.8495 24.0933 98.6628 24.112 98.4855 24.112ZM103.963 24.21C102.871 24.21 102.059 23.888 101.527 23.244C101.005 22.5907 100.743 21.6853 100.743 20.528C100.743 19.3147 101.019 18.4047 101.569 17.798C102.129 17.1913 102.918 16.888 103.935 16.888C104.691 16.888 105.307 17.042 105.783 17.35C106.259 17.6487 106.609 18.0733 106.833 18.624C107.057 19.1653 107.169 19.8 107.169 20.528C107.169 21.676 106.889 22.5767 106.329 23.23C105.779 23.8833 104.99 24.21 103.963 24.21ZM103.949 23.286C104.519 23.286 104.962 23.1647 105.279 22.922C105.597 22.67 105.821 22.3387 105.951 21.928C106.091 21.508 106.161 21.0413 106.161 20.528C106.161 19.9773 106.091 19.5013 105.951 19.1C105.811 18.6893 105.578 18.372 105.251 18.148C104.934 17.924 104.5 17.812 103.949 17.812C103.389 17.812 102.951 17.9333 102.633 18.176C102.316 18.4187 102.087 18.7453 101.947 19.156C101.817 19.5573 101.751 20.0147 101.751 20.528C101.751 21.3493 101.915 22.0167 102.241 22.53C102.568 23.034 103.137 23.286 103.949 23.286ZM116.541 24.112C115.103 24.112 114.021 23.7107 113.293 22.908C112.574 22.1053 112.215 20.9107 112.215 19.324C112.215 17.7373 112.574 16.5427 113.293 15.74C114.021 14.9373 115.103 14.536 116.541 14.536C117.035 14.536 117.521 14.5967 117.997 14.718C118.473 14.8393 118.935 15.0073 119.383 15.222V16.188C118.953 15.9547 118.51 15.782 118.053 15.67C117.595 15.5487 117.129 15.488 116.653 15.488C115.869 15.488 115.225 15.6233 114.721 15.894C114.226 16.1647 113.857 16.5847 113.615 17.154C113.381 17.714 113.265 18.4373 113.265 19.324C113.265 20.2107 113.381 20.9387 113.615 21.508C113.857 22.068 114.226 22.4833 114.721 22.754C115.225 23.0247 115.869 23.16 116.653 23.16C117.129 23.16 117.595 23.104 118.053 22.992C118.51 22.88 118.953 22.7073 119.383 22.474V23.44C119.084 23.58 118.776 23.7013 118.459 23.804C118.151 23.9067 117.833 23.9813 117.507 24.028C117.189 24.084 116.867 24.112 116.541 24.112ZM120.994 24V17.574C121.106 17.5273 121.32 17.448 121.638 17.336C121.964 17.224 122.352 17.1213 122.8 17.028C123.257 16.9347 123.728 16.888 124.214 16.888C124.288 16.888 124.363 16.8973 124.438 16.916C124.512 16.9347 124.587 16.9533 124.662 16.972V17.868C124.419 17.84 124.181 17.826 123.948 17.826C123.724 17.826 123.504 17.84 123.29 17.868C123.075 17.8867 122.86 17.9147 122.646 17.952C122.431 17.9893 122.216 18.0267 122.002 18.064V24H120.994ZM128.383 24.21C127.72 24.21 127.146 24.0747 126.661 23.804C126.175 23.524 125.802 23.1087 125.541 22.558C125.279 22.0073 125.149 21.3213 125.149 20.5C125.149 19.296 125.419 18.3953 125.961 17.798C126.511 17.1913 127.263 16.888 128.215 16.888C128.961 16.888 129.559 17.056 130.007 17.392C130.464 17.728 130.791 18.1807 130.987 18.75C131.183 19.3193 131.276 19.9633 131.267 20.682H125.653L125.723 19.758H130.609L130.217 19.898C130.189 19.198 130.011 18.6753 129.685 18.33C129.367 17.9847 128.877 17.812 128.215 17.812C127.757 17.812 127.375 17.896 127.067 18.064C126.768 18.232 126.544 18.526 126.395 18.946C126.245 19.3567 126.171 19.9353 126.171 20.682C126.171 21.5313 126.367 22.18 126.759 22.628C127.16 23.0667 127.72 23.286 128.439 23.286C128.784 23.286 129.101 23.2627 129.391 23.216C129.68 23.16 129.946 23.0853 130.189 22.992C130.431 22.8987 130.646 22.796 130.833 22.684V23.72C130.497 23.8787 130.123 24 129.713 24.084C129.311 24.168 128.868 24.21 128.383 24.21ZM135.283 24.21C134.975 24.21 134.662 24.1773 134.345 24.112C134.037 24.0467 133.748 23.9347 133.477 23.776C133.216 23.6173 133.001 23.4027 132.833 23.132C132.674 22.852 132.595 22.502 132.595 22.082C132.595 21.5033 132.702 21.0413 132.917 20.696C133.141 20.3413 133.444 20.0893 133.827 19.94C134.219 19.7813 134.667 19.702 135.171 19.702C135.554 19.702 135.885 19.7253 136.165 19.772C136.445 19.8187 136.692 19.8887 136.907 19.982C137.131 20.066 137.332 20.164 137.509 20.276L137.705 21.2C137.49 21.0413 137.178 20.906 136.767 20.794C136.366 20.6727 135.922 20.612 135.437 20.612C134.849 20.612 134.396 20.724 134.079 20.948C133.762 21.172 133.603 21.4987 133.603 21.928C133.603 22.2733 133.696 22.5487 133.883 22.754C134.079 22.9593 134.322 23.104 134.611 23.188C134.91 23.272 135.213 23.314 135.521 23.314C136.128 23.314 136.585 23.272 136.893 23.188C137.21 23.0947 137.369 22.8893 137.369 22.572V19.366C137.369 18.8247 137.21 18.428 136.893 18.176C136.576 17.924 136.123 17.798 135.535 17.798C135.162 17.798 134.765 17.854 134.345 17.966C133.934 18.0687 133.58 18.2367 133.281 18.47V17.462C133.57 17.2753 133.958 17.1353 134.443 17.042C134.928 16.9393 135.4 16.888 135.857 16.888C136.165 16.888 136.45 16.9207 136.711 16.986C136.972 17.042 137.206 17.1307 137.411 17.252C137.616 17.364 137.789 17.5133 137.929 17.7C138.078 17.8773 138.19 18.0873 138.265 18.33C138.349 18.5633 138.391 18.8293 138.391 19.128V22.516C138.391 23.0107 138.242 23.3793 137.943 23.622C137.654 23.8647 137.271 24.0233 136.795 24.098C136.328 24.1727 135.824 24.21 135.283 24.21ZM142.545 24.112C142.05 24.112 141.635 23.9627 141.299 23.664C140.963 23.356 140.795 22.9033 140.795 22.306V17.938H139.577V17.014H140.795V15.04H141.803V17.014H143.609V17.938H141.803V21.984C141.803 22.376 141.864 22.67 141.985 22.866C142.106 23.062 142.354 23.16 142.727 23.16C142.895 23.16 143.058 23.146 143.217 23.118C143.376 23.0807 143.506 23.0387 143.609 22.992V23.944C143.478 23.9907 143.31 24.028 143.105 24.056C142.909 24.0933 142.722 24.112 142.545 24.112ZM148.023 24.21C146.931 24.21 146.119 23.888 145.587 23.244C145.064 22.5907 144.803 21.6853 144.803 20.528C144.803 19.3147 145.078 18.4047 145.629 17.798C146.189 17.1913 146.978 16.888 147.995 16.888C148.751 16.888 149.367 17.042 149.843 17.35C150.319 17.6487 150.669 18.0733 150.893 18.624C151.117 19.1653 151.229 19.8 151.229 20.528C151.229 21.676 150.949 22.5767 150.389 23.23C149.838 23.8833 149.05 24.21 148.023 24.21ZM148.009 23.286C148.578 23.286 149.022 23.1647 149.339 22.922C149.656 22.67 149.88 22.3387 150.011 21.928C150.151 21.508 150.221 21.0413 150.221 20.528C150.221 19.9773 150.151 19.5013 150.011 19.1C149.871 18.6893 149.638 18.372 149.311 18.148C148.994 17.924 148.56 17.812 148.009 17.812C147.449 17.812 147.01 17.9333 146.693 18.176C146.376 18.4187 146.147 18.7453 146.007 19.156C145.876 19.5573 145.811 20.0147 145.811 20.528C145.811 21.3493 145.974 22.0167 146.301 22.53C146.628 23.034 147.197 23.286 148.009 23.286ZM152.844 24V17.574C152.956 17.5273 153.17 17.448 153.488 17.336C153.814 17.224 154.202 17.1213 154.65 17.028C155.107 16.9347 155.578 16.888 156.064 16.888C156.138 16.888 156.213 16.8973 156.288 16.916C156.362 16.9347 156.437 16.9533 156.512 16.972V17.868C156.269 17.84 156.031 17.826 155.798 17.826C155.574 17.826 155.354 17.84 155.14 17.868C154.925 17.8867 154.71 17.9147 154.496 17.952C154.281 17.9893 154.066 18.0267 153.852 18.064V24H152.844Z" fill="#231F20"/>
<rect x="0.5" y="0.5" width="171.001" height="37" rx="18.5" stroke="#25BE22"/>
</svg>
