<svg width="33" height="28" viewBox="0 0 33 28" fill="none" xmlns="http://www.w3.org/2000/svg">
<path d="M31.2583 11.75H1.74167C0.779771 11.75 0 12.707 0 13.8875V14.1125C0 15.293 0.779771 16.25 1.74167 16.25H31.2583C32.2202 16.25 33 15.293 33 14.1125V13.8875C33 12.707 32.2202 11.75 31.2583 11.75Z" fill="currentColor"/>
<path d="M31.2583 23H1.74167C0.779771 23 0 23.957 0 25.1375V25.3625C0 26.543 0.779771 27.5 1.74167 27.5H31.2583C32.2202 27.5 33 26.543 33 25.3625V25.1375C33 23.957 32.2202 23 31.2583 23Z" fill="currentColor"/>
<path d="M31.2583 0.5H1.74167C0.779771 0.5 0 1.45699 0 2.6375V2.8625C0 4.04301 0.779771 5 1.74167 5H31.2583C32.2202 5 33 4.04301 33 2.8625V2.6375C33 1.45699 32.2202 0.5 31.2583 0.5Z" fill="currentColor"/>
</svg>
