<svg width="178" height="102" viewBox="0 0 178 102" fill="none" xmlns="http://www.w3.org/2000/svg">
<rect x="0.5" width="176" height="101.998" rx="20" fill="white"/>
<rect x="0.5" width="176" height="101.998" rx="20" fill="#5D9A64" fill-opacity="0.08"/>
<g filter="url(#filter0_d_2525_9562)">
<path d="M92.785 40.0397C87.7976 40.0022 83.2728 35.3174 85.0556 29.9366C86.0599 26.9062 87.5437 24.074 89.0332 21.2524C90.0149 19.3999 91.053 17.5849 92.0854 15.7591C92.6327 14.7901 93.0953 14.7312 93.6483 15.6842C95.0757 18.1417 96.5087 20.5992 97.7612 23.137C98.8952 25.4285 99.9503 27.7736 100.768 30.1776C102.055 33.9629 100.029 37.8606 96.1307 39.3758C95.0869 39.7827 93.936 39.938 92.8302 40.2057L92.785 40.0397ZM93.0107 17.0227C92.9317 17.0227 92.8584 17.0227 92.7794 17.0227C92.1757 18.1203 91.5608 19.2125 90.9627 20.3154C89.2701 23.4208 87.555 26.5154 86.5056 29.8831C86.2066 30.8468 85.9189 31.9016 86.0148 32.8813C86.4718 37.5179 91.4536 40.1468 95.8994 38.1604C98.8106 36.8594 100.373 33.7273 99.6682 31.2965C99.245 29.8456 98.8162 28.3732 98.1618 27.008C96.7344 24.0365 95.1546 21.1239 93.637 18.1899C93.4339 17.799 93.2195 17.4082 93.0107 17.0227Z" fill="#231F20"/>
<path d="M92.3393 54.9828C86.2517 54.7258 81.5125 53.4944 77.157 50.9887C76.3784 50.539 75.5378 50.1856 74.6915 49.8536C73.817 49.5056 72.9143 49.5163 72.0229 49.8804C71.3345 50.1642 70.6237 50.3997 69.9184 50.6407C69.721 50.7103 69.4896 50.8174 69.3147 50.7745C69.0326 50.6996 68.6772 50.5657 68.5644 50.3569C68.4854 50.207 68.6998 49.7466 68.8972 49.6716C71.312 48.7186 73.7098 47.6853 76.3502 49.1148C78.0597 50.041 79.7917 50.9459 81.5972 51.6794C84.9315 53.0339 88.4577 53.6282 92.0798 53.746C93.6088 53.7942 94.9346 53.3391 96.1194 52.445C99.8261 49.6448 103.16 46.4752 106.393 43.2093C106.794 42.8024 107.008 42.1599 107.132 41.5977C107.2 41.2925 106.974 40.7893 106.709 40.5965C106.433 40.4038 105.897 40.3609 105.558 40.4734C105.118 40.6233 104.735 40.9713 104.368 41.2765C102.991 42.4222 101.632 43.5894 100.266 44.7459C99.9615 45.0029 99.6287 45.2866 99.2507 44.869C98.9065 44.4942 99.0927 44.1677 99.4256 43.8892C101.056 42.5079 102.647 41.0891 104.323 39.7613C105.615 38.744 107.251 38.9207 108.086 40.1254C108.374 40.5376 108.52 41.1212 108.498 41.6191C108.453 42.5454 108.097 43.4181 107.369 44.0766C104.12 47.0053 100.87 49.9393 97.5863 52.8358C95.8373 54.3778 93.7442 55.1167 92.3506 54.9828H92.3393Z" fill="#231F20"/>
<path d="M90.2857 49.5699C87.6453 50.1695 85.4957 49.3075 83.5831 47.696C83.2164 47.3854 82.7707 47.1498 82.4434 46.8072C82.3024 46.6573 82.2742 46.2825 82.3701 46.0844C82.5281 45.7578 82.8497 45.7257 83.1938 45.9505C84.1642 46.5823 85.1064 47.2623 86.1332 47.787C86.8328 48.1457 87.6509 48.4295 88.4351 48.4723C90.9289 48.6169 93.4169 48.4509 95.8655 47.953C96.5256 47.8191 97.1688 47.5835 97.7838 47.3105C98.032 47.2034 98.3423 46.85 98.3141 46.6466C98.2803 46.3789 97.9869 46.0041 97.7217 45.9238C96.9713 45.6936 96.1871 45.5222 95.3972 45.4419C94.534 45.3562 93.6539 45.3509 92.7907 45.4098C90.3252 45.5811 88.2602 44.6067 86.2574 43.4502C84.7905 42.6043 83.4138 41.6031 81.8849 40.891C79.5322 39.7988 77.0441 39.6007 74.494 40.3823C72.9763 40.8482 71.4192 41.1855 69.8789 41.5763C69.721 41.6191 69.5291 41.6994 69.3994 41.6459C69.0891 41.5281 68.6434 41.405 68.5418 41.1694C68.3669 40.7571 68.7731 40.5483 69.1624 40.452C70.6857 40.0772 72.2316 39.7827 73.7211 39.3223C76.542 38.4549 79.3235 38.5191 82.0598 39.5418C82.9625 39.8791 83.7749 40.452 84.6269 40.9178C86.3138 41.8386 87.9499 42.8559 89.7046 43.643C90.6016 44.0445 91.6962 44.0927 92.7117 44.1784C94.0883 44.2961 95.4932 44.1998 96.8585 44.3872C97.6032 44.4889 98.3874 44.8583 98.9855 45.3081C99.9728 46.0523 99.8938 47.3051 98.9065 48.0493C97.795 48.8846 96.4241 49.0773 95.0813 49.2647C93.479 49.4842 91.8654 49.602 90.2518 49.7626C90.2631 49.693 90.2688 49.6288 90.28 49.5592L90.2857 49.5699Z" fill="#231F20"/>
<path d="M93.716 36.7148C93.4113 36.7148 93.2195 36.7684 93.1348 36.7041C92.9035 36.5167 92.6384 36.3026 92.5594 36.0456C92.5255 35.9331 92.9035 35.6387 93.1461 35.553C93.5354 35.4138 93.9698 35.4031 94.3704 35.2853C96.0743 34.7927 96.9262 33.647 97.1067 32.0033C97.1575 31.5482 97.2139 31.1199 97.8684 31.2269C98.4552 31.3233 98.4552 31.6713 98.4213 32.1693C98.2238 35.1515 95.4762 36.6131 93.716 36.7095V36.7148Z" fill="#231F20"/>
</g>
<!-- <path d="M25.124 82.19C24.58 82.19 24.0947 82.1634 23.668 82.11C23.252 82.0567 22.868 81.9714 22.516 81.854C22.1747 81.7367 21.828 81.5874 21.476 81.406V79.31C21.924 79.6727 22.4467 79.9607 23.044 80.174C23.652 80.3767 24.2707 80.478 24.9 80.478C25.476 80.478 25.908 80.366 26.196 80.142C26.4947 79.9074 26.644 79.5714 26.644 79.134C26.644 78.8034 26.5213 78.5367 26.276 78.334C26.0413 78.1314 25.7267 77.9554 25.332 77.806C24.9373 77.6567 24.5053 77.502 24.036 77.342C23.7053 77.2247 23.38 77.0967 23.06 76.958C22.7507 76.8087 22.468 76.622 22.212 76.398C21.9667 76.174 21.7693 75.8967 21.62 75.566C21.4707 75.2247 21.396 74.8087 21.396 74.318C21.396 73.9234 21.4707 73.534 21.62 73.15C21.7693 72.766 21.9987 72.4247 22.308 72.126C22.6173 71.8167 23.0173 71.5714 23.508 71.39C23.9987 71.2087 24.5853 71.118 25.268 71.118C25.6947 71.118 26.068 71.1447 26.388 71.198C26.7187 71.2514 27.0333 71.3314 27.332 71.438C27.6307 71.5447 27.94 71.678 28.26 71.838V73.934C28.004 73.7527 27.732 73.582 27.444 73.422C27.156 73.2514 26.8467 73.1127 26.516 73.006C26.196 72.8994 25.8493 72.8407 25.476 72.83C25.092 72.8194 24.7613 72.862 24.484 72.958C24.2067 73.054 23.9933 73.198 23.844 73.39C23.6947 73.582 23.62 73.8114 23.62 74.078C23.62 74.4087 23.7107 74.6754 23.892 74.878C24.0733 75.07 24.3293 75.23 24.66 75.358C24.9907 75.486 25.3693 75.6194 25.796 75.758C26.212 75.886 26.6013 76.03 26.964 76.19C27.3373 76.3394 27.6627 76.5314 27.94 76.766C28.228 77.0007 28.452 77.2887 28.612 77.63C28.7827 77.9714 28.868 78.3874 28.868 78.878C28.868 79.4754 28.7293 80.0247 28.452 80.526C28.1747 81.0274 27.7587 81.4327 27.204 81.742C26.66 82.0407 25.9667 82.19 25.124 82.19ZM33.833 82.254C33.001 82.254 32.3663 82.0514 31.929 81.646C31.4917 81.23 31.273 80.6327 31.273 79.854V75.534H30.025V73.934H31.273V71.71H33.369V73.934H35.241V75.534H33.369V79.534C33.369 79.8647 33.433 80.11 33.561 80.27C33.689 80.43 33.913 80.51 34.233 80.51C34.4037 80.51 34.5797 80.4834 34.761 80.43C34.953 80.366 35.113 80.2914 35.241 80.206V81.966C35.0277 82.0727 34.793 82.1474 34.537 82.19C34.2917 82.2327 34.057 82.254 33.833 82.254ZM37.12 81.998V74.718C37.2693 74.622 37.5307 74.494 37.904 74.334C38.288 74.174 38.7307 74.0354 39.232 73.918C39.7333 73.79 40.24 73.726 40.752 73.726C41.136 73.726 41.44 73.758 41.664 73.822C41.8987 73.8754 42.08 73.9447 42.208 74.03V75.566C41.9947 75.534 41.7493 75.5074 41.472 75.486C41.2053 75.4647 40.928 75.4594 40.64 75.47C40.3627 75.47 40.0907 75.4807 39.824 75.502C39.568 75.5234 39.344 75.55 39.152 75.582V81.998H37.12ZM46.922 82.238C46.122 82.238 45.4233 82.078 44.826 81.758C44.2287 81.4274 43.7647 80.9474 43.434 80.318C43.1033 79.6887 42.938 78.9314 42.938 78.046C42.938 76.638 43.274 75.566 43.946 74.83C44.6287 74.0834 45.5833 73.71 46.81 73.71C47.6953 73.71 48.4047 73.902 48.938 74.286C49.482 74.67 49.8767 75.2194 50.122 75.934C50.378 76.638 50.5007 77.4807 50.49 78.462H44.25L44.09 77.086H48.874L48.49 77.662C48.4687 76.8194 48.3193 76.2167 48.042 75.854C47.7753 75.4807 47.3433 75.294 46.746 75.294C46.3833 75.294 46.0633 75.3794 45.786 75.55C45.5193 75.71 45.3113 75.982 45.162 76.366C45.0233 76.75 44.954 77.278 44.954 77.95C44.954 78.782 45.1513 79.422 45.546 79.87C45.9407 80.3074 46.5433 80.526 47.354 80.526C47.6847 80.526 47.9993 80.494 48.298 80.43C48.6073 80.3554 48.89 80.27 49.146 80.174C49.4127 80.078 49.6367 79.9874 49.818 79.902V81.694C49.4447 81.854 49.018 81.982 48.538 82.078C48.0687 82.1847 47.53 82.238 46.922 82.238ZM55.2843 82.238C54.8363 82.238 54.4096 82.1954 54.0043 82.11C53.5989 82.0247 53.2363 81.886 52.9163 81.694C52.5963 81.4914 52.3403 81.2194 52.1483 80.878C51.9669 80.526 51.8763 80.0887 51.8763 79.566C51.8763 79.022 51.9883 78.5634 52.2122 78.19C52.4363 77.806 52.7616 77.518 53.1883 77.326C53.6256 77.1234 54.1589 77.022 54.7883 77.022C55.1723 77.022 55.5296 77.0594 55.8602 77.134C56.1909 77.198 56.4896 77.2887 56.7563 77.406C57.0229 77.5234 57.2416 77.6514 57.4123 77.79L57.5563 78.926C57.3323 78.7767 57.0443 78.6594 56.6923 78.574C56.3509 78.478 55.9776 78.43 55.5723 78.43C55.0069 78.43 54.5856 78.5207 54.3083 78.702C54.0309 78.8834 53.8923 79.166 53.8923 79.55C53.8923 79.8167 53.9669 80.0407 54.1163 80.222C54.2656 80.3927 54.4576 80.526 54.6923 80.622C54.9269 80.7074 55.1723 80.75 55.4283 80.75C56.0149 80.75 56.4363 80.7127 56.6923 80.638C56.9589 80.5527 57.0923 80.3767 57.0923 80.11V76.926C57.0923 76.4034 56.9269 76.0247 56.5963 75.79C56.2656 75.5447 55.8016 75.422 55.2043 75.422C54.7456 75.422 54.2763 75.502 53.7963 75.662C53.3163 75.8114 52.9269 76.0087 52.6283 76.254V74.414C52.9163 74.2327 53.3483 74.0727 53.9243 73.934C54.5003 73.7954 55.1189 73.726 55.7803 73.726C56.0576 73.726 56.3509 73.7527 56.6603 73.806C56.9696 73.8594 57.2629 73.9447 57.5403 74.062C57.8283 74.1794 58.0896 74.3447 58.3243 74.558C58.5589 74.7607 58.7456 75.022 58.8843 75.342C59.0229 75.6514 59.0923 76.03 59.0923 76.478V80.302C59.0923 80.8034 58.9323 81.198 58.6123 81.486C58.2923 81.7634 57.8496 81.9554 57.2843 82.062C56.7189 82.1794 56.0523 82.238 55.2843 82.238ZM68.5708 76.622V81.998H66.5548V76.974C66.5548 76.7714 66.5281 76.5794 66.4748 76.398C66.4214 76.206 66.3308 76.0407 66.2028 75.902C66.0748 75.7527 65.8988 75.6407 65.6748 75.566C65.4508 75.4807 65.1628 75.438 64.8108 75.438C64.5441 75.438 64.2828 75.4647 64.0268 75.518C63.7814 75.5714 63.5628 75.6407 63.3708 75.726V81.998H61.3388V74.606C61.5628 74.4994 61.8294 74.3927 62.1388 74.286C62.4481 74.1794 62.7841 74.0887 63.1468 74.014C63.5094 73.9287 63.8721 73.8647 64.2348 73.822C64.6081 73.7687 64.9601 73.742 65.2908 73.742C66.0374 73.742 66.6508 73.8434 67.1308 74.046C67.6108 74.238 67.9681 74.5474 68.2028 74.974C68.4481 75.39 68.5708 75.9394 68.5708 76.622ZM66.3948 75.086C66.7361 74.798 67.1254 74.558 67.5628 74.366C68.0001 74.1634 68.4588 74.0087 68.9388 73.902C69.4188 73.7954 69.8774 73.742 70.3148 73.742C71.0614 73.742 71.6748 73.8434 72.1548 74.046C72.6348 74.238 72.9921 74.5474 73.2268 74.974C73.4721 75.39 73.5948 75.9394 73.5948 76.622V81.998H71.5788V76.974C71.5788 76.7714 71.5521 76.5794 71.4988 76.398C71.4454 76.206 71.3548 76.0407 71.2268 75.902C71.0988 75.7527 70.9228 75.6407 70.6988 75.566C70.4748 75.4807 70.1868 75.438 69.8348 75.438C69.5681 75.438 69.3068 75.4754 69.0508 75.55C68.8054 75.6247 68.5868 75.7367 68.3948 75.886L66.3948 75.086ZM83.4111 82.254C82.5791 82.254 81.9445 82.0514 81.5071 81.646C81.0698 81.23 80.8511 80.6327 80.8511 79.854V75.534H79.6031V73.934H80.8511V71.71H82.9471V73.934H84.8191V75.534H82.9471V79.534C82.9471 79.8647 83.0111 80.11 83.1391 80.27C83.2671 80.43 83.4911 80.51 83.8111 80.51C83.9818 80.51 84.1578 80.4834 84.3391 80.43C84.5311 80.366 84.6911 80.2914 84.8191 80.206V81.966C84.6058 82.0727 84.3711 82.1474 84.1151 82.19C83.8698 82.2327 83.6351 82.254 83.4111 82.254ZM90.2341 82.238C88.9115 82.238 87.9195 81.87 87.2581 81.134C86.5968 80.398 86.2661 79.3367 86.2661 77.95C86.2661 76.4674 86.6021 75.39 87.2741 74.718C87.9568 74.046 88.9381 73.71 90.2181 73.71C91.1141 73.71 91.8608 73.87 92.4581 74.19C93.0555 74.4994 93.4981 74.9687 93.7861 75.598C94.0848 76.2274 94.2341 77.0114 94.2341 77.95C94.2341 79.3367 93.8875 80.398 93.1941 81.134C92.5115 81.87 91.5248 82.238 90.2341 82.238ZM90.2341 80.574C90.7035 80.574 91.0821 80.4674 91.3701 80.254C91.6688 80.0407 91.8875 79.742 92.0261 79.358C92.1648 78.9634 92.2341 78.494 92.2341 77.95C92.2341 77.342 92.1595 76.846 92.0101 76.462C91.8715 76.078 91.6528 75.7954 91.3541 75.614C91.0661 75.4327 90.6928 75.342 90.2341 75.342C89.7648 75.342 89.3861 75.438 89.0981 75.63C88.8101 75.822 88.5968 76.11 88.4581 76.494C88.3301 76.878 88.2661 77.3634 88.2661 77.95C88.2661 78.8034 88.4208 79.454 88.7301 79.902C89.0395 80.35 89.5408 80.574 90.2341 80.574ZM105.246 82.174C103.561 82.174 102.281 81.726 101.406 80.83C100.532 79.9234 100.094 78.5314 100.094 76.654C100.094 74.83 100.521 73.454 101.374 72.526C102.228 71.5874 103.518 71.118 105.246 71.118C105.812 71.118 106.377 71.1874 106.942 71.326C107.518 71.4647 108.073 71.6567 108.606 71.902V73.822C108.062 73.4807 107.534 73.2354 107.022 73.086C106.51 72.9367 106.014 72.862 105.534 72.862C104.83 72.862 104.238 72.99 103.758 73.246C103.289 73.4914 102.932 73.8914 102.686 74.446C102.452 75.0007 102.334 75.742 102.334 76.67C102.334 77.5874 102.457 78.3234 102.702 78.878C102.948 79.4327 103.31 79.8327 103.79 80.078C104.281 80.3234 104.889 80.446 105.614 80.446C106.052 80.446 106.521 80.3714 107.022 80.222C107.534 80.0727 108.062 79.8327 108.606 79.502V81.422C108.297 81.5714 107.95 81.7047 107.566 81.822C107.193 81.9394 106.809 82.0247 106.414 82.078C106.02 82.142 105.63 82.174 105.246 82.174ZM110.558 81.998V74.718C110.707 74.622 110.968 74.494 111.342 74.334C111.726 74.174 112.168 74.0354 112.67 73.918C113.171 73.79 113.678 73.726 114.19 73.726C114.574 73.726 114.878 73.758 115.102 73.822C115.336 73.8754 115.518 73.9447 115.646 74.03V75.566C115.432 75.534 115.187 75.5074 114.91 75.486C114.643 75.4647 114.366 75.4594 114.078 75.47C113.8 75.47 113.528 75.4807 113.262 75.502C113.006 75.5234 112.782 75.55 112.59 75.582V81.998H110.558ZM120.36 82.238C119.56 82.238 118.861 82.078 118.264 81.758C117.666 81.4274 117.202 80.9474 116.872 80.318C116.541 79.6887 116.376 78.9314 116.376 78.046C116.376 76.638 116.712 75.566 117.384 74.83C118.066 74.0834 119.021 73.71 120.248 73.71C121.133 73.71 121.842 73.902 122.376 74.286C122.92 74.67 123.314 75.2194 123.56 75.934C123.816 76.638 123.938 77.4807 123.928 78.462H117.688L117.528 77.086H122.312L121.928 77.662C121.906 76.8194 121.757 76.2167 121.48 75.854C121.213 75.4807 120.781 75.294 120.184 75.294C119.821 75.294 119.501 75.3794 119.224 75.55C118.957 75.71 118.749 75.982 118.6 76.366C118.461 76.75 118.392 77.278 118.392 77.95C118.392 78.782 118.589 79.422 118.984 79.87C119.378 80.3074 119.981 80.526 120.792 80.526C121.122 80.526 121.437 80.494 121.736 80.43C122.045 80.3554 122.328 80.27 122.584 80.174C122.85 80.078 123.074 79.9874 123.256 79.902V81.694C122.882 81.854 122.456 81.982 121.976 82.078C121.506 82.1847 120.968 82.238 120.36 82.238ZM128.722 82.238C128.274 82.238 127.847 82.1954 127.442 82.11C127.036 82.0247 126.674 81.886 126.354 81.694C126.034 81.4914 125.778 81.2194 125.586 80.878C125.404 80.526 125.314 80.0887 125.314 79.566C125.314 79.022 125.426 78.5634 125.65 78.19C125.874 77.806 126.199 77.518 126.626 77.326C127.063 77.1234 127.596 77.022 128.226 77.022C128.61 77.022 128.967 77.0594 129.298 77.134C129.628 77.198 129.927 77.2887 130.194 77.406C130.46 77.5234 130.679 77.6514 130.85 77.79L130.994 78.926C130.77 78.7767 130.482 78.6594 130.13 78.574C129.788 78.478 129.415 78.43 129.01 78.43C128.444 78.43 128.023 78.5207 127.746 78.702C127.468 78.8834 127.33 79.166 127.33 79.55C127.33 79.8167 127.404 80.0407 127.554 80.222C127.703 80.3927 127.895 80.526 128.13 80.622C128.364 80.7074 128.61 80.75 128.866 80.75C129.452 80.75 129.874 80.7127 130.13 80.638C130.396 80.5527 130.53 80.3767 130.53 80.11V76.926C130.53 76.4034 130.364 76.0247 130.034 75.79C129.703 75.5447 129.239 75.422 128.642 75.422C128.183 75.422 127.714 75.502 127.234 75.662C126.754 75.8114 126.364 76.0087 126.066 76.254V74.414C126.354 74.2327 126.786 74.0727 127.362 73.934C127.938 73.7954 128.556 73.726 129.218 73.726C129.495 73.726 129.788 73.7527 130.098 73.806C130.407 73.8594 130.7 73.9447 130.978 74.062C131.266 74.1794 131.527 74.3447 131.762 74.558C131.996 74.7607 132.183 75.022 132.322 75.342C132.46 75.6514 132.53 76.03 132.53 76.478V80.302C132.53 80.8034 132.37 81.198 132.05 81.486C131.73 81.7634 131.287 81.9554 130.722 82.062C130.156 82.1794 129.49 82.238 128.722 82.238ZM137.864 82.254C137.032 82.254 136.398 82.0514 135.96 81.646C135.523 81.23 135.304 80.6327 135.304 79.854V75.534H134.056V73.934H135.304V71.71H137.4V73.934H139.272V75.534H137.4V79.534C137.4 79.8647 137.464 80.11 137.592 80.27C137.72 80.43 137.944 80.51 138.264 80.51C138.435 80.51 138.611 80.4834 138.792 80.43C138.984 80.366 139.144 80.2914 139.272 80.206V81.966C139.059 82.0727 138.824 82.1474 138.568 82.19C138.323 82.2327 138.088 82.254 137.864 82.254ZM144.687 82.238C143.365 82.238 142.373 81.87 141.711 81.134C141.05 80.398 140.719 79.3367 140.719 77.95C140.719 76.4674 141.055 75.39 141.727 74.718C142.41 74.046 143.391 73.71 144.671 73.71C145.567 73.71 146.314 73.87 146.911 74.19C147.509 74.4994 147.951 74.9687 148.239 75.598C148.538 76.2274 148.687 77.0114 148.687 77.95C148.687 79.3367 148.341 80.398 147.647 81.134C146.965 81.87 145.978 82.238 144.687 82.238ZM144.687 80.574C145.157 80.574 145.535 80.4674 145.823 80.254C146.122 80.0407 146.341 79.742 146.479 79.358C146.618 78.9634 146.687 78.494 146.687 77.95C146.687 77.342 146.613 76.846 146.463 76.462C146.325 76.078 146.106 75.7954 145.807 75.614C145.519 75.4327 145.146 75.342 144.687 75.342C144.218 75.342 143.839 75.438 143.551 75.63C143.263 75.822 143.05 76.11 142.911 76.494C142.783 76.878 142.719 77.3634 142.719 77.95C142.719 78.8034 142.874 79.454 143.183 79.902C143.493 80.35 143.994 80.574 144.687 80.574ZM150.495 81.998V74.718C150.644 74.622 150.906 74.494 151.279 74.334C151.663 74.174 152.106 74.0354 152.607 73.918C153.108 73.79 153.615 73.726 154.127 73.726C154.511 73.726 154.815 73.758 155.039 73.822C155.274 73.8754 155.455 73.9447 155.583 74.03V75.566C155.37 75.534 155.124 75.5074 154.847 75.486C154.58 75.4647 154.303 75.4594 154.015 75.47C153.738 75.47 153.466 75.4807 153.199 75.502C152.943 75.5234 152.719 75.55 152.527 75.582V81.998H150.495Z" fill="#231F20"/> -->
<g style="mix-blend-mode:multiply" opacity="0.1">
<mask id="path-5-outside-1_2525_9562" maskUnits="userSpaceOnUse" x="0" y="15" width="178" height="54" fill="black">
<rect fill="white" y="15" width="178" height="54"/>
<path fill-rule="evenodd" clip-rule="evenodd" d="M1 24.3943V20.5234C9.32811 14.9804 26.4284 14.5871 35.2838 19.9822C35.9837 20.4102 36.6678 20.8584 37.3535 21.3077C39.3362 22.6067 41.3328 23.9148 43.7646 24.7707C52.0303 27.6717 62.9478 26.3253 68.2752 21.8976C75.5854 15.8182 89.0829 14.7494 97.7548 17.2756C101.338 18.3166 104.539 20.1071 107.096 21.9392C112.686 25.9367 119.685 27.1303 127.832 25.8395C130.231 25.4572 132.396 24.4737 134.503 23.5162C134.997 23.2918 135.488 23.0688 135.978 22.8553C137.141 22.3514 138.06 21.649 138.963 20.9586C139.155 20.8124 139.345 20.6666 139.537 20.5235C147.564 14.6384 166.27 14.5273 175.252 20.7872L175.356 20.8604C176.566 21.7099 177.768 22.5548 176.375 23.6881C175.3 24.5487 173.962 24.9234 172.409 23.9796C172.157 23.8263 171.905 23.6716 171.653 23.5167L171.653 23.5166C170.811 22.9983 169.966 22.4788 169.065 22.0086C161.253 17.8724 149.571 18.261 142.786 22.9802L142.775 22.9881C139.745 25.0952 136.737 27.187 132.18 28.1436C129.967 28.6047 127.684 28.9341 125.396 29.264L125.396 29.2641L125.395 29.2641C124.447 29.4009 123.497 29.5378 122.552 29.6843C113.976 29.3928 107.311 27.3247 102.557 23.3966C96.847 18.6774 84.6395 18.1084 77.9743 20.7594C75.8013 21.6233 73.9934 22.8229 72.2106 24.0058C71.759 24.3054 71.3091 24.6039 70.8552 24.8957C62.7089 30.1562 48.5186 31.0167 38.9628 26.7278C37.0278 25.8534 35.1644 24.8124 33.7788 23.6326C26.9464 17.8585 11.4421 17.6642 4.0603 23.119C2.89648 23.9765 1.85318 24.3928 1 24.3943ZM1 43.2656V39.7396C5.87587 36.6582 11.9091 35.077 19.2002 34.9843L19.1764 35.0123C27.2538 35.1525 33.754 37.1292 38.438 40.9985C44.3647 45.8911 55.7878 46.4799 63.5068 43.6341C65.4665 42.9051 67.1871 41.8537 68.6927 40.7882C79.8052 32.8814 96.4858 32.8674 107.503 40.8583C110.49 43.0313 113.955 44.6014 118.759 45.1061C126.788 45.9332 133.289 44.4472 138.14 40.634C142.537 37.1713 148.368 35.3628 155.633 35.0824C163.376 34.774 169.852 36.4142 175.229 39.6106C176.042 40.0872 176.926 40.7602 176.998 41.363C177.045 41.9798 176.352 42.7789 175.54 43.1995C175.086 43.4238 173.58 43.1434 172.792 42.863C172.18 42.6459 171.699 42.308 171.216 41.9691L171.216 41.9691C170.982 41.8048 170.747 41.6402 170.497 41.4892C162.611 36.7227 150.041 36.961 142.895 42.106C137.781 45.807 131.783 48.4286 123.323 48.5408C115.222 48.6529 108.506 46.9286 103.703 43.0593C99.019 39.2882 92.9012 37.7881 85.0627 38.3208C79.9485 38.6713 76.1966 40.2134 73.1377 42.4985C69.0989 45.5267 64.3433 47.8959 57.5324 48.3865C48.2361 49.0595 40.1348 47.5314 34.5666 43.0593C26.4652 36.5544 11.4812 36.7086 4.07292 42.2882C3.99093 42.3499 3.90895 42.4136 3.82627 42.4779L3.82623 42.4779C3.09784 43.044 2.31515 43.6524 1 43.2656ZM1 62.8841V59.0903C5.73284 55.941 11.8366 54.4518 18.6734 54.4363C27.2804 54.493 33.9272 56.4208 38.3507 60.2337C45.0711 66.0033 61.2145 66.3106 68.8198 60.2617C78.8646 52.2709 96.6344 52.4246 107.397 60.1779C114.332 65.1791 125.095 66.3805 133.298 62.9439C135.328 62.1008 136.996 60.9347 138.623 59.7971L138.918 59.5911C148.413 53.0113 164.795 52.6761 175.008 58.8926C175.869 59.4235 176.753 60.108 176.969 60.7925C177.136 61.3374 176.61 62.2314 175.893 62.5248C175.199 62.7902 173.74 62.6086 172.807 62.3572C172.157 62.1835 171.651 61.8075 171.155 61.4387L171.155 61.4386L171.155 61.4385C171.012 61.3327 170.871 61.2275 170.727 61.1278C162.954 55.6935 148.03 57.1883 142.888 61.505C138.775 64.9556 133.178 67.3444 125.74 67.8054C116.365 68.3921 108.76 66.5621 103.044 62.1197C97.9976 58.2081 91.2532 57.0207 83.2174 58.0125C78.6733 58.5853 75.4207 60.2198 72.6943 62.3153C68.5089 65.5423 62.8886 67.4003 56.0486 67.8752C47.4149 68.476 39.9291 66.9253 34.6915 62.8321C30.3387 59.4375 25.1011 57.4957 17.7828 57.6912C11.9711 57.8589 7.42706 59.5073 3.67222 62.0359C2.76088 62.648 1.81155 62.9242 1 62.8841ZM18.6734 54.4363L18.6677 54.4363H18.6916L18.6734 54.4363Z"/>
</mask>
<path fill-rule="evenodd" clip-rule="evenodd" d="M1 24.3943V20.5234C9.32811 14.9804 26.4284 14.5871 35.2838 19.9822C35.9837 20.4102 36.6678 20.8584 37.3535 21.3077C39.3362 22.6067 41.3328 23.9148 43.7646 24.7707C52.0303 27.6717 62.9478 26.3253 68.2752 21.8976C75.5854 15.8182 89.0829 14.7494 97.7548 17.2756C101.338 18.3166 104.539 20.1071 107.096 21.9392C112.686 25.9367 119.685 27.1303 127.832 25.8395C130.231 25.4572 132.396 24.4737 134.503 23.5162C134.997 23.2918 135.488 23.0688 135.978 22.8553C137.141 22.3514 138.06 21.649 138.963 20.9586C139.155 20.8124 139.345 20.6666 139.537 20.5235C147.564 14.6384 166.27 14.5273 175.252 20.7872L175.356 20.8604C176.566 21.7099 177.768 22.5548 176.375 23.6881C175.3 24.5487 173.962 24.9234 172.409 23.9796C172.157 23.8263 171.905 23.6716 171.653 23.5167L171.653 23.5166C170.811 22.9983 169.966 22.4788 169.065 22.0086C161.253 17.8724 149.571 18.261 142.786 22.9802L142.775 22.9881C139.745 25.0952 136.737 27.187 132.18 28.1436C129.967 28.6047 127.684 28.9341 125.396 29.264L125.396 29.2641L125.395 29.2641C124.447 29.4009 123.497 29.5378 122.552 29.6843C113.976 29.3928 107.311 27.3247 102.557 23.3966C96.847 18.6774 84.6395 18.1084 77.9743 20.7594C75.8013 21.6233 73.9934 22.8229 72.2106 24.0058C71.759 24.3054 71.3091 24.6039 70.8552 24.8957C62.7089 30.1562 48.5186 31.0167 38.9628 26.7278C37.0278 25.8534 35.1644 24.8124 33.7788 23.6326C26.9464 17.8585 11.4421 17.6642 4.0603 23.119C2.89648 23.9765 1.85318 24.3928 1 24.3943ZM1 43.2656V39.7396C5.87587 36.6582 11.9091 35.077 19.2002 34.9843L19.1764 35.0123C27.2538 35.1525 33.754 37.1292 38.438 40.9985C44.3647 45.8911 55.7878 46.4799 63.5068 43.6341C65.4665 42.9051 67.1871 41.8537 68.6927 40.7882C79.8052 32.8814 96.4858 32.8674 107.503 40.8583C110.49 43.0313 113.955 44.6014 118.759 45.1061C126.788 45.9332 133.289 44.4472 138.14 40.634C142.537 37.1713 148.368 35.3628 155.633 35.0824C163.376 34.774 169.852 36.4142 175.229 39.6106C176.042 40.0872 176.926 40.7602 176.998 41.363C177.045 41.9798 176.352 42.7789 175.54 43.1995C175.086 43.4238 173.58 43.1434 172.792 42.863C172.18 42.6459 171.699 42.308 171.216 41.9691L171.216 41.9691C170.982 41.8048 170.747 41.6402 170.497 41.4892C162.611 36.7227 150.041 36.961 142.895 42.106C137.781 45.807 131.783 48.4286 123.323 48.5408C115.222 48.6529 108.506 46.9286 103.703 43.0593C99.019 39.2882 92.9012 37.7881 85.0627 38.3208C79.9485 38.6713 76.1966 40.2134 73.1377 42.4985C69.0989 45.5267 64.3433 47.8959 57.5324 48.3865C48.2361 49.0595 40.1348 47.5314 34.5666 43.0593C26.4652 36.5544 11.4812 36.7086 4.07292 42.2882C3.99093 42.3499 3.90895 42.4136 3.82627 42.4779L3.82623 42.4779C3.09784 43.044 2.31515 43.6524 1 43.2656ZM1 62.8841V59.0903C5.73284 55.941 11.8366 54.4518 18.6734 54.4363C27.2804 54.493 33.9272 56.4208 38.3507 60.2337C45.0711 66.0033 61.2145 66.3106 68.8198 60.2617C78.8646 52.2709 96.6344 52.4246 107.397 60.1779C114.332 65.1791 125.095 66.3805 133.298 62.9439C135.328 62.1008 136.996 60.9347 138.623 59.7971L138.918 59.5911C148.413 53.0113 164.795 52.6761 175.008 58.8926C175.869 59.4235 176.753 60.108 176.969 60.7925C177.136 61.3374 176.61 62.2314 175.893 62.5248C175.199 62.7902 173.74 62.6086 172.807 62.3572C172.157 62.1835 171.651 61.8075 171.155 61.4387L171.155 61.4386L171.155 61.4385C171.012 61.3327 170.871 61.2275 170.727 61.1278C162.954 55.6935 148.03 57.1883 142.888 61.505C138.775 64.9556 133.178 67.3444 125.74 67.8054C116.365 68.3921 108.76 66.5621 103.044 62.1197C97.9976 58.2081 91.2532 57.0207 83.2174 58.0125C78.6733 58.5853 75.4207 60.2198 72.6943 62.3153C68.5089 65.5423 62.8886 67.4003 56.0486 67.8752C47.4149 68.476 39.9291 66.9253 34.6915 62.8321C30.3387 59.4375 25.1011 57.4957 17.7828 57.6912C11.9711 57.8589 7.42706 59.5073 3.67222 62.0359C2.76088 62.648 1.81155 62.9242 1 62.8841ZM18.6734 54.4363L18.6677 54.4363H18.6916L18.6734 54.4363Z" fill="#25BE22" fill-opacity="0.9"/>
<path d="M1 24.3943H0.5V24.8952L1.0009 24.8943L1 24.3943ZM1 20.5234L0.722963 20.1072L0.5 20.2556V20.5234H1ZM35.2838 19.9822L35.5447 19.5556L35.544 19.5552L35.2838 19.9822ZM37.3535 21.3077L37.0795 21.7259V21.7259L37.3535 21.3077ZM43.7646 24.7707L43.5986 25.2424L43.599 25.2425L43.7646 24.7707ZM68.2752 21.8976L68.5948 22.2821L68.5949 22.282L68.2752 21.8976ZM97.7548 17.2756L97.6149 17.7556L97.6153 17.7557L97.7548 17.2756ZM107.096 21.9392L106.804 22.3456L106.805 22.3459L107.096 21.9392ZM127.832 25.8395L127.91 26.3333L127.91 26.3333L127.832 25.8395ZM134.503 23.5162L134.297 23.061V23.061L134.503 23.5162ZM135.978 22.8553L135.779 22.3965L135.778 22.3969L135.978 22.8553ZM138.963 20.9586L139.267 21.3559V21.3559L138.963 20.9586ZM139.537 20.5235L139.242 20.1202L139.239 20.1226L139.537 20.5235ZM175.252 20.7872L175.54 20.3781L175.538 20.377L175.252 20.7872ZM175.356 20.8604L175.069 21.2695L175.069 21.2696L175.356 20.8604ZM176.375 23.6881L176.688 24.0785L176.691 24.076L176.375 23.6881ZM172.409 23.9796L172.669 23.5523L172.669 23.552L172.409 23.9796ZM171.653 23.5167L171.915 23.0908L171.908 23.0863L171.9 23.0821L171.653 23.5167ZM171.653 23.5166L171.391 23.9424L171.398 23.9469L171.406 23.9512L171.653 23.5166ZM169.065 22.0086L168.831 22.4505L168.834 22.4519L169.065 22.0086ZM142.786 22.9802L143.072 23.3908L143.072 23.3907L142.786 22.9802ZM142.775 22.9881L142.49 22.5775L142.49 22.5776L142.775 22.9881ZM132.18 28.1436L132.282 28.6331L132.282 28.6329L132.18 28.1436ZM125.396 29.264L125.324 28.769L125.313 28.7708L125.396 29.264ZM125.395 29.2641L125.467 29.7591L125.478 29.7573L125.395 29.2641ZM122.552 29.6843L122.535 30.184L122.582 30.1856L122.629 30.1784L122.552 29.6843ZM102.557 23.3966L102.238 23.782L102.238 23.7821L102.557 23.3966ZM77.9743 20.7594L78.159 21.2241L78.1591 21.224L77.9743 20.7594ZM72.2106 24.0058L71.9342 23.5891V23.5891L72.2106 24.0058ZM70.8552 24.8957L70.5849 24.4751L70.584 24.4756L70.8552 24.8957ZM38.9628 26.7278L38.7569 27.1835L38.7581 27.184L38.9628 26.7278ZM33.7788 23.6326L34.103 23.2519L34.1015 23.2507L33.7788 23.6326ZM4.0603 23.119L4.35687 23.5216L4.35745 23.5212L4.0603 23.119ZM1 43.2656H0.5V43.6398L0.858944 43.7453L1 43.2656ZM1 39.7396L0.732882 39.317L0.5 39.4641V39.7396H1ZM19.2002 34.9843L19.5808 35.3086L20.2953 34.4703L19.1939 34.4843L19.2002 34.9843ZM19.1764 35.0123L18.7958 34.688L18.1089 35.4939L19.1677 35.5123L19.1764 35.0123ZM38.438 40.9985L38.1196 41.384L38.1197 41.3841L38.438 40.9985ZM63.5068 43.6341L63.6798 44.1032L63.6812 44.1027L63.5068 43.6341ZM68.6927 40.7882L68.9815 41.1963L68.9825 41.1956L68.6927 40.7882ZM107.503 40.8583L107.797 40.454L107.796 40.4536L107.503 40.8583ZM118.759 45.1061L118.706 45.6033L118.707 45.6034L118.759 45.1061ZM138.14 40.634L138.449 41.0271L138.449 41.0268L138.14 40.634ZM155.633 35.0824L155.652 35.5821L155.653 35.582L155.633 35.0824ZM175.229 39.6106L174.974 40.0404L174.976 40.0419L175.229 39.6106ZM176.998 41.363L177.496 41.3244L177.495 41.3141L177.494 41.3039L176.998 41.363ZM175.54 43.1995L175.761 43.6478L175.77 43.6435L175.54 43.1995ZM172.792 42.863L172.959 42.3919L172.959 42.3918L172.792 42.863ZM171.216 41.9691L170.916 42.3691L170.922 42.3739L170.929 42.3784L171.216 41.9691ZM171.216 41.9691L171.516 41.5691L171.509 41.5643L171.503 41.5598L171.216 41.9691ZM170.497 41.4892L170.756 41.0613L170.756 41.0612L170.497 41.4892ZM142.895 42.106L142.603 41.7002L142.602 41.7009L142.895 42.106ZM123.323 48.5408L123.316 48.0408L123.316 48.0408L123.323 48.5408ZM103.703 43.0593L104.017 42.6699L104.017 42.6698L103.703 43.0593ZM85.0627 38.3208L85.0288 37.822L85.0285 37.822L85.0627 38.3208ZM73.1377 42.4985L72.8384 42.098L72.8377 42.0985L73.1377 42.4985ZM57.5324 48.3865L57.4965 47.8878L57.4963 47.8878L57.5324 48.3865ZM34.5666 43.0593L34.8797 42.6695L34.8796 42.6694L34.5666 43.0593ZM4.07292 42.2882L4.37345 42.6878L4.37372 42.6876L4.07292 42.2882ZM3.82627 42.4779L4.1118 42.8883L4.12266 42.8808L4.1331 42.8727L3.82627 42.4779ZM3.82623 42.4779L3.5407 42.0675L3.52984 42.075L3.5194 42.0831L3.82623 42.4779ZM1 62.8841H0.5V63.36L0.975308 63.3835L1 62.8841ZM1 59.0903L0.72301 58.6741L0.5 58.8225V59.0903H1ZM38.3507 60.2337L38.0242 60.6125L38.025 60.6131L38.3507 60.2337ZM68.8198 60.2617L69.1311 60.653L69.1311 60.653L68.8198 60.2617ZM107.397 60.1779L107.689 59.7723L107.689 59.7722L107.397 60.1779ZM133.298 62.9439L133.106 62.4821L133.105 62.4827L133.298 62.9439ZM138.623 59.7971L138.337 59.3872L138.337 59.3873L138.623 59.7971ZM138.918 59.5911L138.633 59.1802L138.632 59.1812L138.918 59.5911ZM175.008 58.8926L175.27 58.467L175.268 58.4655L175.008 58.8926ZM176.969 60.7925L177.447 60.6457L177.446 60.6426L176.969 60.7925ZM175.893 62.5248L176.071 62.9919L176.082 62.9876L175.893 62.5248ZM172.807 62.3572L172.938 61.8744L172.936 61.8741L172.807 62.3572ZM171.155 61.4387L171.453 61.0374L171.443 61.0298L171.432 61.0227L171.155 61.4387ZM171.155 61.4385L170.856 61.8398L170.867 61.8474L170.877 61.8545L171.155 61.4385ZM170.727 61.1278L170.44 61.5376L170.442 61.5389L170.727 61.1278ZM142.888 61.505L143.21 61.8881L143.21 61.8879L142.888 61.505ZM125.74 67.8054L125.709 67.3064L125.709 67.3064L125.74 67.8054ZM103.044 62.1197L103.351 61.7249L103.35 61.7245L103.044 62.1197ZM83.2174 58.0125L83.1561 57.5163L83.1549 57.5165L83.2174 58.0125ZM72.6943 62.3153L72.3896 61.9188L72.389 61.9193L72.6943 62.3153ZM56.0486 67.8752L56.014 67.3764L56.0139 67.3765L56.0486 67.8752ZM34.6915 62.8321L34.9994 62.4382L34.999 62.4379L34.6915 62.8321ZM17.7828 57.6912L17.7694 57.1914L17.7683 57.1914L17.7828 57.6912ZM3.67222 62.0359L3.95102 62.4509L3.9515 62.4506L3.67222 62.0359ZM18.6677 54.4363V53.9363L18.6643 54.9362L18.6677 54.4363ZM18.6916 54.4363L18.6926 54.9363L18.6916 53.9363V54.4363ZM1.5 24.3943V20.5234H0.5V24.3943H1.5ZM1.27704 20.9396C5.33211 18.2407 11.5827 16.7668 17.9533 16.6509C24.3227 16.5351 30.7062 17.7788 35.0237 20.4092L35.544 19.5552C31.0061 16.7905 24.4117 15.5333 17.9351 15.6511C11.4596 15.7688 4.996 17.2631 0.722963 20.1072L1.27704 20.9396ZM35.023 20.4087C35.7151 20.832 36.3927 21.2759 37.0795 21.7259L37.6275 20.8894C36.9429 20.4409 36.2523 19.9884 35.5447 19.5556L35.023 20.4087ZM37.0795 21.7259C39.0565 23.0211 41.1012 24.3633 43.5986 25.2424L43.9306 24.2991C41.5644 23.4662 39.616 22.1922 37.6275 20.8894L37.0795 21.7259ZM43.599 25.2425C47.814 26.7218 52.6879 27.114 57.1809 26.5789C61.6665 26.0447 65.8317 24.5786 68.5948 22.2821L67.9556 21.5131C65.3913 23.6443 61.4341 25.0653 57.0627 25.5859C52.6986 26.1057 47.981 25.7206 43.9302 24.299L43.599 25.2425ZM68.5949 22.282C72.1522 19.3237 77.2522 17.5593 82.57 16.8552C87.8834 16.1516 93.3548 16.5146 97.6149 17.7556L97.8946 16.7955C93.4829 15.5104 87.8696 15.1447 82.4387 15.8638C77.0122 16.5824 71.7084 18.3921 67.9555 21.5132L68.5949 22.282ZM97.6153 17.7557C101.13 18.7769 104.281 20.5368 106.804 22.3456L107.387 21.5328C104.798 19.6773 101.546 17.8563 97.8943 16.7954L97.6153 17.7557ZM106.805 22.3459C112.529 26.4395 119.672 27.6387 127.91 26.3333L127.753 25.3457C119.699 26.622 112.842 25.4338 107.386 21.5325L106.805 22.3459ZM127.91 26.3333C130.387 25.9386 132.612 24.9246 134.71 23.9714L134.297 23.061C132.18 24.0227 130.075 24.9757 127.753 25.3457L127.91 26.3333ZM134.71 23.9714C135.205 23.7467 135.692 23.5253 136.178 23.3137L135.778 22.3969C135.284 22.6122 134.79 22.8368 134.297 23.061L134.71 23.9714ZM136.177 23.3141C137.404 22.7824 138.369 22.0425 139.267 21.3559L138.66 20.5614C137.752 21.2554 136.878 21.9204 135.779 22.3965L136.177 23.3141ZM139.267 21.3559C139.459 21.2093 139.647 21.0655 139.836 20.9244L139.239 20.1226C139.044 20.2678 138.851 20.4154 138.66 20.5614L139.267 21.3559ZM139.833 20.9267C143.723 18.0748 150.281 16.582 157.035 16.601C163.784 16.6199 170.591 18.1483 174.966 21.1974L175.538 20.377C170.931 17.1663 163.894 15.6202 157.038 15.601C150.187 15.5817 143.379 17.0871 139.242 20.1202L139.833 20.9267ZM174.965 21.1962L175.069 21.2695L175.644 20.4514L175.54 20.3781L174.965 21.1962ZM175.069 21.2696C175.375 21.4846 175.66 21.685 175.903 21.8862C176.148 22.0899 176.318 22.2683 176.414 22.4266C176.502 22.573 176.512 22.6739 176.489 22.7639C176.462 22.8716 176.364 23.0525 176.06 23.3002L176.691 24.076C177.083 23.757 177.357 23.4073 177.458 23.0113C177.564 22.5977 177.459 22.2218 177.27 21.9091C177.088 21.6083 176.817 21.3454 176.541 21.1163C176.262 20.8848 175.942 20.661 175.644 20.4513L175.069 21.2696ZM176.063 23.2978C175.574 23.6886 175.055 23.9458 174.509 24.0144C173.971 24.082 173.361 23.9726 172.669 23.5523L172.15 24.4069C173.011 24.9304 173.846 25.1056 174.634 25.0066C175.413 24.9087 176.101 24.5482 176.688 24.0784L176.063 23.2978ZM172.669 23.552C172.417 23.3997 172.167 23.2458 171.915 23.0908L171.391 23.9426C171.643 24.0973 171.896 24.2529 172.15 24.4071L172.669 23.552ZM171.9 23.0821L171.9 23.0819L171.406 23.9512L171.406 23.9513L171.9 23.0821ZM171.915 23.0907C171.075 22.5738 170.215 22.045 169.296 21.5653L168.834 22.4519C169.717 22.9126 170.546 23.4228 171.391 23.9424L171.915 23.0907ZM169.299 21.5668C165.302 19.4504 160.338 18.5014 155.523 18.674C150.709 18.8465 145.992 20.1416 142.501 22.5698L143.072 23.3907C146.366 21.0997 150.882 19.8409 155.558 19.6733C160.233 19.5058 165.016 20.4306 168.831 22.4505L169.299 21.5668ZM142.501 22.5697L142.49 22.5775L143.061 23.3986L143.072 23.3908L142.501 22.5697ZM142.49 22.5776C139.459 24.6848 136.525 26.7206 132.077 27.6542L132.282 28.6329C136.949 27.6535 140.031 25.5056 143.061 23.3986L142.49 22.5776ZM132.077 27.6541C129.883 28.1115 127.615 28.4388 125.324 28.7692L125.467 29.7589C127.752 29.4294 130.051 29.0979 132.282 28.6331L132.077 27.6541ZM125.313 28.7708L125.313 28.7709L125.478 29.7572L125.478 29.7572L125.313 28.7708ZM125.313 28.7709L125.313 28.7709L125.478 29.7573L125.478 29.7572L125.313 28.7709ZM125.324 28.7692C124.376 28.9059 123.424 29.0432 122.475 29.1902L122.629 30.1784C123.571 30.0324 124.518 29.8958 125.467 29.7589L125.324 28.7692ZM122.569 29.1846C114.058 28.8953 107.515 26.8449 102.875 23.0112L102.238 23.7821C107.106 27.8044 113.893 29.8903 122.535 30.184L122.569 29.1846ZM102.875 23.0112C99.9085 20.5592 95.3122 19.2209 90.6672 18.8161C86.015 18.4106 81.2141 18.9327 77.7895 20.2948L78.1591 21.224C81.3997 19.9351 86.0351 19.4162 90.5804 19.8123C95.1328 20.209 99.4951 21.5149 102.238 23.782L102.875 23.0112ZM77.7896 20.2948C75.5612 21.1807 73.7121 22.4095 71.9342 23.5891L72.4871 24.4224C74.2746 23.2363 76.0415 22.0659 78.159 21.2241L77.7896 20.2948ZM71.9342 23.5891C71.4821 23.8891 71.0352 24.1856 70.5849 24.4751L71.1256 25.3163C71.583 25.0222 72.036 24.7217 72.4871 24.4224L71.9342 23.5891ZM70.584 24.4756C66.603 27.0464 61.1094 28.5605 55.4084 28.8936C49.7097 29.2266 43.8567 28.3763 39.1675 26.2717L38.7581 27.184C43.6247 29.3683 49.6448 30.2321 55.4667 29.8919C61.2865 29.5519 66.9612 28.0055 71.1265 25.3157L70.584 24.4756ZM39.1687 26.2722C37.2529 25.4065 35.4374 24.3882 34.1029 23.2519L33.4546 24.0133C34.8913 25.2366 36.8026 26.3003 38.7569 27.1835L39.1687 26.2722ZM34.1015 23.2507C30.5621 20.2595 24.8454 18.7544 19.1334 18.665C13.4186 18.5756 7.57416 19.9008 3.76315 22.7169L4.35745 23.5212C7.92829 20.8825 13.5269 19.5774 19.1178 19.6649C24.7114 19.7525 30.1631 21.2316 33.4561 24.0145L34.1015 23.2507ZM3.76373 22.7165C2.64006 23.5443 1.70061 23.893 0.999101 23.8943L1.0009 24.8943C2.00574 24.8925 3.15289 24.4086 4.35687 23.5216L3.76373 22.7165ZM1.5 43.2656V39.7396H0.5V43.2656H1.5ZM19.1939 34.4843C11.834 34.5779 5.70475 36.1748 0.732882 39.317L1.26712 40.1623C6.04699 37.1415 11.9841 35.5761 19.2066 35.4843L19.1939 34.4843ZM19.5569 35.3367L19.5808 35.3086L18.8197 34.66L18.7958 34.688L19.5569 35.3367ZM38.7564 40.613C33.958 36.6492 27.3346 34.6539 19.185 34.5124L19.1677 35.5123C27.1731 35.6512 33.5501 37.6093 38.1196 41.384L38.7564 40.613ZM63.3339 43.1649C59.5522 44.5592 54.8418 45.1176 50.3443 44.7202C45.8404 44.3222 41.6139 42.9719 38.7563 40.6129L38.1197 41.3841C41.1888 43.9177 45.6372 45.3082 50.2563 45.7163C54.8818 46.125 59.7425 45.5548 63.6798 44.1032L63.3339 43.1649ZM68.4038 40.3801C66.9168 41.4324 65.2359 42.4574 63.3325 43.1655L63.6812 44.1027C65.697 43.3528 67.4574 42.2749 68.9815 41.1963L68.4038 40.3801ZM107.796 40.4536C96.6033 32.335 79.6878 32.3513 68.4028 40.3808L68.9825 41.1956C79.9225 33.4116 96.3684 33.3999 107.209 41.263L107.796 40.4536ZM118.811 44.6088C114.101 44.114 110.718 42.5792 107.797 40.454L107.209 41.2626C110.261 43.4833 113.809 45.0888 118.706 45.6033L118.811 44.6088ZM137.831 40.2409C133.111 43.9509 126.753 45.4269 118.81 44.6087L118.707 45.6034C126.824 46.4395 133.466 44.9434 138.449 41.0271L137.831 40.2409ZM155.614 34.5828C148.279 34.8659 142.335 36.6942 137.83 40.2412L138.449 41.0268C142.739 37.6484 148.457 35.8597 155.652 35.5821L155.614 34.5828ZM175.485 39.1808C170.015 35.9295 163.441 34.271 155.613 34.5828L155.653 35.582C163.311 35.277 169.689 36.899 174.974 40.0404L175.485 39.1808ZM177.494 41.3039C177.436 40.8111 177.074 40.3858 176.729 40.0705C176.361 39.7346 175.904 39.427 175.482 39.1793L174.976 40.0419C175.367 40.2708 175.758 40.538 176.054 40.8085C176.372 41.0995 176.488 41.3121 176.501 41.422L177.494 41.3039ZM175.77 43.6435C176.234 43.4031 176.665 43.0555 176.979 42.671C177.28 42.3013 177.535 41.8211 177.496 41.3244L176.499 41.4016C176.508 41.5217 176.44 41.7494 176.204 42.0387C175.98 42.313 175.658 42.5753 175.31 42.7554L175.77 43.6435ZM172.624 43.3341C173.054 43.4869 173.66 43.6342 174.219 43.7153C174.5 43.756 174.782 43.782 175.032 43.781C175.262 43.78 175.539 43.7574 175.761 43.6478L175.318 42.7512C175.324 42.7483 175.306 42.7578 175.248 42.7667C175.193 42.7752 175.12 42.7806 175.028 42.781C174.843 42.7817 174.614 42.7621 174.363 42.7257C173.859 42.6526 173.318 42.5195 172.959 42.3919L172.624 43.3341ZM170.929 42.3784C171.406 42.7133 171.94 43.0911 172.624 43.3342L172.959 42.3918C172.421 42.2007 171.992 41.9027 171.503 41.5599L170.929 42.3784ZM170.916 42.3691L170.916 42.3691L171.516 41.5691L171.516 41.5691L170.916 42.3691ZM170.239 41.917C170.472 42.0578 170.692 42.2125 170.929 42.3783L171.503 41.5598C171.271 41.397 171.023 41.2226 170.756 41.0613L170.239 41.917ZM143.188 42.5118C146.657 40.0135 151.48 38.686 156.429 38.5807C161.377 38.4753 166.393 39.5927 170.239 41.9171L170.756 41.0612C166.716 38.6191 161.503 37.4724 156.408 37.5809C151.314 37.6893 146.279 39.0535 142.603 41.7002L143.188 42.5118ZM123.33 49.0407C131.906 48.927 138.003 46.2638 143.189 42.5111L142.602 41.7009C137.56 45.3503 131.659 47.9302 123.316 48.0408L123.33 49.0407ZM103.389 43.4487C108.316 47.4173 115.162 49.1538 123.33 49.0407L123.316 48.0408C115.281 48.152 108.697 46.4398 104.017 42.6699L103.389 43.4487ZM85.0966 38.8197C92.8542 38.2925 98.8334 39.7806 103.389 43.4488L104.017 42.6698C99.2046 38.7957 92.9481 37.2838 85.0288 37.822L85.0966 38.8197ZM73.4369 42.8991C76.4159 40.6737 80.0751 39.1638 85.0969 38.8197L85.0285 37.822C79.822 38.1788 75.9773 39.7532 72.8384 42.098L73.4369 42.8991ZM57.5683 48.8852C64.4931 48.3864 69.3382 45.9722 73.4376 42.8986L72.8377 42.0985C68.8596 45.0811 64.1934 47.4054 57.4965 47.8878L57.5683 48.8852ZM34.2535 43.4491C39.9624 48.0343 48.2135 49.5624 57.5685 48.8852L57.4963 47.8878C48.2588 48.5565 40.3071 47.0285 34.8797 42.6695L34.2535 43.4491ZM4.37372 42.6876C7.96265 39.9846 13.4404 38.5659 19.0531 38.6421C24.6627 38.7181 30.3145 40.2864 34.2535 43.4492L34.8796 42.6694C30.7173 39.3273 24.8264 37.7203 19.0666 37.6421C13.3099 37.5641 7.59151 39.0123 3.77211 41.8888L4.37372 42.6876ZM4.1331 42.8727C4.21634 42.808 4.29518 42.7467 4.37345 42.6878L3.77238 41.8886C3.68669 41.9531 3.60156 42.0193 3.51943 42.0831L4.1331 42.8727ZM4.11177 42.8884L4.1118 42.8883L3.54073 42.0674L3.5407 42.0675L4.11177 42.8884ZM0.858944 43.7453C1.62291 43.97 2.26035 43.9094 2.81354 43.6954C3.34419 43.4901 3.77811 43.1486 4.13307 42.8727L3.5194 42.0831C3.14596 42.3734 2.82434 42.619 2.45276 42.7628C2.10372 42.8978 1.69224 42.948 1.14106 42.7859L0.858944 43.7453ZM1.5 62.8841V59.0903H0.5V62.8841H1.5ZM18.6723 53.9363C11.7685 53.9519 5.56015 55.4554 0.72301 58.6741L1.27699 59.5066C5.90552 56.4267 11.9048 54.9516 18.6745 54.9363L18.6723 53.9363ZM38.6771 59.855C34.1281 55.9339 27.345 53.9934 18.6767 53.9363L18.6701 54.9363C27.2159 54.9926 33.7262 56.9077 38.0242 60.6125L38.6771 59.855ZM68.5086 59.8704C64.8287 62.7972 59.0208 64.2211 53.257 64.1797C47.4886 64.1382 41.9099 62.6304 38.6763 59.8544L38.025 60.6131C41.5119 63.6066 47.3651 65.1373 53.2498 65.1796C59.1392 65.222 65.2056 63.7751 69.1311 60.653L68.5086 59.8704ZM107.689 59.7722C102.208 55.8237 94.968 53.8246 87.8398 53.8158C80.713 53.8069 73.6404 55.7879 68.5086 59.8704L69.1311 60.653C74.0441 56.7447 80.8787 54.8071 87.8386 54.8158C94.797 54.8244 101.823 56.7787 107.104 60.5836L107.689 59.7722ZM133.105 62.4827C125.058 65.8539 114.48 64.669 107.689 59.7723L107.104 60.5834C114.185 65.6892 125.132 66.907 133.491 63.4051L133.105 62.4827ZM138.337 59.3873C136.705 60.5283 135.078 61.6629 133.106 62.4821L133.49 63.4056C135.577 62.5387 137.287 61.3412 138.91 60.2069L138.337 59.3873ZM138.632 59.1812L138.337 59.3872L138.91 60.207L139.204 60.001L138.632 59.1812ZM175.268 58.4655C170.063 55.2973 163.316 53.8127 156.684 53.9433C150.053 54.074 143.481 55.8206 138.633 59.1802L139.203 60.0021C143.85 56.7819 150.216 55.071 156.704 54.9431C163.19 54.8154 169.74 56.2714 174.748 59.3197L175.268 58.4655ZM177.446 60.6426C177.298 60.1732 176.944 59.7579 176.566 59.4148C176.179 59.0629 175.714 58.7407 175.27 58.467L174.745 59.3182C175.162 59.5754 175.57 59.8609 175.894 60.1551C176.228 60.4581 176.424 60.7273 176.492 60.9425L177.446 60.6426ZM176.082 62.9876C176.558 62.7929 176.945 62.414 177.189 62.0134C177.424 61.6289 177.591 61.1146 177.447 60.6457L176.491 60.9394C176.514 61.0153 176.502 61.2205 176.336 61.4925C176.179 61.7486 175.945 61.9633 175.703 62.062L176.082 62.9876ZM172.677 62.8399C173.173 62.9735 173.801 63.0872 174.401 63.1333C174.98 63.1778 175.614 63.1668 176.071 62.9918L175.714 62.0578C175.478 62.1483 175.035 62.1791 174.478 62.1363C173.942 62.0951 173.375 61.9923 172.938 61.8744L172.677 62.8399ZM170.857 61.84C171.343 62.2014 171.922 62.6382 172.678 62.8402L172.936 61.8741C172.392 61.7288 171.959 61.4135 171.453 61.0374L170.857 61.84ZM170.877 61.8546L170.877 61.8547L171.432 61.0227L171.432 61.0226L170.877 61.8546ZM170.877 61.8545L170.877 61.8546L171.432 61.0226L171.432 61.0225L170.877 61.8545ZM170.442 61.5389C170.578 61.633 170.713 61.7331 170.856 61.8398L171.453 61.0372C171.312 60.9323 171.163 60.822 171.011 60.7167L170.442 61.5389ZM143.21 61.8879C145.657 59.8337 150.541 58.3914 155.843 58.1593C161.133 57.9278 166.68 58.9088 170.44 61.5376L171.013 60.718C167 57.9126 161.2 56.9239 155.799 57.1603C150.41 57.3962 145.262 58.8596 142.567 61.1221L143.21 61.8879ZM125.771 68.3044C133.305 67.8375 139.006 65.414 143.21 61.8881L142.567 61.1219C138.543 64.4972 133.051 66.8513 125.709 67.3064L125.771 68.3044ZM102.737 62.5145C108.578 67.0543 116.318 68.8961 125.772 68.3044L125.709 67.3064C116.413 67.8882 108.941 66.0699 103.351 61.7249L102.737 62.5145ZM83.2786 58.5088C91.2391 57.5262 97.8329 58.7131 102.738 62.5149L103.35 61.7245C98.1623 57.7032 91.2674 56.5151 83.1561 57.5163L83.2786 58.5088ZM72.999 62.7117C75.6643 60.6631 78.835 59.0689 83.2799 58.5086L83.1549 57.5165C78.5116 58.1017 75.1771 59.7764 72.3896 61.9188L72.999 62.7117ZM56.0833 68.374C62.9909 67.8944 68.7148 66.0149 72.9996 62.7112L72.389 61.9193C68.3031 65.0697 62.7864 66.9062 56.014 67.3764L56.0833 68.374ZM34.3836 63.2261C39.7553 67.4241 47.3826 68.9794 56.0833 68.374L56.0139 67.3765C47.4472 67.9725 40.1029 66.4265 34.9994 62.4382L34.3836 63.2261ZM17.7961 58.1911C25.0044 57.9984 30.1273 59.9066 34.384 63.2264L34.999 62.4379C30.5502 58.9683 25.1978 56.9929 17.7694 57.1914L17.7961 58.1911ZM3.9515 62.4506C7.62793 59.9748 12.0802 58.3559 17.7972 58.191L17.7683 57.1914C11.8621 57.3618 7.22618 59.0398 3.39293 61.6211L3.9515 62.4506ZM0.975308 63.3835C1.91457 63.43 2.96853 63.1109 3.95102 62.4509L3.39341 61.6208C2.55322 62.1852 1.70854 62.4185 1.02469 62.3847L0.975308 63.3835ZM18.6643 54.9362L18.6701 54.9363L18.6767 53.9363L18.671 53.9363L18.6643 54.9362ZM18.6916 53.9363H18.6677V54.9363H18.6916V53.9363ZM18.6745 54.9363L18.6926 54.9363L18.6905 53.9363L18.6724 53.9363L18.6745 54.9363Z" fill="#DDDDDD" fill-opacity="0.6" mask="url(#path-5-outside-1_2525_9562)"/>
</g>
<rect x="1" y="0.5" width="175" height="100.998" rx="19.5" stroke="#25BE22" stroke-opacity="0.9"/>
<defs>
<filter id="filter0_d_2525_9562" x="63.5" y="11" width="50" height="49.998" filterUnits="userSpaceOnUse" color-interpolation-filters="sRGB">
<feFlood flood-opacity="0" result="BackgroundImageFix"/>
<feColorMatrix in="SourceAlpha" type="matrix" values="0 0 0 0 0 0 0 0 0 0 0 0 0 0 0 0 0 0 127 0" result="hardAlpha"/>
<feOffset dy="1"/>
<feGaussianBlur stdDeviation="2.5"/>
<feComposite in2="hardAlpha" operator="out"/>
<feColorMatrix type="matrix" values="0 0 0 0 0.679167 0 0 0 0 0.679167 0 0 0 0 0.679167 0 0 0 0.3 0"/>
<feBlend mode="normal" in2="BackgroundImageFix" result="effect1_dropShadow_2525_9562"/>
<feBlend mode="normal" in="SourceGraphic" in2="effect1_dropShadow_2525_9562" result="shape"/>
</filter>
</defs>
</svg>
