<svg width="20" height="20" viewBox="0 0 20 20" fill="none" xmlns="http://www.w3.org/2000/svg">
<g id=" icon &#34;share&#34;">
<path id="Vector" d="M16.8425 13.3342C16.0157 13.335 15.2221 13.678 14.6323 14.2897L6.31757 10.3791C6.31757 10.2458 6.31757 10.1347 6.31757 10.0014C6.31757 9.86804 6.31757 9.75694 6.31757 9.63473L14.6323 5.71304C15.1531 6.25188 15.8345 6.58382 16.5609 6.65248C17.2872 6.72115 18.0137 6.52231 18.6169 6.08973C19.2201 5.65716 19.6629 5.01751 19.87 4.27945C20.0771 3.54138 20.0358 2.75039 19.7531 2.04082C19.4704 1.33126 18.9637 0.746859 18.3191 0.386887C17.6745 0.026915 16.9317 -0.0864373 16.2169 0.0660819C15.5021 0.218601 14.8594 0.627588 14.3978 1.22358C13.9363 1.81957 13.6844 2.56582 13.685 3.33559V3.71331L5.37033 7.62389C4.92655 7.16368 4.36387 6.8521 3.75292 6.72827C3.14197 6.60443 2.50998 6.67386 1.93628 6.92784C1.36258 7.18182 0.872742 7.60903 0.528259 8.15583C0.183777 8.70264 0 9.34468 0 10.0014C0 10.658 0.183777 11.3001 0.528259 11.8469C0.872742 12.3937 1.36258 12.8209 1.93628 13.0749C2.50998 13.3288 3.14197 13.3983 3.75292 13.2744C4.36387 13.1506 4.92655 12.839 5.37033 12.3788L13.685 16.3005V16.6671C13.685 17.3263 13.8702 17.9707 14.2172 18.5188C14.5641 19.0669 15.0572 19.494 15.6342 19.7463C16.2112 19.9986 16.846 20.0646 17.4585 19.936C18.071 19.8074 18.6336 19.4899 19.0752 19.0238C19.5168 18.5577 19.8175 17.9638 19.9393 17.3173C20.0612 16.6708 19.9986 16.0007 19.7596 15.3917C19.5207 14.7827 19.116 14.2621 18.5967 13.8959C18.0775 13.5297 17.467 13.3342 16.8425 13.3342Z" fill="#5E5E5E"/>
</g>
</svg>
