<svg width="35" height="35" viewBox="0 0 35 35" fill="none" xmlns="http://www.w3.org/2000/svg">
<path d="M34.9998 17.51C34.9998 27.1563 27.1353 35.0035 17.471 35C7.85066 34.9965 -0.029433 27.1031 8.26458e-05 17.477C0.030177 7.59286 8.1678 -0.12064 17.721 0.00142896C27.2088 0.12292 35.0125 7.90353 34.9998 17.51ZM11.62 23.01C11.9284 22.6201 11.9742 22.608 12.3428 22.763C15.7817 24.2087 19.2205 24.2087 22.6594 22.7636C23.0292 22.6085 23.0645 22.6172 23.366 22.9805C23.2838 23.032 23.2075 23.0893 23.1235 23.1298C22.6895 23.3386 22.2583 23.555 21.8162 23.7448C21.6223 23.8281 21.5876 23.9125 21.6969 24.0867C21.9985 24.5686 22.2977 25.0511 22.587 25.5405C22.6976 25.7279 22.822 25.7418 23.0182 25.6788C24.8042 25.1031 26.4542 24.262 27.9844 23.179C28.1667 23.0499 28.2581 22.9105 28.261 22.6837C28.2662 22.2892 28.3084 21.8952 28.3177 21.5001C28.4091 17.617 27.3026 14.0851 25.17 10.8604C25.0502 10.6793 24.858 10.4878 24.6607 10.4265C23.3637 10.0256 22.0569 9.65589 20.749 9.29142C20.6674 9.26885 20.5059 9.34869 20.4573 9.42795C20.3062 9.67324 20.183 9.93705 20.0666 10.2009C20.003 10.3449 19.9324 10.4074 19.7634 10.3843C18.2552 10.1725 16.7464 10.1789 15.2359 10.3733C15.1485 10.3843 15.0067 10.2998 14.9581 10.2194C14.8094 9.97234 14.6902 9.70738 14.5675 9.44588C14.5003 9.30299 14.4101 9.23646 14.2486 9.28274C12.9534 9.65762 11.6559 10.0238 10.3647 10.4126C10.194 10.4641 10.0093 10.5943 9.91038 10.7418C7.55029 14.2604 6.44606 18.1244 6.71054 22.3702C6.74006 22.8417 6.90673 23.1269 7.2997 23.3866C8.76506 24.3557 10.3126 25.1442 11.9892 25.6724C12.0905 25.7042 12.2803 25.7065 12.3197 25.6487C12.7063 25.0783 13.0697 24.4928 13.4494 23.8963C12.7989 23.5816 12.2143 23.2987 11.6194 23.0106L11.62 23.01Z" fill="#231F20"/>
<path d="M23.0373 18.0955C23.0165 18.9338 22.8272 19.4839 22.381 19.9311C21.5939 20.7203 20.4359 20.6809 19.7032 19.8403C19.0753 19.12 18.9705 17.9734 19.4561 17.1386C20.2212 15.8242 21.951 15.8109 22.7005 17.1345C22.8978 17.4834 22.9713 17.9022 23.0367 18.0961L23.0373 18.0955Z" fill="#231F20"/>
<path d="M15.8511 18.3107C15.8442 18.8788 15.6787 19.3925 15.3071 19.8299C14.5681 20.7 13.3307 20.7185 12.5633 19.8744C11.8422 19.0807 11.7739 17.8282 12.4042 16.9587C13.2271 15.8236 14.8163 15.8838 15.5103 17.1033C15.7134 17.4603 15.7921 17.8872 15.9281 18.2823C15.9021 18.2916 15.8766 18.3014 15.8511 18.3107Z" fill="#231F20"/>
</svg>
