<svg width="20" height="20" viewBox="0 0 20 20" fill="none" xmlns="http://www.w3.org/2000/svg">
<path d="M17.4993 5.00001H13.3327V3.60834C13.3131 3.07486 13.0829 2.57089 12.6923 2.20692C12.3018 1.84295 11.7829 1.64867 11.2493 1.66668H8.74935C8.21581 1.64867 7.6969 1.84295 7.30637 2.20692C6.91585 2.57089 6.68557 3.07486 6.66602 3.60834V5.00001H2.49935C2.27834 5.00001 2.06637 5.08781 1.91009 5.24409C1.75381 5.40037 1.66602 5.61233 1.66602 5.83334C1.66602 6.05436 1.75381 6.26632 1.91009 6.4226C2.06637 6.57888 2.27834 6.66668 2.49935 6.66668H3.33268V15.8333C3.33268 16.4964 3.59607 17.1323 4.06492 17.6011C4.53376 18.07 5.16964 18.3333 5.83268 18.3333H14.166C14.8291 18.3333 15.4649 18.07 15.9338 17.6011C16.4026 17.1323 16.666 16.4964 16.666 15.8333V6.66668H17.4993C17.7204 6.66668 17.9323 6.57888 18.0886 6.4226C18.2449 6.26632 18.3327 6.05436 18.3327 5.83334C18.3327 5.61233 18.2449 5.40037 18.0886 5.24409C17.9323 5.08781 17.7204 5.00001 17.4993 5.00001ZM8.33268 3.60834C8.33268 3.47501 8.50768 3.33334 8.74935 3.33334H11.2493C11.491 3.33334 11.666 3.47501 11.666 3.60834V5.00001H8.33268V3.60834Z" fill="#888888"/>
</svg>
