<svg width="25" height="26" viewBox="0 0 25 26" fill="none" xmlns="http://www.w3.org/2000/svg">
<path d="M0 13C0 6.09476 5.59476 0.5 12.5 0.5C19.4052 0.5 25 6.09476 25 13C25 19.9052 19.4052 25.5 12.5 25.5C5.59476 25.5 0 19.9052 0 13ZM7.2379 14.4567L10.8871 10.6512L10.8871 19.8548C10.8871 20.5252 11.4264 21.0645 12.0968 21.0645H12.9032C13.5736 21.0645 14.1129 20.5252 14.1129 19.8548L14.1129 10.6512L17.7621 14.4567C18.2308 14.9456 19.0121 14.9556 19.4909 14.4768L20.0403 13.9224C20.5141 13.4486 20.5141 12.6825 20.0403 12.2137L13.3569 5.5252C12.8831 5.05141 12.1169 5.05141 11.6482 5.5252L4.95968 12.2137C4.48589 12.6875 4.48589 13.4536 4.95968 13.9224L5.50907 14.4768C5.9879 14.9556 6.76915 14.9456 7.2379 14.4567Z" fill="#888888" fill-opacity="0.6"/>
</svg>
