<svg width="13" height="13" viewBox="0 0 13 13" fill="none" xmlns="http://www.w3.org/2000/svg">
<g id="question mark">
<circle id="Ellipse 36" cx="6.5" cy="6.5" r="6.5" fill="#5E5E5E"/>
<path id="?" d="M6.19436 8.25778V7.74963C6.19436 7.36938 6.24629 7.06173 6.35015 6.82667C6.45401 6.58469 6.5821 6.38765 6.73442 6.23556C6.89367 6.08346 7.04946 5.94864 7.20178 5.83111C7.36103 5.70667 7.49258 5.57877 7.59644 5.44741C7.7003 5.30914 7.75223 5.13284 7.75223 4.91852C7.75223 4.66272 7.7003 4.4484 7.59644 4.27556C7.49951 4.10272 7.35064 3.97136 7.14985 3.88148C6.94906 3.7916 6.69634 3.74667 6.39169 3.74667C6.05242 3.74667 5.76162 3.80198 5.51929 3.91259C5.28388 4.02321 5.11078 4.12 5 4.20296V3.39407C5 3.39407 5.05885 3.36296 5.17656 3.30074C5.29426 3.2316 5.46044 3.16593 5.67507 3.1037C5.89664 3.03457 6.15282 3 6.44362 3C6.60979 3 6.80712 3.0242 7.03561 3.07259C7.27102 3.11407 7.49951 3.20049 7.72107 3.33185C7.94263 3.46321 8.12611 3.65679 8.27151 3.91259C8.42384 4.16148 8.5 4.49679 8.5 4.91852C8.5 5.22272 8.44807 5.46815 8.34421 5.65481C8.24036 5.83457 8.1088 5.99012 7.94956 6.12148C7.79723 6.25284 7.64144 6.38765 7.4822 6.52593C7.32987 6.6642 7.20178 6.83012 7.09792 7.0237C6.99407 7.21728 6.94214 7.47654 6.94214 7.80148V8.25778H6.19436ZM6.15282 10V9.17037H6.98368V10H6.15282Z" fill="white" stroke="white" stroke-width="0.4"/>
</g>
</svg>
