<svg width="35" height="36" viewBox="0 0 35 36" fill="none" xmlns="http://www.w3.org/2000/svg">
<g>
<rect y="0.5" width="35" height="35" rx="17.5" fill="#586AE4"/>
<path d="M26.4589 11.4384C26.4589 11.4384 23.9546 9.47561 20.9915 9.25L20.7283 9.78395C23.4056 10.4382 24.6314 11.3783 25.9174 12.5289C23.7064 11.4008 21.518 10.3405 17.7126 10.3405C13.9073 10.3405 11.7189 11.4008 9.50787 12.5289C10.7939 11.3783 12.2528 10.3329 14.697 9.78395L14.4337 9.25C11.3278 9.5433 8.9664 11.4384 8.9664 11.4384C8.9664 11.4384 6.16881 15.4995 5.6875 23.4711C8.50765 26.7274 12.7943 26.75 12.7943 26.75L13.6892 25.5543C12.1701 25.0278 10.4479 24.0803 8.9664 22.3731C10.7337 23.7118 13.411 25.1105 17.7202 25.1105C22.0294 25.1105 24.6991 23.7193 26.4739 22.3731C24.9924 24.0803 23.2702 25.0278 21.7511 25.5543L22.646 26.75C22.646 26.75 26.9327 26.7274 29.7528 23.4711C29.2565 15.4995 26.4589 11.4384 26.4589 11.4384ZM14.148 21.2827C13.0876 21.2827 12.2303 20.305 12.2303 19.0942C12.2303 17.8834 13.0876 16.9058 14.148 16.9058C15.2083 16.9058 16.0657 17.8834 16.0657 19.0942C16.0657 20.305 15.2083 21.2827 14.148 21.2827ZM21.2623 21.2827C20.2019 21.2827 19.3446 20.305 19.3446 19.0942C19.3446 17.8834 20.2019 16.9058 21.2623 16.9058C22.3227 16.9058 23.18 17.8834 23.18 19.0942C23.18 20.305 22.3151 21.2827 21.2623 21.2827Z" fill="white"/>
</g>
</svg>
