<svg width="19" height="15" viewBox="0 0 19 15" fill="none" xmlns="http://www.w3.org/2000/svg">
<path id="telegram" d="M0.253237 6.22884L18.5263 0.423442C18.8007 0.335941 19.0626 0.587431 18.9867 0.865112L15.7897 12.5619C15.7331 12.7685 15.5111 12.8816 15.3108 12.8057L8.85509 10.364C8.60122 10.2679 8.53842 9.9372 8.73961 9.75506L13.8039 5.16633C14.1152 4.88449 13.7792 4.38686 13.4013 4.57079L4.92351 8.69404C4.83065 8.73928 4.72321 8.74255 4.62767 8.70356L0.226154 6.91129C-0.0884319 6.78301 -0.0705746 6.33152 0.253237 6.22884ZM10.4108 7.21784C10.5697 7.07974 10.3932 6.83093 10.2102 6.9351L6.17024 9.14136C5.80596 9.34881 5.63482 9.78155 5.75864 10.1821L7.00656 14.3837C7.06995 14.5965 7.33722 14.6652 7.49525 14.5093L9.98605 12.1515C10.0878 12.0509 10.0554 11.8792 9.92384 11.8232L7.3393 10.5351C7.19734 10.4643 7.16936 10.2741 7.28454 10.1655L10.4108 7.21784Z" fill="#5E5E5E"/>
</svg>
