<svg width="12" height="15" viewBox="0 0 12 15" fill="none" xmlns="http://www.w3.org/2000/svg">
<path d="M10.5002 13.096H0.702908C0.517308 13.096 0.339309 13.1699 0.20807 13.3016C0.0768311 13.4332 0.00310165 13.6118 0.00310165 13.798C0.00310165 13.9842 0.0768311 14.1627 0.20807 14.2944C0.339309 14.426 0.517308 14.5 0.702908 14.5H10.5002C10.6858 14.5 10.8638 14.426 10.995 14.2944C11.1263 14.1627 11.2 13.9842 11.2 13.798C11.2 13.6118 11.1263 13.4332 10.995 13.3016C10.8638 13.1699 10.6858 13.096 10.5002 13.096Z" fill="#5E5E5E"/>
<path d="M0.702747 11.6919H0.76573L3.68392 11.4251C4.00359 11.3931 4.30257 11.2518 4.53069 11.0249L10.8289 4.7067C11.0734 4.44763 11.2055 4.10191 11.1963 3.74531C11.1871 3.3887 11.0374 3.05028 10.78 2.80422L8.86249 0.880667C8.61223 0.644854 8.2843 0.509547 7.94107 0.500486C7.59785 0.491425 7.26328 0.609242 7.001 0.831525L0.702747 7.14975C0.476546 7.37859 0.335702 7.67852 0.303858 7.9992L0.00294125 10.9266C-0.00648586 11.0295 0.00681421 11.1331 0.0418933 11.2302C0.0769724 11.3273 0.132967 11.4154 0.205885 11.4883C0.271275 11.5533 0.348825 11.6048 0.434087 11.6397C0.51935 11.6747 0.610648 11.6924 0.702747 11.6919ZM7.88976 1.8635L9.80023 3.78003L8.40062 5.14898L6.52513 3.26755L7.88976 1.8635ZM1.66148 8.11855L5.60139 4.19423L7.49087 6.08969L3.57195 10.021L1.47253 10.2176L1.66148 8.11855Z" fill="#5E5E5E"/>
</svg>
