<svg width="28" height="20" viewBox="0 0 28 20" fill="none" xmlns="http://www.w3.org/2000/svg">
<path d="M27.8125 9.28898C26.9169 7.70375 21.9908 -0.250972 13.6222 0.00609254C5.88323 0.206032 1.40501 7.14677 0.18749 9.28898C0.0646632 9.50608 0 9.75236 0 10.003C0 10.2537 0.0646632 10.5 0.18749 10.7171C1.06914 12.2738 5.78527 20 14.028 20H14.3779C22.1168 19.8001 26.609 12.8593 27.8125 10.7171C27.9353 10.5 28 10.2537 28 10.003C28 9.75236 27.9353 9.50608 27.8125 9.28898ZM14.3079 17.1437C8.27628 17.2865 4.34384 12.0167 3.11233 10.003C4.51177 7.70375 8.16432 3.00518 13.7621 2.86237C19.7657 2.70527 23.7121 7.98937 24.9576 10.003C23.5162 12.3023 19.9057 17.0009 14.3079 17.1437Z" fill="currentColor"/>
<path d="M14.0001 5.00442C13.0314 5.00442 12.0844 5.29757 11.2789 5.84681C10.4734 6.39605 9.84563 7.17671 9.47491 8.09006C9.10418 9.00341 9.00719 10.0084 9.19618 10.9781C9.38517 11.9477 9.85167 12.8383 10.5367 13.5374C11.2217 14.2364 12.0944 14.7125 13.0446 14.9053C13.9947 15.0982 14.9795 14.9992 15.8745 14.6209C16.7695 14.2426 17.5345 13.6019 18.0727 12.7799C18.6109 11.9579 18.8982 10.9915 18.8982 10.0029C18.8982 8.67722 18.3821 7.40583 17.4636 6.46844C16.545 5.53104 15.2992 5.00442 14.0001 5.00442ZM14.0001 12.1451C13.5849 12.1451 13.1791 12.0195 12.8339 11.7841C12.4887 11.5487 12.2196 11.2141 12.0607 10.8227C11.9019 10.4312 11.8603 10.0005 11.9413 9.58497C12.0223 9.16943 12.2222 8.78772 12.5158 8.48813C12.8094 8.18853 13.1834 7.98451 13.5906 7.90185C13.9978 7.8192 14.4199 7.86162 14.8034 8.02376C15.187 8.18589 15.5149 8.46047 15.7455 8.81275C15.9762 9.16504 16.0993 9.57921 16.0993 10.0029C16.0993 10.571 15.8781 11.1159 15.4845 11.5177C15.0908 11.9194 14.5569 12.1451 14.0001 12.1451Z" fill="currentColor"/>
</svg>
