<svg width="51" height="51" viewBox="0 0 51 51" fill="none" xmlns="http://www.w3.org/2000/svg">
<circle cx="25.5" cy="25.5" r="25" fill="white"/>
<circle cx="25.5" cy="25.5" r="25" fill="#DDDDDD" fill-opacity="0.6"/>
<circle cx="25.5" cy="25.5" r="25" stroke="#231F20"/>
<path d="M25.498 36.125C19.637 36.125 14.873 31.361 14.873 25.5C14.873 19.639 19.637 14.875 25.498 14.875C31.3591 14.875 36.123 19.639 36.123 25.5C36.123 31.361 31.3591 36.125 25.498 36.125ZM25.498 16.3576C20.4573 16.3576 16.3556 20.4593 16.3556 25.5C16.3556 30.5407 20.4573 34.6424 25.498 34.6424C30.5387 34.6424 34.6405 30.5407 34.6405 25.5C34.6405 20.4593 30.5387 16.3576 25.498 16.3576Z" fill="#231F20"/>
<path d="M25.498 29.7006C25.0928 29.7006 24.7568 29.3645 24.7568 28.9593V23.0291C24.7568 22.6238 25.0928 22.2878 25.498 22.2878C25.9033 22.2878 26.2393 22.6238 26.2393 23.0291V28.9593C26.2393 29.3645 25.9033 29.7006 25.498 29.7006Z" fill="#231F20"/>
<path d="M28.4632 25.7471C28.2754 25.7471 28.0876 25.6779 27.9393 25.5296L25.498 23.0884L23.0568 25.5296C22.7701 25.8163 22.2957 25.8163 22.0091 25.5296C21.8712 25.3902 21.7939 25.2019 21.7939 25.0058C21.7939 24.8097 21.8712 24.6215 22.0091 24.482L24.9742 21.5169C25.2608 21.2302 25.7353 21.2302 26.0219 21.5169L28.987 24.482C29.2736 24.7686 29.2736 25.243 28.987 25.5296C28.8387 25.6779 28.651 25.7471 28.4632 25.7471Z" fill="#231F20"/>
</svg>
