<svg width="16" height="16" viewBox="0 0 16 16" fill="none" xmlns="http://www.w3.org/2000/svg">
<circle cx="8" cy="8" r="8" fill="#A99CDA"/>
<g clip-path="url(#clip0_1897_3296)">
<path d="M8 2C4.68625 2 2 4.68625 2 8C2 11.3137 4.68625 14 8 14C11.3137 14 14 11.3137 14 8C14 4.68625 11.3137 2 8 2ZM8 13.364C5.03757 13.364 2.63597 10.9625 2.63597 8C2.63597 5.03749 5.03749 2.63597 8 2.63597C10.9625 2.63597 13.364 5.03749 13.364 8C13.364 10.9625 10.9625 13.364 8 13.364Z" fill="white"/>
<path d="M7.9999 13.0002C8.1551 13.0002 8.24739 12.8791 8.2915 12.8069C8.34397 12.721 8.38751 12.6074 8.42525 12.4797C8.50161 12.2213 8.56785 11.8573 8.62262 11.4191C8.73252 10.54 8.7999 9.33128 8.7999 8.0002C8.7999 6.66911 8.73252 5.46043 8.62262 4.58128C8.56785 4.1431 8.50161 3.77909 8.42525 3.52072C8.38751 3.39303 8.34397 3.27935 8.2915 3.19346C8.24739 3.12125 8.1551 3.0002 7.9999 3.0002C7.8447 3.0002 7.75241 3.12125 7.70831 3.19346C7.65584 3.27935 7.61229 3.39303 7.57456 3.52072C7.4982 3.77909 7.43195 4.1431 7.37718 4.58128C7.26729 5.46043 7.1999 6.66911 7.1999 8.0002C7.1999 9.33128 7.26729 10.54 7.37718 11.4191C7.43195 11.8573 7.4982 12.2213 7.57456 12.4797C7.61229 12.6074 7.65584 12.721 7.70831 12.8069C7.75241 12.8791 7.8447 13.0002 7.9999 13.0002Z" stroke="white" stroke-width="0.4"/>
<path d="M11.5353 11.5361C11.6451 11.4264 11.6247 11.2755 11.6048 11.1933C11.5812 11.0955 11.5316 10.9843 11.468 10.8673C11.3393 10.6306 11.1287 10.3264 10.8576 9.97782C10.3137 9.27846 9.50668 8.37615 8.56546 7.43492C7.62424 6.4937 6.72192 5.68669 6.02256 5.14274C5.674 4.87163 5.36976 4.66108 5.13307 4.53238C5.0161 4.46877 4.90492 4.41918 4.80708 4.39554C4.72484 4.37568 4.57398 4.35533 4.46424 4.46508C4.35449 4.57482 4.37484 4.72568 4.39471 4.80792C4.41834 4.90576 4.46793 5.01693 4.53154 5.13391C4.66024 5.3706 4.8708 5.67483 5.1419 6.0234C5.68585 6.72276 6.49287 7.62507 7.43409 8.5663C8.37531 9.50752 9.27762 10.3145 9.97699 10.8585C10.3255 11.1296 10.6298 11.3401 10.8665 11.4688C10.9835 11.5325 11.0946 11.582 11.1925 11.6057C11.2747 11.6255 11.4256 11.6459 11.5353 11.5361Z" stroke="white" stroke-width="0.4"/>
<path d="M13 8.0001C13 7.8449 12.8789 7.75261 12.8067 7.7085C12.7208 7.65603 12.6071 7.61249 12.4794 7.57475C12.2211 7.49839 11.857 7.43215 11.4189 7.37738C10.5397 7.26748 9.33104 7.2001 7.99995 7.2001C6.66886 7.2001 5.46018 7.26748 4.58103 7.37738C4.14286 7.43215 3.77885 7.49839 3.52048 7.57475C3.39279 7.61249 3.2791 7.65603 3.19321 7.7085C3.12101 7.75261 2.99995 7.8449 2.99995 8.0001C2.99995 8.1553 3.12101 8.24759 3.19321 8.29169C3.2791 8.34416 3.39279 8.38771 3.52048 8.42544C3.77885 8.5018 4.14286 8.56805 4.58103 8.62282C5.46018 8.73271 6.66886 8.8001 7.99995 8.8001C9.33104 8.8001 10.5397 8.73271 11.4189 8.62282C11.857 8.56805 12.2211 8.5018 12.4794 8.42544C12.6071 8.38771 12.7208 8.34416 12.8067 8.29169C12.8789 8.24759 13 8.1553 13 8.0001Z" stroke="white" stroke-width="0.4"/>
<path d="M4.46459 11.5356C4.57433 11.6453 4.72519 11.625 4.80743 11.6051C4.90527 11.5815 5.01645 11.5319 5.13342 11.4683C5.37011 11.3395 5.67435 11.129 6.02291 10.8579C6.72227 10.3139 7.62459 9.50692 8.56581 8.5657C9.50703 7.62448 10.314 6.72217 10.858 6.02281C11.1291 5.67424 11.3397 5.37 11.4684 5.13332C11.532 5.01634 11.5816 4.90517 11.6052 4.80733C11.6251 4.72509 11.6454 4.57423 11.5357 4.46448C11.4259 4.35474 11.2751 4.37508 11.1928 4.39495C11.095 4.41858 10.9838 4.46818 10.8668 4.53178C10.6301 4.66049 10.3259 4.87104 9.97733 5.14215C9.27797 5.68609 8.37566 6.49311 7.43444 7.43433C6.49321 8.37555 5.6862 9.27787 5.14225 9.97723C4.87115 10.3258 4.66059 10.63 4.53189 10.8667C4.46828 10.9837 4.41869 11.0949 4.39505 11.1927C4.37519 11.2749 4.35484 11.4258 4.46459 11.5356Z" stroke="white" stroke-width="0.4"/>
</g>
<defs>
<clipPath id="clip0_1897_3296">
<rect width="12" height="12" fill="white" transform="translate(2 2)"/>
</clipPath>
</defs>
</svg>
