<svg width="35" height="36" viewBox="0 0 35 36" fill="none" xmlns="http://www.w3.org/2000/svg">
<rect y="0.5" width="35" height="35" rx="17.5" fill="#5E5E5E"/>
<path d="M28.875 18.4375C28.875 17.0012 28.5921 15.5789 28.0424 14.2519C27.4928 12.9249 26.6871 11.7192 25.6715 10.7035C24.6558 9.68788 23.4501 8.88223 22.1231 8.33257C20.7961 7.78291 19.3738 7.5 17.9375 7.5C15.0367 7.5 12.2547 8.65234 10.2035 10.7035C8.15234 12.7547 7 15.5367 7 18.4375C7 21.3383 8.15234 24.1203 10.2035 26.1715C12.2547 28.2227 15.0367 29.375 17.9375 29.375C20.8383 29.375 23.6203 28.2227 25.6715 26.1715C27.7227 24.1203 28.875 21.3383 28.875 18.4375ZM26.6109 17.3438H23.4062C23.2259 14.7714 22.3445 12.2976 20.8578 10.1906C22.3852 10.7331 23.7319 11.6891 24.7477 12.9522C25.7636 14.2152 26.4086 15.7356 26.6109 17.3438ZM14.7438 19.5312H21.2188C20.9388 22.2335 19.7871 24.7711 17.9375 26.7609C16.0891 24.7795 14.9638 22.232 14.7438 19.5312ZM14.7438 17.3438C14.9985 14.6551 16.1192 12.1219 17.9375 10.125C19.802 12.1004 20.9564 14.64 21.2188 17.3438H14.7438ZM15.1375 10.1578C13.6429 12.2764 12.7474 14.7589 12.5453 17.3438H9.26406C9.47068 15.7157 10.131 14.1786 11.1696 12.9079C12.2081 11.6372 13.5831 10.6843 15.1375 10.1578ZM9.26406 19.5312H12.5453C12.7254 22.1139 13.6149 24.5967 15.1156 26.7062C13.5668 26.1772 12.1975 25.2244 11.1631 23.9561C10.1287 22.6878 9.4708 21.1548 9.26406 19.5312ZM20.8031 26.6953C22.2998 24.5851 23.1992 22.11 23.4062 19.5312H26.6328C26.426 21.1503 25.7704 22.6792 24.7402 23.9451C23.7101 25.2111 22.3463 26.1637 20.8031 26.6953Z" fill="white"/>
</svg>
