<svg width="20" height="21" viewBox="0 0 20 21" fill="none" xmlns="http://www.w3.org/2000/svg">
<g id="add more">
<path id="Vector" d="M10.8687 8.38206C9.3781 8.0954 7.91859 9.02594 7.5637 10.4901C7.43949 10.9973 7.45723 11.5265 7.61693 12.0248C7.65686 12.1439 7.62137 12.2674 7.53708 12.3512L1.89427 17.9653C1.48614 18.371 1.48614 19.0369 1.89427 19.4427L2.00074 19.5485C2.40886 19.9542 3.07873 19.9542 3.48686 19.5485L9.13411 13.9388C9.2317 13.8418 9.36922 13.8198 9.48456 13.8683C9.97698 14.0182 10.5049 14.0358 11.0062 13.9168C12.479 13.564 13.415 12.113 13.1311 10.6312L11.4498 12.2983C11.3611 12.3865 11.2324 12.4129 11.1215 12.3776L9.71968 12.0028C9.59991 11.9719 9.51562 11.8793 9.489 11.769L9.10749 10.3622C9.07644 10.2475 9.11193 10.1285 9.19178 10.0535L10.8687 8.38206ZM2.90572 6.97522L3.26948 6.98845C4.10348 2.85175 8.50861 0.439405 12.479 1.96972C14.6571 2.81206 16.2675 4.704 16.7288 6.98845L17.0926 6.97522C16.4449 3.60588 13.4727 1.14944 9.99916 1.14944C6.52563 1.14944 3.5534 3.60588 2.90572 6.97522ZM3.89498 7.16927C4.36965 7.3986 4.72455 7.83079 4.72455 8.36V12.2277C4.72455 13.0568 3.88611 13.6081 3.04324 13.6081H2.45766C-0.749692 13.6081 -0.816235 7.26188 2.24916 6.98404C3.09204 2.13731 8.21582 -0.751331 12.8427 1.03036C15.4113 2.02264 17.2789 4.27622 17.7536 6.98404C20.7613 7.25306 20.748 13.3787 17.7181 13.5992C17.5318 15.081 16.7599 16.5188 15.6242 17.4978C14.4664 18.4945 12.9714 19.0193 11.4454 18.9752C10.8642 19.7823 9.69306 19.8837 8.98771 19.1781C7.97183 18.1681 8.69492 16.435 10.1322 16.435C10.7533 16.435 11.3078 16.7878 11.5784 17.3258C13.8719 17.3567 15.8105 15.65 16.0545 13.3831C15.6109 13.1494 15.2826 12.7304 15.2826 12.2233V8.3556C15.2826 7.82638 15.6375 7.39419 16.1078 7.16486C15.3802 3.39419 11.3655 1.1759 7.75446 2.5695C5.76261 3.33686 4.29424 5.07446 3.89498 7.16927ZM3.0388 7.6191H2.45766C0.0443832 7.6191 0.0443832 12.9598 2.45766 12.9598H3.04324C3.52678 12.9598 4.07687 12.6731 4.07687 12.2233V8.3556C4.07243 7.89253 3.50904 7.6191 3.0388 7.6191ZM17.7403 12.9465C19.9495 12.6555 19.883 7.6191 17.5407 7.6191C17.2301 7.6191 16.8353 7.59264 16.5558 7.67643C16.2409 7.77346 15.9215 8.02043 15.9215 8.3556V12.2233C15.9215 12.4085 16.0235 12.5717 16.1654 12.6952C16.5115 12.0557 17.6161 12.1748 17.7403 12.9465ZM16.7111 13.145L16.7067 13.3082C16.4937 16.0866 14.0361 18.177 11.2235 17.9565C10.9884 17.9388 10.9574 18.3004 11.1969 18.3137C13.4682 18.4769 15.571 17.2861 16.5514 15.2486C16.8752 14.5783 17.0882 13.8462 17.1103 13.1009C17.1192 12.8672 16.7288 12.8539 16.72 13.0833C16.7155 13.1097 16.7111 13.1274 16.7111 13.145ZM10.842 17.4008C10.252 16.7525 9.15629 17.167 9.15629 18.0447C9.15629 18.8473 10.0879 19.2927 10.7178 18.8032C10.2165 18.4372 10.2831 17.6742 10.842 17.4008ZM9.61321 7.76023C10.2698 7.62351 10.9574 7.67643 11.5873 7.91899C11.8357 8.00278 11.8801 8.29385 11.716 8.45262L9.78179 10.3754L10.0657 11.425L11.1215 11.7073L13.0557 9.78448C13.2154 9.62571 13.4993 9.67864 13.5836 9.89473C14.351 11.8484 13.211 14.0403 11.1526 14.5386C10.5936 14.6753 10.008 14.6665 9.45351 14.5254L3.94378 20.0072C3.28279 20.6643 2.2048 20.6643 1.54381 20.0072L1.43734 19.9013C0.776352 19.2442 0.776352 18.1726 1.43734 17.5154L6.94707 12.0381C6.45022 10.1152 7.65686 8.17037 9.61321 7.76023Z" fill="white"/>
</g>
</svg>
