<svg width="15" height="15" viewBox="0 0 15 15" fill="none" xmlns="http://www.w3.org/2000/svg">
<g id="new icon">
<path d="M5.84943 3.65591C5.53347 3.47897 5.24095 3.26364 4.97844 3.01554C4.44965 2.51467 4.02869 1.87336 3.72773 1.11035L3.28989 0L2.85205 1.11128C2.5511 1.8743 2.13013 2.5156 1.60135 3.01648C1.3379 3.26551 1.04538 3.48084 0.731296 3.65685L0 4.06691L0.731296 4.47697C1.04538 4.65298 1.33883 4.86831 1.60135 5.11734C2.13013 5.61821 2.5511 6.25858 2.85205 7.02253L3.28989 8.13382L3.72773 7.02253C4.02869 6.25952 4.44965 5.61821 4.97844 5.11734C5.24189 4.86831 5.53441 4.65298 5.84943 4.47603L6.58166 4.06597L5.84943 3.65591Z" fill="currentColor"/>
<path d="M13.5374 8.52047C13.2158 8.34072 12.9186 8.12164 12.6524 7.8698C12.1095 7.35582 11.6754 6.69392 11.3641 5.90376L10.4885 3.68119L9.61279 5.90376C9.30152 6.69392 8.86743 7.35582 8.32458 7.8698C8.05738 8.12258 7.76017 8.34166 7.44046 8.52047L5.97787 9.34059L7.44046 10.1598C7.76017 10.3386 8.05738 10.5577 8.32458 10.8104C8.86743 11.3244 9.30152 11.9863 9.61279 12.7774L10.4885 15L11.3641 12.7774C11.6754 11.9863 12.1095 11.3254 12.6524 10.8104C12.9196 10.5577 13.2177 10.3386 13.5365 10.1588L15 9.33872L13.5365 8.51954L13.5374 8.52047Z" fill="currentColor"/>
</g>
</svg>
