<svg width="18" height="18" viewBox="0 0 18 18" fill="none" xmlns="http://www.w3.org/2000/svg">
<rect width="18" height="18" rx="9" fill="white"/>
<rect width="18" height="18" rx="9" fill="#D8D7D7"/>
<path d="M13.1931 13.0348C13.5131 13.4176 13.2409 14 12.7419 14C12.5677 14 12.4025 13.9228 12.2907 13.7891L4.9139 4.96524C4.59383 4.58239 4.86605 4 5.36506 4C5.53926 4 5.7045 4.07723 5.81623 4.21088L13.1931 13.0348ZM9.22073 8.57173C9.01767 8.34896 9.01035 8.01046 9.20358 7.77912L12.1795 4.21614C12.2939 4.07917 12.4632 4 12.6417 4C13.1525 4 13.4313 4.59592 13.104 4.98803L10.1291 8.55193C9.89492 8.8325 9.46694 8.84183 9.22073 8.57173ZM8.77606 9.06375C9.09497 9.25469 9.16801 9.68529 8.92991 9.97072L5.74939 13.7833C5.63484 13.9206 5.46526 14 5.28645 14C4.77543 14 4.49616 13.4041 4.82314 13.0114L8.00004 9.19576C8.19087 8.96657 8.5202 8.91055 8.77606 9.06375Z" fill="#5E5E5E"/>
</svg>
