<svg width="12" height="15" viewBox="0 0 12 15" fill="none" xmlns="http://www.w3.org/2000/svg">
<path d="M11.1494 13.6498C11.1498 13.6739 11.15 13.6981 11.15 13.7222C11.15 13.6749 11.1714 13.6485 11.1778 13.6427C11.1791 13.6415 11.1793 13.6415 11.1782 13.6422C11.1772 13.6428 11.1751 13.6439 11.1718 13.6451C11.1661 13.6473 11.1584 13.6492 11.1494 13.6498ZM11.1494 13.6498C11.1287 12.4848 10.6102 11.3537 9.67145 10.5019C8.71056 9.62997 7.39108 9.12778 6 9.12778C4.60892 9.12778 3.28944 9.62997 2.32855 10.5019C1.38985 11.3537 0.871305 12.4848 0.850643 13.6498M11.1494 13.6498C11.1473 13.6499 11.1451 13.65 11.1429 13.65H0.857143C0.854907 13.65 0.852738 13.6499 0.850643 13.6498M0.850643 13.6498C0.850214 13.6739 0.85 13.6981 0.85 13.7222C0.85 13.6749 0.828568 13.6485 0.822243 13.6427C0.821494 13.642 0.821094 13.6417 0.821095 13.6417C0.821098 13.6417 0.823247 13.6433 0.828183 13.6451C0.833907 13.6473 0.841583 13.6492 0.850643 13.6498ZM7.46412 5.47107C7.03709 5.72998 6.52735 5.87222 6 5.87222C5.2909 5.87222 4.62548 5.61586 4.14682 5.18152C3.67091 4.74968 3.42143 4.18267 3.42143 3.61111C3.42143 3.18338 3.56075 2.75735 3.8337 2.38668C4.10757 2.01476 4.50585 1.71332 4.987 1.53248C5.46843 1.35152 6.00221 1.30319 6.5179 1.39626C7.03348 1.48932 7.4969 1.71742 7.85317 2.0407C8.2086 2.36322 8.4398 2.76371 8.53241 3.18617C8.6248 3.60766 8.57835 4.0456 8.39434 4.44871C8.20968 4.85323 7.89059 5.2125 7.46412 5.47107Z" stroke="#5E5E5E" stroke-width="1.7"/>
</svg>
