<svg width="15" height="16" viewBox="0 0 15 16" fill="none" xmlns="http://www.w3.org/2000/svg">
<path id="link icon" d="M11.0244 0.5C10.6861 0.518857 10.3477 0.556571 10.0282 0.669713C9.52068 0.858283 9.03196 1.14114 8.61842 1.55599C8.49944 1.63166 8.39893 1.73319 8.32434 1.85308C8.24974 1.97297 8.20297 2.10815 8.18747 2.24862C8.17198 2.38909 8.18816 2.53126 8.23482 2.66461C8.28148 2.79796 8.35743 2.91908 8.45705 3.01901C8.55666 3.11895 8.6774 3.19514 8.81032 3.24195C8.94325 3.28876 9.08497 3.30499 9.22499 3.28945C9.36501 3.2739 9.49976 3.22698 9.61927 3.15215C9.73878 3.07731 9.83999 2.97649 9.91541 2.85712C10.1222 2.6497 10.3665 2.53655 10.6297 2.44227C11.2876 2.21599 12.0959 2.31027 12.6222 2.85712C13.3553 3.59254 13.3553 4.81825 12.6222 5.57253L9.80263 8.40107C8.97556 9.23078 8.29887 9.30621 7.81015 9.28735C7.32143 9.2685 7.03947 9.04221 7.03947 9.04221C6.93086 8.9803 6.81116 8.94046 6.6872 8.92496C6.56324 8.90946 6.43745 8.91861 6.31701 8.95188C6.19657 8.98515 6.08385 9.04189 5.98527 9.11886C5.88669 9.19584 5.80419 9.29154 5.74248 9.40049C5.68077 9.50945 5.64106 9.62954 5.62561 9.75389C5.61016 9.87825 5.61927 10.0044 5.65244 10.1253C5.6856 10.2461 5.74216 10.3592 5.81889 10.4581C5.89562 10.557 5.99101 10.6397 6.09962 10.7016C6.09962 10.7016 6.73872 11.1165 7.67857 11.173C8.61842 11.2296 9.93421 10.8713 11.0808 9.70221L13.9004 6.87366C15.3665 5.40281 15.3665 3.02684 13.9004 1.57485C13.3741 1.04685 12.7538 0.726284 12.0771 0.575428C11.7387 0.5 11.3628 0.5 11.0244 0.518857V0.5ZM7.26504 4.85596C6.32519 4.81825 5.0282 5.13882 3.91917 6.27024L1.09962 9.09878C-0.366541 10.5696 -0.366541 12.9456 1.09962 14.3976C2.15226 15.4536 3.65602 15.7553 4.9718 15.2839C5.47932 15.0953 5.96805 14.8124 6.38158 14.3976C6.50056 14.3219 6.60107 14.2204 6.67566 14.1005C6.75026 13.9806 6.79703 13.8454 6.81253 13.705C6.82802 13.5645 6.81184 13.4223 6.76518 13.289C6.71852 13.1556 6.64257 13.0345 6.54295 12.9346C6.44334 12.8346 6.3226 12.7584 6.18968 12.7116C6.05675 12.6648 5.91504 12.6486 5.77501 12.6641C5.63499 12.6797 5.50024 12.7266 5.38073 12.8014C5.26122 12.8763 5.16001 12.9771 5.08459 13.0965C4.87782 13.3039 4.63346 13.417 4.3703 13.5113C3.71241 13.7376 2.90414 13.6433 2.37782 13.0965C1.64474 12.361 1.64474 11.1353 2.37782 10.3811L5.19737 7.55251C5.94925 6.79823 6.60714 6.70395 7.13346 6.7228C7.65977 6.74166 8.01692 6.89252 8.01692 6.89252C8.12705 6.97538 8.25398 7.03296 8.38873 7.06118C8.52349 7.08941 8.66278 7.08759 8.79676 7.05586C8.93074 7.02413 9.05614 6.96327 9.16408 6.87756C9.27203 6.79186 9.35989 6.68341 9.42145 6.55989C9.48302 6.43637 9.51678 6.30079 9.52036 6.16273C9.52394 6.02468 9.49724 5.88752 9.44215 5.76096C9.38707 5.6344 9.30494 5.52152 9.20158 5.4303C9.09822 5.33909 8.97614 5.27177 8.84399 5.2331C8.84399 5.2331 8.20489 4.85596 7.26504 4.81825V4.85596Z" fill="currentColor"/>
</svg>
