
<svg width="12" height="11" viewBox="0 0 12 11" fill="none" xmlns="http://www.w3.org/2000/svg">
<path id="comment" d="M2.99393 8.5875L2.99387 8.58747C2.8964 8.79478 2.78713 8.99492 2.66618 9.18677M2.99393 8.5875L2.4542 9.05424M2.99393 8.5875L2.99622 8.58232C3.08295 8.38645 3.04576 8.14597 2.88804 7.99063L2.88801 7.9906C2.13186 7.24606 1.71878 6.27518 1.71878 5.25697C1.71878 3.07627 3.62337 1.27369 6.00009 1.27369C8.37683 1.27369 10.2814 3.07628 10.2814 5.25656C10.2814 7.43686 8.37754 9.23943 6.00009 9.23943C4.96648 9.23943 3.69765 9.4365 2.78858 9.5777L2.78083 9.5789L2.99393 8.5875ZM2.66618 9.18677C2.666 9.18705 2.66583 9.18733 2.66565 9.18761L2.4542 9.05424M2.66618 9.18677C2.66635 9.1865 2.66651 9.18623 2.66668 9.18596L2.4542 9.05424M2.66618 9.18677C2.57532 9.33339 2.48882 9.48335 2.40682 9.6364M2.4542 9.05424C2.3284 9.25718 2.21076 9.46625 2.10161 9.68081C2.19607 9.66778 2.29877 9.65271 2.40682 9.6364M2.40682 9.6364C2.52624 9.61838 2.6522 9.59886 2.7808 9.5789L2.81917 9.82594C2.62634 9.85586 2.43732 9.88516 2.26667 9.90991C2.31181 9.81771 2.35853 9.72652 2.40682 9.6364ZM4.15855 4.42141L3.97236 4.58823C4.0608 4.68694 4.18674 4.74796 4.32435 4.74796H6.43384V4.74804L6.44026 4.74788C6.72716 4.74051 6.91309 4.48894 6.91309 4.23636C6.91309 3.98378 6.72716 3.73222 6.44026 3.72485L6.44026 3.72476H6.43384H4.32435C4.03168 3.72476 3.83996 3.98031 3.83996 4.23636C3.83996 4.36318 3.88459 4.49068 3.9727 4.58862L4.15855 4.42141ZM4.15855 4.42141C4.11453 4.37248 4.08996 4.30575 4.08996 4.23636C4.08996 4.09185 4.19486 3.97476 4.32435 3.97476H6.43384C6.5613 3.97804 6.66309 4.0941 6.66309 4.23636C6.66309 4.37863 6.5613 4.49469 6.43384 4.49796H4.32435C4.26217 4.49796 4.20257 4.47053 4.15855 4.42141ZM9.69277 1.69684L9.69279 1.69682L9.6901 1.69435C8.65501 0.746174 7.3484 0.232459 6.00011 0.250468C4.65177 0.232244 3.34515 0.746194 2.31009 1.69435L2.31007 1.69433L2.30743 1.69682C1.30508 2.64213 0.75 3.90684 0.75 5.25635C0.75 6.43577 1.17737 7.55709 1.95804 8.4527C1.92515 8.50917 1.88959 8.56849 1.85114 8.6326C1.57551 9.07535 1.33812 9.54594 1.14225 10.0378L1.14216 10.038C1.08442 10.1834 1.09321 10.3497 1.16696 10.4879C1.24161 10.6278 1.38034 10.7312 1.54817 10.7462L1.55035 10.7463C1.58043 10.7487 1.61226 10.75 1.64594 10.75H1.65439L1.66281 10.7494C2.08583 10.7208 2.50745 10.6678 2.92562 10.5901C3.83151 10.4494 5.04196 10.2626 5.99828 10.2624C7.34718 10.2809 8.65443 9.7669 9.68991 8.81836L9.68993 8.81837L9.69257 8.81588C10.6949 7.87057 11.25 6.60586 11.25 5.25615C11.25 3.90642 10.6949 2.64213 9.69277 1.69684ZM8.16022 6.27737V6.27705C8.1599 6.02142 7.96846 5.76577 7.67584 5.76577H4.32416C4.03149 5.76577 3.83978 6.02131 3.83978 6.27737C3.83978 6.53342 4.03149 6.78897 4.32416 6.78897H7.67584C7.96862 6.78897 8.16022 6.53308 8.16022 6.27737Z" fill="#F4B658" stroke="#F4B658" stroke-width="0.5"/>
</svg>
