<svg width="16" height="17" viewBox="0 0 16 17" fill="none" xmlns="http://www.w3.org/2000/svg">
<path d="M4.21933 8.50418C4.14655 8.5014 4.07343 8.5 4 8.5C4.05122 8.5 4.12717 8.50159 4.21933 8.50418ZM4.21933 8.50418C4.35975 8.50953 4.49892 8.52001 4.63665 8.53543M4.21933 8.50418C4.41585 8.5097 4.68612 8.51977 4.94767 8.52871M4.63665 8.53543C7.40324 8.84524 9.58882 11.1504 9.71353 14.021M4.63665 8.53543C4.42122 8.53983 4.20877 8.54356 4 8.54632M4.63665 8.53543C4.73967 8.53333 4.84337 8.53108 4.94767 8.52871M4.94767 8.52871C5.55765 8.51487 6.18821 8.49703 6.82382 8.48203M4.94767 8.52871C5.25503 8.53922 5.55036 8.54817 5.69984 8.54632C6.10548 8.54132 6.47899 8.5201 6.82382 8.48203M6.82382 8.48203C9.66251 8.41502 12.6017 8.40449 14.2552 9.05792M6.82382 8.48203C9.74191 8.1598 10.6057 6.63012 11.5 3.5M15 8.5C15 12.366 11.866 15.5 8 15.5C4.13401 15.5 1 12.366 1 8.5C1 4.63401 4.13401 1.5 8 1.5C11.866 1.5 15 4.63401 15 8.5Z" stroke="#5E5E5E" stroke-width="1.5" stroke-linecap="round" stroke-linejoin="round"/>
</svg>
