<svg width="20" height="19" viewBox="0 0 20 19" fill="none" xmlns="http://www.w3.org/2000/svg">
<path id="metamask icon" d="M9.9855 15.0079H11.1165M11.1165 15.0079L11.4795 16.7154H8.5205L8.8835 15.0079M11.1165 15.0079L13.294 13.4919M11.1165 15.0079L11.3085 5.89188M11.1165 15.0079L13.7635 16.3099M19.079 13.3854L13.294 13.4919M19.079 13.3854L17.9265 9.37938M19.079 13.3854L18.033 17.6334L13.7635 16.3099M13.294 13.4919L13.7635 16.3099M13.294 13.4919L15.1939 10.0336M11.3085 5.89188L12.504 2.92489M11.3085 5.89188L13.849 8.17633M11.3085 5.89188L18.3105 0.619385M12.504 2.92489L18.3105 0.619385M12.504 2.92489L9.9854 2.92473M18.3105 0.619385L19.25 3.47988L18.396 6.85288M18.396 6.85288L18.4815 8.56038L17.9265 9.37938M18.396 6.85288L19.1432 6.72468M17.9265 9.37938L13.849 8.17633M13.7635 16.3099L11.4795 18.3804H9.9855M13.7635 16.3099L15.8235 13.4454M13.849 8.17633L15.1939 10.0336M19.1432 7.66398L18.4409 7.74923M11.2194 10.1218L15.1939 10.0336M10.0145 15.0079H8.8835M8.8835 15.0079L6.706 13.4919M8.8835 15.0079L8.6915 5.89188M8.8835 15.0079L6.2365 16.3099M0.921 13.3854L6.706 13.4919M0.921 13.3854L2.0735 9.37938M0.921 13.3854L1.967 17.6334L6.2365 16.3099M6.706 13.4919L6.2365 16.3099M6.706 13.4919L4.8061 10.0336M8.6915 5.89188L7.496 2.92489M8.6915 5.89188L6.151 8.17633M8.6915 5.89188L1.6895 0.619385M7.496 2.92489L1.6895 0.619385M7.496 2.92489L10.0146 2.92473M1.6895 0.619385L0.75 3.47988L1.604 6.85288M1.604 6.85288L1.5185 8.56038L2.0735 9.37938M1.604 6.85288L0.85675 6.72468M2.0735 9.37938L6.151 8.17633M6.2365 16.3099L8.5205 18.3804H10.0145M6.2365 16.3099L4.1765 13.4454M6.151 8.17633L4.8061 10.0336M0.85675 7.66398L1.5591 7.74923M8.78055 10.1218L4.8061 10.0336M11.725 12.3314L13.318 11.7389L12.181 11.1464L11.725 12.3314ZM8.275 12.3314L6.682 11.7389L7.819 11.1464L8.275 12.3314Z" stroke="black" stroke-linecap="round" stroke-linejoin="round"/>
</svg>
