<svg width="24" height="22" viewBox="0 0 24 22" fill="none" xmlns="http://www.w3.org/2000/svg">
<g id="creativce graph icon">
<path id="Ellipse 46" d="M14.6998 4.55168C14.6998 6.7934 12.8991 8.60337 10.6868 8.60337C8.47451 8.60337 6.67383 6.7934 6.67383 4.55168C6.67383 2.30997 8.47451 0.5 10.6868 0.5C12.8991 0.5 14.6998 2.30997 14.6998 4.55168Z" fill="currentColor" stroke="white"/>
<path id="Ellipse 48" d="M7.92807 17.8277C7.92807 19.8599 6.29577 21.5 4.29119 21.5C2.28661 21.5 0.654297 19.8599 0.654297 17.8277C0.654297 15.7954 2.28661 14.1553 4.29119 14.1553C6.29577 14.1553 7.92807 15.7954 7.92807 17.8277Z" fill="currentColor" stroke="white"/>
<path id="Ellipse 47" d="M23.3473 15.362C23.3473 17.7085 21.4625 19.6033 19.1463 19.6033C16.8302 19.6033 14.9453 17.7085 14.9453 15.362C14.9453 13.0155 16.8302 11.1207 19.1463 11.1207C21.4625 11.1207 23.3473 13.0155 23.3473 15.362Z" fill="currentColor" stroke="white"/>
<line id="Line 30" y1="-1.25" x2="13.2849" y2="-1.25" transform="matrix(0.636954 0.770902 -0.765523 0.643408 8.73047 5.02563)" stroke="currentColor" stroke-width="2.5"/>
<line id="Line 31" y1="-1.25" x2="13.9286" y2="-1.25" transform="matrix(-0.452316 0.891858 -0.888704 -0.458482 10.6953 4.55164)" stroke="currentColor" stroke-width="2.5"/>
</g>
</svg>
