<svg width="35" height="36" viewBox="0 0 35 36" fill="none" xmlns="http://www.w3.org/2000/svg">
<g>
<rect y="0.5" width="35" height="35" rx="17.5" fill="#417FFA"/>
<path d="M12.9682 27.433C14.7007 27.491 16.4272 27.201 18.0458 26.5804C19.6643 25.9597 21.142 25.0209 22.3916 23.8194C23.6411 22.618 24.6371 21.1782 25.3208 19.5852C26.0044 17.9922 26.3618 16.2784 26.3717 14.545C27.1657 13.5624 27.7553 12.4311 28.1058 11.2175C28.1319 11.1216 28.1298 11.0202 28.0997 10.9255C28.0696 10.8308 28.0127 10.7468 27.9359 10.6837C27.8592 10.6205 27.7658 10.5809 27.6671 10.5696C27.5683 10.5583 27.4684 10.5758 27.3794 10.62C26.964 10.8199 26.4964 10.8845 26.0423 10.8046C25.5883 10.7248 25.1708 10.5044 24.8486 10.1747C24.4373 9.72434 23.9398 9.36108 23.3855 9.10648C22.8313 8.85188 22.2315 8.71112 21.6219 8.69254C21.0122 8.67397 20.405 8.77796 19.8363 8.99834C19.2675 9.21873 18.7488 9.55104 18.3109 9.97557C17.7112 10.5563 17.272 11.2823 17.0359 12.083C16.7998 12.8836 16.7749 13.7318 16.9635 14.545C13.0385 14.7793 10.3437 12.9164 8.1879 10.3622C8.12314 10.2889 8.03842 10.236 7.94409 10.21C7.84976 10.184 7.7499 10.186 7.65671 10.2158C7.56352 10.2457 7.48103 10.302 7.41932 10.3779C7.3576 10.4538 7.31933 10.5461 7.30918 10.6434C6.89848 12.9216 7.19474 15.2708 8.15817 17.3757C9.12159 19.4806 10.706 21.2403 12.6987 22.4184C11.3626 23.9507 9.48633 24.9077 7.46149 25.0897C7.35301 25.1077 7.25287 25.1592 7.17508 25.2369C7.0973 25.3146 7.04576 25.4147 7.02768 25.5232C7.0096 25.6316 7.02589 25.743 7.07427 25.8418C7.12264 25.9405 7.20068 26.0217 7.29746 26.0739C9.05904 26.9542 10.9989 27.4192 12.9682 27.433Z" fill="white"/>
</g>
</svg>
