<svg width="10" height="12" viewBox="0 0 10 12" fill="none" xmlns="http://www.w3.org/2000/svg">
<path d="M9.00017 10.7965H0.602492C0.443407 10.7965 0.290837 10.8599 0.178346 10.9728C0.0658553 11.0856 0.00265856 11.2387 0.00265856 11.3983C0.00265856 11.5579 0.0658553 11.7109 0.178346 11.8238C0.290837 11.9366 0.443407 12 0.602492 12H9.00017C9.15925 12 9.31182 11.9366 9.42431 11.8238C9.5368 11.7109 9.6 11.5579 9.6 11.3983C9.6 11.2387 9.5368 11.0856 9.42431 10.9728C9.31182 10.8599 9.15925 10.7965 9.00017 10.7965Z" fill="#5E5E5E"/>
<path d="M0.602355 9.59302H0.65634L3.15765 9.36436C3.43165 9.33698 3.68792 9.21587 3.88345 9.02137L9.28195 3.60575C9.49148 3.38369 9.60472 3.08736 9.59685 2.78169C9.58898 2.47602 9.46064 2.18595 9.23996 1.97504L7.59642 0.326286C7.38191 0.12416 7.10083 0.00818333 6.80664 0.000416857C6.51244 -0.00734962 6.22567 0.0936362 6.00086 0.284164L0.602355 5.69979C0.408468 5.89593 0.287745 6.15302 0.26045 6.42789L0.00252107 8.93713C-0.00555931 9.02526 0.00584075 9.1141 0.0359086 9.19731C0.0659763 9.28052 0.113971 9.35605 0.176473 9.41851C0.232521 9.47428 0.298993 9.51841 0.372075 9.54835C0.445157 9.5783 0.523413 9.59347 0.602355 9.59302ZM6.76265 1.16872L8.4002 2.81145L7.20053 3.98484L5.59297 2.37219L6.76265 1.16872ZM1.42413 6.53018L4.80119 3.16648L6.42074 4.79117L3.06167 8.16089L1.26217 8.32937L1.42413 6.53018Z" fill="#5E5E5E"/>
</svg>
