<svg width="15" height="15" viewBox="0 0 14 15" fill="none" xmlns="http://www.w3.org/2000/svg">
<path d="M7.658 14.5H6.335C6.02311 14.5 5.72398 14.3761 5.50344 14.1556C5.2829 13.935 5.159 13.6359 5.159 13.324V12.561C5.15521 12.516 5.13872 12.4731 5.11145 12.4372C5.08419 12.4012 5.04727 12.3738 5.005 12.358C4.96217 12.3306 4.91237 12.316 4.8615 12.316C4.81063 12.316 4.76083 12.3306 4.718 12.358L4.2 12.918C4.09134 13.0274 3.96211 13.1143 3.81975 13.1735C3.67739 13.2328 3.5247 13.2633 3.3705 13.2633C3.2163 13.2633 3.06361 13.2328 2.92125 13.1735C2.77889 13.1143 2.64966 13.0274 2.541 12.918L1.582 11.98C1.47099 11.8716 1.38283 11.742 1.32272 11.5989C1.26261 11.4558 1.23176 11.3022 1.232 11.147C1.23245 10.8296 1.35824 10.5252 1.582 10.3L2.1 9.782C2.12501 9.74344 2.13832 9.69846 2.13832 9.6525C2.13832 9.60654 2.12501 9.56156 2.1 9.523C2.058 9.418 1.988 9.341 1.89 9.341H1.176C0.863463 9.33915 0.564358 9.2137 0.344014 8.99204C0.12367 8.77039 -5.47135e-06 8.47054 1.82216e-10 8.158V6.835C1.82216e-10 6.52311 0.1239 6.22398 0.344442 6.00344C0.564985 5.7829 0.864105 5.659 1.176 5.659H1.939C1.98395 5.65521 2.0269 5.63872 2.06284 5.61145C2.09879 5.58419 2.12624 5.54727 2.142 5.505C2.16944 5.46217 2.18403 5.41237 2.18403 5.3615C2.18403 5.31063 2.16944 5.26083 2.142 5.218L1.582 4.7C1.47258 4.59134 1.38574 4.46211 1.32648 4.31975C1.26721 4.17739 1.23671 4.0247 1.23671 3.8705C1.23671 3.7163 1.26721 3.56361 1.32648 3.42125C1.38574 3.27889 1.47258 3.14966 1.582 3.041L2.52 2.082C2.62738 1.97152 2.75577 1.88364 2.89763 1.82353C3.03949 1.76342 3.19194 1.7323 3.346 1.732C3.50437 1.73131 3.66132 1.76186 3.80787 1.82192C3.95441 1.88198 4.08767 1.97036 4.2 2.082L4.718 2.6C4.75656 2.62501 4.80154 2.63832 4.8475 2.63832C4.89346 2.63832 4.93844 2.62501 4.977 2.6C5.082 2.558 5.159 2.488 5.159 2.39V1.676C5.16085 1.36346 5.2863 1.06436 5.50796 0.844014C5.72961 0.62367 6.02946 0.499995 6.342 0.5H7.7C8.01189 0.5 8.31102 0.6239 8.53156 0.844442C8.7521 1.06499 8.876 1.36411 8.876 1.676V2.439C8.87979 2.48395 8.89628 2.5269 8.92355 2.56284C8.95081 2.59879 8.98773 2.62624 9.03 2.642C9.07283 2.66944 9.12263 2.68403 9.1735 2.68403C9.22437 2.68403 9.27417 2.66944 9.317 2.642L9.8 2.082C9.90866 1.97258 10.0379 1.88574 10.1803 1.82648C10.3226 1.76721 10.4753 1.73671 10.6295 1.73671C10.7837 1.73671 10.9364 1.76721 11.0787 1.82648C11.2211 1.88574 11.3503 1.97258 11.459 2.082L12.418 3.02C12.5287 3.12868 12.6166 3.2583 12.6767 3.40132C12.7368 3.54433 12.7678 3.69788 12.768 3.853C12.7714 4.01071 12.742 4.1674 12.6818 4.31318C12.6215 4.45897 12.5317 4.59068 12.418 4.7L11.9 5.218C11.875 5.25656 11.8617 5.30154 11.8617 5.3475C11.8617 5.39346 11.875 5.43844 11.9 5.477C11.942 5.582 12.012 5.659 12.11 5.659H12.873C13.1769 5.6734 13.4637 5.80437 13.6735 6.02468C13.8834 6.245 14.0003 6.53771 14 6.842V8.2C14 8.51189 13.8761 8.81102 13.6556 9.03156C13.435 9.2521 13.1359 9.376 12.824 9.376H12.061C12.016 9.37979 11.9731 9.39628 11.9372 9.42355C11.9012 9.45081 11.8738 9.48773 11.858 9.53C11.833 9.56856 11.8197 9.61354 11.8197 9.6595C11.8197 9.70546 11.833 9.75044 11.858 9.789L12.397 10.328C12.5064 10.4367 12.5933 10.5659 12.6525 10.7083C12.7118 10.8506 12.7423 11.0033 12.7423 11.1575C12.7423 11.3117 12.7118 11.4644 12.6525 11.6067C12.5933 11.7491 12.5064 11.8783 12.397 11.987L11.48 12.918C11.3726 13.0285 11.2442 13.1164 11.1024 13.1765C10.9605 13.2366 10.8081 13.2677 10.654 13.268C10.3414 13.2639 10.0427 13.1384 9.821 12.918L9.282 12.4C9.24344 12.375 9.19846 12.3617 9.1525 12.3617C9.10654 12.3617 9.06156 12.375 9.023 12.4C8.918 12.442 8.841 12.512 8.841 12.61V13.373C8.8266 13.6769 8.69563 13.9637 8.47531 14.1735C8.255 14.3834 7.96228 14.5003 7.658 14.5ZM6.559 13.1H7.441V12.561C7.44398 12.2382 7.54269 11.9235 7.72462 11.6569C7.90655 11.3902 8.16353 11.1835 8.463 11.063C8.7637 10.9316 9.09673 10.8927 9.41963 10.9513C9.74253 11.0098 10.0407 11.1633 10.276 11.392L10.654 11.77L11.27 11.154L10.892 10.769C10.6647 10.5372 10.5115 10.2431 10.4516 9.92407C10.3918 9.60501 10.4281 9.27537 10.556 8.977C10.6776 8.67883 10.8848 8.42334 11.1513 8.24271C11.4179 8.06209 11.732 7.96441 12.054 7.962H12.6V7.059H12.061C11.7382 7.05602 11.4235 6.95731 11.1569 6.77538C10.8902 6.59345 10.6835 6.33647 10.563 6.037C10.4316 5.7363 10.3927 5.40327 10.4513 5.08037C10.5098 4.75747 10.6633 4.45934 10.892 4.224L11.27 3.846L10.654 3.23L10.269 3.608C10.0336 3.82301 9.74168 3.96629 9.42759 4.02097C9.1135 4.07564 8.79033 4.03943 8.49613 3.9166C8.20193 3.79377 7.94895 3.58944 7.76698 3.32766C7.58501 3.06588 7.48162 2.75756 7.469 2.439V1.9H6.559V2.439C6.55602 2.7618 6.45731 3.07646 6.27538 3.34313C6.09345 3.6098 5.83647 3.81648 5.537 3.937C5.2363 4.06844 4.90327 4.10734 4.58037 4.04875C4.25747 3.99015 3.95934 3.83671 3.724 3.608L3.346 3.23L2.73 3.846L3.108 4.231C3.32301 4.46639 3.46629 4.75832 3.52097 5.07241C3.57564 5.3865 3.53943 5.70967 3.4166 6.00387C3.29377 6.29807 3.08944 6.55105 2.82766 6.73302C2.56588 6.91499 2.25756 7.01837 1.939 7.031H1.4V7.913H1.939C2.2618 7.91598 2.57646 8.01469 2.84313 8.19662C3.1098 8.37855 3.31648 8.63553 3.437 8.935C3.56844 9.2357 3.60734 9.56873 3.54875 9.89163C3.49015 10.2145 3.33671 10.5127 3.108 10.748L2.73 11.126L3.346 11.742L3.731 11.364C3.96639 11.149 4.25832 11.0057 4.57241 10.951C4.8865 10.8964 5.20967 10.9326 5.50387 11.0554C5.79807 11.1782 6.05105 11.3826 6.23302 11.6443C6.41499 11.9061 6.51837 12.2144 6.531 12.533L6.559 13.1Z" fill="#5E5E5E"/>
<path d="M7 9.95C6.51544 9.95 6.04175 9.80631 5.63885 9.5371C5.23595 9.26789 4.92193 8.88525 4.7365 8.43757C4.55106 7.9899 4.50254 7.49728 4.59708 7.02203C4.69161 6.54678 4.92495 6.11023 5.26759 5.76759C5.61023 5.42495 6.04678 5.19161 6.52203 5.09708C6.99728 5.00254 7.4899 5.05106 7.93757 5.2365C8.38525 5.42193 8.76789 5.73595 9.0371 6.13885C9.30631 6.54175 9.45 7.01544 9.45 7.5C9.45 8.14978 9.19188 8.77295 8.73241 9.23241C8.27295 9.69188 7.64978 9.95 7 9.95ZM7 6.45C6.79233 6.45 6.58932 6.51158 6.41665 6.62696C6.24398 6.74233 6.1094 6.90632 6.02993 7.09818C5.95046 7.29005 5.92966 7.50117 5.97018 7.70485C6.01069 7.90853 6.11069 8.09562 6.25754 8.24246C6.40438 8.38931 6.59148 8.48931 6.79516 8.52983C6.99884 8.57034 7.20996 8.54955 7.40182 8.47007C7.59368 8.3906 7.75767 8.25602 7.87304 8.08335C7.98842 7.91068 8.05 7.70767 8.05 7.5C8.05 7.22152 7.93938 6.95445 7.74246 6.75754C7.54555 6.56063 7.27848 6.45 7 6.45Z" fill="#5E5E5E"/>
</svg>
