<svg width="138" height="39" viewBox="0 0 138 39" fill="none" xmlns="http://www.w3.org/2000/svg">
<rect x="0.5" y="0.5" width="137" height="38" rx="19" fill="white"/>
<rect x="0.5" y="0.5" width="137" height="38" rx="19" fill="#935A8A" fill-opacity="0.15"/>
<path d="M22.8125 14.1657C22.8125 14.1657 20.0557 16.1924 20.0171 18.7922C19.9786 21.392 20.0171 25.7596 20.0171 25.7596M33.1875 14.1657C33.1875 14.1657 35.9443 16.1924 35.9829 18.7922C36.0214 21.392 35.9829 24.5512 35.9829 24.5512M28.007 19.6761V30.5M27.9754 11.2137V8.5M24.2085 11.4623L25.8254 12.7363M31.9704 11.4623L30.3535 12.7363M23.9314 15.8195L25.5483 14.5421M31.6898 15.8195L30.0729 14.5421M28.007 14.4454V17.3974M24.3102 19.6761V22.9975M31.7003 19.6761V26.5191" stroke="#231F20" stroke-width="1.5" stroke-miterlimit="10" stroke-linecap="round"/>
<path d="M47.9538 26V15.328H51.4898C52.4178 15.328 53.1378 15.4613 53.6498 15.728C54.1618 15.984 54.5191 16.3307 54.7218 16.768C54.9351 17.1947 55.0417 17.6693 55.0417 18.192C55.0417 18.6507 54.9724 19.008 54.8338 19.264C54.6951 19.52 54.5244 19.7333 54.3218 19.904C54.1298 20.064 53.9431 20.2293 53.7618 20.4L53.6338 20.192C53.9111 20.288 54.2098 20.448 54.5298 20.672C54.8498 20.8853 55.1218 21.1787 55.3458 21.552C55.5698 21.9253 55.6818 22.4 55.6818 22.976C55.6818 23.6907 55.5271 24.272 55.2178 24.72C54.9084 25.1573 54.4604 25.4827 53.8738 25.696C53.2978 25.8987 52.6098 26 51.8098 26H47.9538ZM49.1058 24.928H51.9058C52.3644 24.928 52.7911 24.88 53.1858 24.784C53.5911 24.688 53.9164 24.496 54.1618 24.208C54.4071 23.9093 54.5298 23.4773 54.5298 22.912C54.5298 22.4853 54.4498 22.1493 54.2898 21.904C54.1298 21.648 53.9164 21.4613 53.6498 21.344C53.3938 21.216 53.1058 21.136 52.7858 21.104C52.4764 21.0613 52.1671 21.04 51.8578 21.04H49.1058V24.928ZM49.1058 19.952H51.7458C52.0978 19.952 52.4338 19.92 52.7538 19.856C53.0844 19.7813 53.3564 19.6267 53.5698 19.392C53.7831 19.1467 53.8898 18.7733 53.8898 18.272C53.8898 17.5467 53.6871 17.0613 53.2818 16.816C52.8764 16.56 52.3164 16.432 51.6018 16.432H49.1058V19.952ZM57.9206 26V18.656C58.0486 18.6027 58.294 18.512 58.6566 18.384C59.03 18.256 59.4726 18.1387 59.9846 18.032C60.5073 17.9253 61.046 17.872 61.6006 17.872C61.686 17.872 61.7713 17.8827 61.8566 17.904C61.942 17.9253 62.0273 17.9467 62.1126 17.968V18.992C61.8353 18.96 61.5633 18.944 61.2966 18.944C61.0406 18.944 60.79 18.96 60.5446 18.992C60.2993 19.0133 60.054 19.0453 59.8086 19.088C59.5633 19.1307 59.318 19.1733 59.0726 19.216V26H57.9206ZM66.7039 26.24C66.3519 26.24 65.9945 26.2027 65.6319 26.128C65.2799 26.0533 64.9492 25.9253 64.6399 25.744C64.3412 25.5627 64.0959 25.3173 63.9039 25.008C63.7225 24.688 63.6319 24.288 63.6319 23.808C63.6319 23.1467 63.7545 22.6187 63.9999 22.224C64.2559 21.8187 64.6025 21.5307 65.0399 21.36C65.4879 21.1787 65.9999 21.088 66.5759 21.088C67.0132 21.088 67.3919 21.1147 67.7119 21.168C68.0319 21.2213 68.3145 21.3013 68.5599 21.408C68.8159 21.504 69.0452 21.616 69.2479 21.744L69.4719 22.8C69.2265 22.6187 68.8692 22.464 68.3999 22.336C67.9412 22.1973 67.4345 22.128 66.8799 22.128C66.2079 22.128 65.6905 22.256 65.3279 22.512C64.9652 22.768 64.7839 23.1413 64.7839 23.632C64.7839 24.0267 64.8905 24.3413 65.1039 24.576C65.3279 24.8107 65.6052 24.976 65.9359 25.072C66.2772 25.168 66.6239 25.216 66.9759 25.216C67.6692 25.216 68.1919 25.168 68.5439 25.072C68.9065 24.9653 69.0879 24.7307 69.0879 24.368V20.704C69.0879 20.0853 68.9065 19.632 68.5439 19.344C68.1812 19.056 67.6639 18.912 66.9919 18.912C66.5652 18.912 66.1119 18.976 65.6319 19.104C65.1625 19.2213 64.7572 19.4133 64.4159 19.68V18.528C64.7465 18.3147 65.1892 18.1547 65.7439 18.048C66.2985 17.9307 66.8372 17.872 67.3599 17.872C67.7119 17.872 68.0372 17.9093 68.3359 17.984C68.6345 18.048 68.9012 18.1493 69.1359 18.288C69.3705 18.416 69.5679 18.5867 69.7279 18.8C69.8985 19.0027 70.0265 19.2427 70.1119 19.52C70.2079 19.7867 70.2559 20.0907 70.2559 20.432V24.304C70.2559 24.8693 70.0852 25.2907 69.7439 25.568C69.4132 25.8453 68.9759 26.0267 68.4319 26.112C67.8985 26.1973 67.3225 26.24 66.7039 26.24ZM72.8113 18.656C73.0673 18.528 73.3286 18.416 73.5953 18.32C73.8726 18.2133 74.1499 18.128 74.4273 18.064C74.7153 18 75.0033 17.952 75.2913 17.92C75.5899 17.888 75.8886 17.872 76.1873 17.872C76.9659 17.872 77.5846 17.9893 78.0433 18.224C78.5019 18.448 78.8326 18.7787 79.0353 19.216C79.2486 19.6533 79.3553 20.1813 79.3553 20.8V26H78.2033V20.8C78.2033 20.608 78.1766 20.4053 78.1233 20.192C78.0806 19.9787 77.9899 19.776 77.8513 19.584C77.7126 19.3813 77.4993 19.2213 77.2113 19.104C76.9233 18.976 76.5393 18.912 76.0593 18.912C75.7286 18.912 75.3873 18.9387 75.0353 18.992C74.6833 19.0453 74.3259 19.1253 73.9633 19.232V26H72.8113V18.656ZM85.2646 26.128C84.838 26.128 84.4006 26.0747 83.9526 25.968C83.5153 25.8507 83.11 25.648 82.7366 25.36C82.374 25.0613 82.0806 24.64 81.8566 24.096C81.6326 23.552 81.5206 22.8533 81.5206 22C81.5206 21.1467 81.6326 20.4533 81.8566 19.92C82.0806 19.376 82.374 18.9547 82.7366 18.656C83.11 18.3573 83.5153 18.1547 83.9526 18.048C84.4006 17.9307 84.838 17.872 85.2646 17.872C85.67 17.872 86.07 17.9093 86.4646 17.984C86.87 18.0587 87.2593 18.1707 87.6326 18.32V19.424C87.2806 19.2747 86.918 19.1627 86.5446 19.088C86.1713 19.0133 85.7873 18.976 85.3926 18.976C84.4433 18.976 83.75 19.216 83.3126 19.696C82.886 20.176 82.6726 20.944 82.6726 22C82.6726 23.0667 82.886 23.84 83.3126 24.32C83.75 24.7893 84.4433 25.024 85.3926 25.024C85.7873 25.024 86.1713 24.9867 86.5446 24.912C86.918 24.8373 87.2806 24.7253 87.6326 24.576V25.696C87.2593 25.8347 86.87 25.9413 86.4646 26.016C86.07 26.0907 85.67 26.128 85.2646 26.128ZM89.7956 26V14.48H90.9476V18.912L90.8196 18.608C91.225 18.384 91.6516 18.208 92.0996 18.08C92.5476 17.9413 92.969 17.872 93.3636 17.872C94.025 17.872 94.5796 17.9947 95.0276 18.24C95.4863 18.4853 95.833 18.8587 96.0676 19.36C96.313 19.8507 96.4356 20.4853 96.4356 21.264V26H95.2836V21.264C95.2836 20.5173 95.113 19.9413 94.7716 19.536C94.4303 19.1307 93.9183 18.928 93.2356 18.928C92.8623 18.928 92.4836 18.9813 92.0996 19.088C91.7263 19.1947 91.3423 19.3547 90.9476 19.568V26H89.7956ZM103.719 26V15.328H104.871V26H103.719ZM110.026 26.128C109.461 26.128 108.986 25.9573 108.602 25.616C108.218 25.264 108.026 24.7467 108.026 24.064V19.072H106.634V18.016H108.026V15.76H109.178V18.016H111.242V19.072H109.178V23.696C109.178 24.144 109.248 24.48 109.386 24.704C109.525 24.928 109.808 25.04 110.234 25.04C110.426 25.04 110.613 25.024 110.794 24.992C110.976 24.9493 111.125 24.9013 111.242 24.848V25.936C111.093 25.9893 110.901 26.032 110.666 26.064C110.442 26.1067 110.229 26.128 110.026 26.128ZM114.591 23.312L114.479 15.328H115.631L115.519 23.312H114.591ZM114.415 26V24.72H115.695V26H114.415Z" fill="#231F20"/>
<rect x="0.5" y="0.5" width="137" height="38" rx="19" stroke="#935A8A"/>
</svg>
