<svg width="31" height="30" viewBox="0 0 31 30" fill="none" xmlns="http://www.w3.org/2000/svg">
<path d="M18.5242 14.9979L29.2654 4.2817C29.7357 3.81133 30 3.17337 30 2.50816C30 1.84296 29.7357 1.205 29.2654 0.734624C28.795 0.264252 28.157 0 27.4918 0C26.8266 0 26.1887 0.264252 25.7183 0.734624L15.0021 11.4758L4.28596 0.734624C3.81559 0.264252 3.17763 -4.95617e-09 2.51243 0C1.84722 4.95617e-09 1.20926 0.264252 0.738887 0.734624C0.268515 1.205 0.00426299 1.84296 0.00426299 2.50816C0.00426298 3.17337 0.268515 3.81133 0.738887 4.2817L11.48 14.9979L0.738887 25.714C0.504759 25.9463 0.318927 26.2225 0.19211 26.5269C0.0652924 26.8313 0 27.1578 0 27.4876C0 27.8173 0.0652924 28.1438 0.19211 28.4482C0.318927 28.7526 0.504759 29.0289 0.738887 29.2611C0.971103 29.4952 1.24738 29.6811 1.55177 29.8079C1.85617 29.9347 2.18267 30 2.51243 30C2.84218 30 3.16868 29.9347 3.47308 29.8079C3.77747 29.6811 4.05375 29.4952 4.28596 29.2611L15.0021 18.52L25.7183 29.2611C25.9505 29.4952 26.2268 29.6811 26.5312 29.8079C26.8356 29.9347 27.1621 30 27.4918 30C27.8216 30 28.1481 29.9347 28.4525 29.8079C28.7569 29.6811 29.0332 29.4952 29.2654 29.2611C29.4995 29.0289 29.6853 28.7526 29.8122 28.4482C29.939 28.1438 30.0043 27.8173 30.0043 27.4876C30.0043 27.1578 29.939 26.8313 29.8122 26.5269C29.6853 26.2225 29.4995 25.9463 29.2654 25.714L18.5242 14.9979Z" stroke="currentColor"/>
</svg>
