<svg width="21" height="21" viewBox="0 0 21 21" fill="none" xmlns="http://www.w3.org/2000/svg">
<g id="google icon">
<path d="M20.3055 8.5415H19.5V8.5H10.5V12.5H16.1515C15.327 14.8285 13.1115 16.5 10.5 16.5C7.1865 16.5 4.5 13.8135 4.5 10.5C4.5 7.1865 7.1865 4.5 10.5 4.5C12.0295 4.5 13.421 5.077 14.4805 6.0195L17.309 3.191C15.523 1.5265 13.134 0.5 10.5 0.5C4.9775 0.5 0.5 4.9775 0.5 10.5C0.5 16.0225 4.9775 20.5 10.5 20.5C16.0225 20.5 20.5 16.0225 20.5 10.5C20.5 9.8295 20.431 9.175 20.3055 8.5415Z" fill="#FFC107"/>
<path d="M1.653 5.8455L4.9385 8.255C5.8275 6.054 7.9805 4.5 10.5 4.5C12.0295 4.5 13.421 5.077 14.4805 6.0195L17.309 3.191C15.523 1.5265 13.134 0.5 10.5 0.5C6.659 0.5 3.328 2.6685 1.653 5.8455Z" fill="#FF3D00"/>
<path d="M10.5 20.5C13.083 20.5 15.43 19.5115 17.2045 17.904L14.1095 15.285C13.1055 16.0455 11.8575 16.5 10.5 16.5C7.899 16.5 5.6905 14.8415 4.8585 12.527L1.5975 15.0395C3.2525 18.278 6.6135 20.5 10.5 20.5Z" fill="#4CAF50"/>
<path d="M20.3055 8.5415H19.5V8.5H10.5V12.5H16.1515C15.7555 13.6185 15.036 14.583 14.108 15.2855C14.1085 15.285 14.109 15.2855 14.1095 15.285L17.2045 17.904C16.9855 18.103 20.5 15.5 20.5 10.5C20.5 9.8295 20.431 9.175 20.3055 8.5415Z" fill="#1976D2"/>
</g>
</svg>
