<svg width="21" height="17" viewBox="0 0 21 17" fill="none" xmlns="http://www.w3.org/2000/svg">
<path id="email icon" d="M17.5 0.5H3.5C2.70435 0.5 1.94129 0.816071 1.37868 1.37868C0.816071 1.94129 0.5 2.70435 0.5 3.5V13.5C0.5 14.2956 0.816071 15.0587 1.37868 15.6213C1.94129 16.1839 2.70435 16.5 3.5 16.5H17.5C18.2956 16.5 19.0587 16.1839 19.6213 15.6213C20.1839 15.0587 20.5 14.2956 20.5 13.5V3.5C20.5 2.70435 20.1839 1.94129 19.6213 1.37868C19.0587 0.816071 18.2956 0.5 17.5 0.5ZM16.83 2.5L10.5 7.25L4.17 2.5H16.83ZM17.5 14.5H3.5C3.23478 14.5 2.98043 14.3946 2.79289 14.2071C2.60536 14.0196 2.5 13.7652 2.5 13.5V3.75L9.9 9.3C10.0731 9.42982 10.2836 9.5 10.5 9.5C10.7164 9.5 10.9269 9.42982 11.1 9.3L18.5 3.75V13.5C18.5 13.7652 18.3946 14.0196 18.2071 14.2071C18.0196 14.3946 17.7652 14.5 17.5 14.5Z" fill="#231F20"/>
</svg>
