<svg width="101" height="101" viewBox="0 0 101 101" fill="none" xmlns="http://www.w3.org/2000/svg">
<path d="M46.3023 6.48658C48.2726 3.4419 52.7274 3.4419 54.6977 6.48659L59.2168 13.4698C60.5027 15.4568 63.0056 16.2701 65.2138 15.4183L72.9744 12.4251C76.3581 11.12 79.962 13.7384 79.7664 17.3597L79.3178 25.6655C79.1902 28.0289 80.7371 30.158 83.0242 30.7669L91.0621 32.9069C94.5666 33.8399 95.9432 38.0766 93.6564 40.8914L88.4115 47.3472C86.9191 49.1841 86.919 51.8159 88.4115 53.6528L93.6564 60.1086C95.9432 62.9234 94.5666 67.1601 91.0621 68.0931L83.0242 70.2331C80.7371 70.842 79.1902 72.9711 79.3178 75.3345L79.7664 83.6403C79.962 87.2616 76.3581 89.88 72.9744 88.5749L65.2138 85.5817C63.0056 84.7299 60.5027 85.5432 59.2168 87.5302L54.6977 94.5134C52.7274 97.5581 48.2726 97.5581 46.3023 94.5134L41.7832 87.5302C40.4973 85.5432 37.9944 84.7299 35.7862 85.5817L28.0256 88.575C24.6419 89.88 21.038 87.2616 21.2336 83.6403L21.6822 75.3345C21.8098 72.9711 20.2629 70.842 17.9758 70.2331L9.93793 68.0931C6.43339 67.1601 5.05679 62.9234 7.3436 60.1086L12.5885 53.6528C14.081 51.8158 14.081 49.1841 12.5885 47.3472L7.34359 40.8914C5.05679 38.0766 6.43339 33.8399 9.93792 32.9069L17.9758 30.7669C20.2629 30.158 21.8098 28.0289 21.6822 25.6655L21.2336 17.3598C21.038 13.7384 24.6419 11.12 28.0256 12.4251L35.7862 15.4183C37.9944 16.27 40.4973 15.4568 41.7832 13.4698L46.3023 6.48658Z" fill="url(#paint0_linear_2978_20756)"/>
<path d="M60.3451 49.2315C62.7472 50.2536 64.6345 51.7443 66.0071 53.7034C67.4227 55.6199 68.1304 57.8771 68.1304 60.475C68.1304 64.6913 66.5862 68.0772 63.4978 70.6325C60.3665 73.2304 56.1844 74.5294 50.9513 74.5294C45.1176 74.5294 40.6566 73.124 37.5682 70.3131C34.5227 67.4596 33 63.4988 33 58.4307H41.4287C41.5574 64.308 44.6458 67.2467 50.6939 67.2467C53.3104 67.2467 55.3694 66.6078 56.8707 65.3302C58.372 64.0525 59.1226 62.3276 59.1226 60.1556C59.1226 57.8132 58.3505 56.0032 56.8063 54.7255C55.2621 53.4478 53.1174 52.809 50.3722 52.809H46.9621V46.4845H50.3078C55.6696 46.4845 58.3505 44.3763 58.3505 40.16C58.3505 38.2435 57.6642 36.7529 56.2916 35.6882C54.919 34.5809 53.0316 34.0272 50.6296 34.0272C45.4393 34.0272 42.7156 36.4335 42.4582 41.246H34.0938C34.1796 36.689 35.638 33.1754 38.469 30.7053C41.3429 28.2351 45.4179 27 50.6939 27C55.6267 27 59.5301 28.1286 62.404 30.3858C65.3208 32.6005 66.7793 35.6243 66.7793 39.4573C66.7793 43.8014 64.6345 47.0595 60.3451 49.2315Z" fill="white"/>
<defs>
<linearGradient id="paint0_linear_2978_20756" x1="-1.59302e-06" y1="64.9286" x2="111.444" y2="27.1092" gradientUnits="userSpaceOnUse">
<stop stop-color="#8042F2"/>
<stop offset="0.385417" stop-color="#367AB3"/>
<stop offset="0.8125" stop-color="#84CE9C"/>
</linearGradient>
</defs>
</svg>
