<svg width="35" height="36" viewBox="0 0 35 36" fill="none" xmlns="http://www.w3.org/2000/svg">
<g opacity="1">
<rect y="0.5" width="35" height="35" rx="17.5" fill="#231F20"/>
<path d="M17.8168 7.50059C14.7487 7.47006 11.7938 8.63354 9.60143 10.7353C7.40907 12.8371 6.15865 15.7052 6.125 18.7093C6.13682 21.0834 6.91679 23.3927 8.35289 25.3056C9.78898 27.2185 11.8073 28.6365 14.1179 29.356C14.7025 29.4601 14.9151 29.1166 14.9151 28.8148C14.9151 28.513 14.9151 27.8469 14.9151 26.9103C11.6627 27.5867 10.9718 25.4116 10.9718 25.4116C10.7553 24.7288 10.295 24.1451 9.67506 23.7673C8.61217 23.0804 9.76009 23.0908 9.76009 23.0908C10.1275 23.1389 10.479 23.2678 10.7882 23.4679C11.0975 23.6679 11.3565 23.9339 11.5457 24.246C11.8756 24.806 12.4168 25.2169 13.0529 25.3901C13.6891 25.5633 14.3692 25.4851 14.947 25.1722C15.0064 24.6023 15.27 24.0714 15.691 23.6736C13.0976 23.3926 10.3766 22.4351 10.3766 18.1369C10.3534 17.0157 10.7765 15.9296 11.5564 15.1083C11.2012 14.1457 11.2431 13.0855 11.6733 12.1527C11.6733 12.1527 12.6618 11.8509 14.862 13.2975C16.7772 12.7978 18.7927 12.7978 20.7079 13.2975C22.9399 11.8509 23.8966 12.1527 23.8966 12.1527C24.3267 13.0855 24.3687 14.1457 24.0135 15.1083C24.8115 15.9146 25.2575 16.9933 25.2571 18.1161C25.2571 22.4247 22.5148 23.3718 19.9426 23.6528C20.2242 23.9205 20.4418 24.246 20.5796 24.6059C20.7175 24.9658 20.7722 25.3512 20.7398 25.7342V28.8044C20.7398 28.8044 20.9523 29.4601 21.5369 29.3456C23.841 28.6217 25.8525 27.2033 27.2842 25.2931C28.7158 23.3829 29.4944 21.0786 29.5086 18.7093C29.475 15.7052 28.2246 12.8371 26.0322 10.7353C23.8398 8.63354 20.8849 7.47006 17.8168 7.50059Z" fill="white"/>
</g>
</svg>
