<svg width="50" height="60" viewBox="0 0 50 60" fill="none" xmlns="http://www.w3.org/2000/svg">
<path d="M24.7869 59.8577C21.5259 59.8298 18.3035 59.1445 15.3096 57.8423C12.3157 56.5402 9.61092 54.6475 7.3547 52.2759C2.77392 47.4356 0.246101 40.9879 0.307742 34.3012C0.369383 27.6145 3.01564 21.2152 7.68486 16.4615L23.004 0.998419C23.3026 0.674723 23.6659 0.418446 24.0699 0.246487C24.474 0.0745274 24.9096 -0.0092082 25.3481 0.000802603C25.7873 0.00695221 26.2208 0.101295 26.6233 0.278306C27.0258 0.455317 27.3892 0.711439 27.6922 1.03167L42.7473 16.7275C47.3325 21.5634 49.8662 28.0087 49.8107 34.6954C49.7552 41.3821 47.1149 47.7838 42.4502 52.5419C40.1527 54.9044 37.4019 56.7713 34.3653 58.029C31.3287 59.2868 28.0698 59.9089 24.7869 59.8577Z" fill="white"/>
<path d="M24.7947 59.3578L24.7912 59.3578C21.5974 59.3303 18.4414 58.6592 15.509 57.3838C12.5769 56.1085 9.92762 54.2548 7.7175 51.9318C3.22625 47.186 0.74727 40.8634 0.807721 34.3058C0.86817 27.7484 3.46313 21.4736 8.04079 16.8126C8.04105 16.8124 8.04131 16.8121 8.04157 16.8118L23.3592 1.35032L23.3655 1.34397L23.3716 1.3374C23.6222 1.06563 23.927 0.850694 24.2657 0.706555C24.6044 0.56242 24.9694 0.492287 25.3367 0.500692L25.3411 0.500754C25.7133 0.505965 26.0808 0.585907 26.4221 0.736002C26.7634 0.8861 27.0718 1.10339 27.3291 1.37533L27.3314 1.37778L42.3845 17.0715C42.3849 17.072 42.3854 17.0725 42.3858 17.0729C46.8807 21.8144 49.3651 28.1342 49.3107 34.6912C49.2563 41.249 46.6669 47.5266 42.0931 52.1919L42.0917 52.1933C39.8415 54.5072 37.1476 56.3355 34.174 57.5671C31.2004 58.7987 28.0093 59.4079 24.7947 59.3578Z" stroke="#DDDDDD" stroke-opacity="0.6"/>
</svg>
