<svg width="35" height="107" viewBox="0 0 35 107" fill="none" xmlns="http://www.w3.org/2000/svg">
<g id="expand icon" filter="url(#filter0_d_3208_18047)">
<g id="Rectangle 68">
<path d="M4.5 14C4.5 8.7533 8.7533 4.5 14 4.5H26.5V98.5H14C8.75329 98.5 4.5 94.2467 4.5 89V14Z" fill="white"/>
<path d="M4.5 14C4.5 8.7533 8.7533 4.5 14 4.5H26.5V98.5H14C8.75329 98.5 4.5 94.2467 4.5 89V14Z" fill="#DDDDDD" fill-opacity="0.6"/>
<path d="M4.5 14C4.5 8.7533 8.7533 4.5 14 4.5H26.5V98.5H14C8.75329 98.5 4.5 94.2467 4.5 89V14Z" stroke="white"/>
<path d="M4.5 14C4.5 8.7533 8.7533 4.5 14 4.5H26.5V98.5H14C8.75329 98.5 4.5 94.2467 4.5 89V14Z" stroke="#DDDDDD" stroke-opacity="0.6"/>
</g>
<path id="Polygon 3" d="M7 51.7284L18.25 41.5713V61.8855L7 51.7284Z" fill="#8C8C8C"/>
</g>
<defs>
<filter id="filter0_d_3208_18047" x="0" y="0" width="35" height="107" filterUnits="userSpaceOnUse" color-interpolation-filters="sRGB">
<feFlood flood-opacity="0" result="BackgroundImageFix"/>
<feColorMatrix in="SourceAlpha" type="matrix" values="0 0 0 0 0 0 0 0 0 0 0 0 0 0 0 0 0 0 127 0" result="hardAlpha"/>
<feOffset dx="2" dy="2"/>
<feGaussianBlur stdDeviation="3"/>
<feComposite in2="hardAlpha" operator="out"/>
<feColorMatrix type="matrix" values="0 0 0 0 0.4625 0 0 0 0 0.4625 0 0 0 0 0.4625 0 0 0 0.8 0"/>
<feBlend mode="normal" in2="BackgroundImageFix" result="effect1_dropShadow_3208_18047"/>
<feBlend mode="normal" in="SourceGraphic" in2="effect1_dropShadow_3208_18047" result="shape"/>
</filter>
</defs>
</svg>
