<svg width="21" height="21" viewBox="0 0 21 21" fill="none" xmlns="http://www.w3.org/2000/svg">
    <path fill-rule="evenodd" clip-rule="evenodd" d="M10.5.5c5.523 0 10 4.477 10 10s-4.477 10-10 10-10-4.477-10-10 4.477-10 10-10z" fill="url(#j4js9ouw0a)"/>
    <path d="M6.855 8.223c2.012-1.965 5.278-1.965 7.29 0l.242.238a.245.245 0 0 1 0 .355l-.828.809a.13.13 0 0 1-.184 0l-.332-.324a3.659 3.659 0 0 0-5.086 0l-.355.347a.13.13 0 0 1-.184 0L6.59 8.84a.245.245 0 0 1 0-.356l.265-.261zm9.004 1.672.739.718a.245.245 0 0 1 0 .356l-3.325 3.246a.262.262 0 0 1-.363 0l-2.36-2.305a.066.066 0 0 0-.09 0l-2.358 2.305a.262.262 0 0 1-.364 0l-3.336-3.246a.245.245 0 0 1 0-.356l.739-.718a.262.262 0 0 1 .363 0l2.36 2.304a.066.066 0 0 0 .09 0l2.359-2.304a.262.262 0 0 1 .363 0l2.36 2.304a.066.066 0 0 0 .089 0l2.36-2.304a.277.277 0 0 1 .374 0z" fill="#fff"/>
    <defs>
        <radialGradient id="j4js9ouw0a" cx="0" cy="0" r="1" gradientUnits="userSpaceOnUse" gradientTransform="matrix(20 0 0 20 .5 10.5)">
            <stop stop-color="#5D9DF6"/>
            <stop offset="1" stop-color="#006FFF"/>
        </radialGradient>
    </defs>
</svg>
