<svg width="24" height="22" viewBox="0 0 24 22" fill="none" xmlns="http://www.w3.org/2000/svg">
<path d="M20.2486 3.56618L20.2486 3.56616L20.2458 3.56388C17.9802 1.7108 15.1306 0.714956 12.2002 0.750965C9.26976 0.714539 6.42023 1.71082 4.15458 3.56388L4.15457 3.56386L4.15183 3.56616C1.96504 5.40756 0.75 7.87415 0.75 10.5127C0.75 12.8738 1.73102 15.1112 3.51314 16.8763C3.41241 17.0359 3.30062 17.2023 3.17812 17.3847C2.569 18.258 2.04399 19.187 1.61057 20.1588L1.61048 20.159C1.50825 20.3888 1.52484 20.6535 1.65346 20.8687C1.7823 21.0843 2.00792 21.2236 2.25781 21.2435L2.25976 21.2436C2.31751 21.2478 2.37977 21.25 2.44691 21.25H2.45445L2.46198 21.2495C3.3983 21.193 4.33144 21.0882 5.25684 20.9344C7.28023 20.6538 10.0229 20.275 12.1982 20.2748C15.1292 20.3112 17.9793 19.3149 20.2454 17.4615L20.2454 17.4616L20.2482 17.4593C22.435 15.6179 23.65 13.1513 23.65 10.5123C23.65 7.87331 22.4349 5.40755 20.2486 3.56618ZM5.1807 17.0787L5.18076 17.0787L5.18346 17.0733C5.33891 16.7598 5.26471 16.3814 5.00134 16.1497L5.00131 16.1497C3.25275 14.6125 2.30006 12.6099 2.30006 10.5139C2.30006 6.02349 6.69728 2.29738 12.2002 2.29738C17.7032 2.29738 22.1004 6.0235 22.1004 10.5131C22.1004 15.0028 17.7048 18.7289 12.2002 18.7289C9.91095 18.7289 7.08875 19.1202 5.04479 19.4037L5.04063 19.4042C5.04061 19.4042 5.0406 19.4043 5.04059 19.4043C4.53729 19.474 4.04817 19.5417 3.62282 19.5952C3.88079 19.1342 4.16089 18.6859 4.46222 18.2518C4.72714 17.8767 4.96676 17.485 5.1807 17.0787ZM13.1775 7.69959L13.1775 7.69953H13.1718H8.44654C8.01925 7.69953 7.67151 8.0448 7.67151 8.47273C7.67151 8.67746 7.75267 8.87493 7.89892 9.02013C8.04464 9.16521 8.24162 9.24592 8.44654 9.24592H13.1718V9.24599L13.1775 9.24586C13.5978 9.23622 13.9353 8.89414 13.9353 8.47273C13.9353 8.05131 13.5978 7.70923 13.1775 7.69959ZM16.7289 12.5547V12.5544C16.7283 12.1269 16.3809 11.7815 15.9539 11.7815H8.44613C8.01884 11.7815 7.6711 12.1268 7.6711 12.5547C7.6711 12.9827 8.01884 13.3279 8.44613 13.3279H15.9539C16.3813 13.3279 16.7289 12.9821 16.7289 12.5547Z" fill="currentColor" stroke="currentColor" stroke-width="0.5"/>
</svg>
