<svg width="50" height="50" viewBox="0 0 50 50" fill="none" xmlns="http://www.w3.org/2000/svg">
<path d="M36.0859 13.9993C35.6562 13.5383 35.0966 13.2171 34.4805 13.0777C33.8644 12.9383 33.2204 12.9872 32.6327 13.2181L19.416 18.5307C19.0275 18.6878 18.6745 18.9209 18.378 19.2161C18.0814 19.5113 17.8473 19.8627 17.6894 20.2494L12.1955 33.5622C12.0007 34.0858 11.9503 34.6519 12.0497 35.2015C12.149 35.7511 12.3945 36.2641 12.7606 36.6872H12.9176C13.1705 37.0476 13.497 37.3507 13.8757 37.5769C14.2544 37.8031 14.6767 37.9472 15.1151 37.9998C15.5233 38.0047 15.9285 37.9304 16.3081 37.781L29.5247 32.4684C29.9133 32.3113 30.2662 32.0782 30.5628 31.783C30.8593 31.4878 31.0935 31.1364 31.2514 30.7496L36.7452 17.4369C36.9925 16.8638 37.0618 16.2302 36.9443 15.6176C36.8268 15.005 36.5279 14.4414 36.0859 13.9993ZM16.3081 34.2676L20.5265 21.7746L33.5192 16.7774L28.0223 28.7707L16.3081 34.2676Z" fill="#231F20"/>
<path d="M14.4132 33.6278L14.0235 34.7818L14.0052 34.7557C13.9898 34.5969 14.0086 34.4362 14.0611 34.2845L14.7783 32.5466L14.4132 33.6278ZM26 25C26 25.5523 25.5523 26 25 26C24.4477 26 24 25.5523 24 25C24 24.4477 24.4477 24 25 24C25.5523 24 26 24.4477 26 25Z" stroke="#231F20" stroke-width="4"/>
<rect x="1.5" y="1.5" width="47" height="47" rx="23.5" stroke="#231F20" stroke-width="3"/>
</svg>
