<svg width="19" height="17" viewBox="0 0 19 17" fill="none" xmlns="http://www.w3.org/2000/svg">
<path id="comment" d="M4.52946 13.3815L4.5294 13.3815C4.3662 13.7082 4.18335 14.0233 3.98113 14.3252M4.52946 13.3815L3.77291 14.1868M4.52946 13.3815L4.53197 13.3762C4.65688 13.1107 4.59949 12.7881 4.38217 12.5866L4.38215 12.5866C3.06588 11.3668 2.3477 9.7768 2.3477 8.11115C2.3477 4.54323 5.66037 1.5879 9.80094 1.5879C13.9415 1.5879 17.2542 4.54324 17.2542 8.11049C17.2542 11.6778 13.9427 14.6331 9.80094 14.6331C8.05846 14.6331 5.91272 14.9467 4.36301 15.1733L4.35724 15.1741M4.52946 13.3815L4.35724 15.1741M3.98113 14.3252C3.98095 14.3254 3.98077 14.3257 3.9806 14.326L3.77291 14.1868M3.98113 14.3252C3.98132 14.3249 3.98151 14.3246 3.9817 14.3243L3.77291 14.1868M3.98113 14.3252C3.77068 14.6447 3.57389 14.9741 3.39133 15.3121M3.77291 14.1868C3.52541 14.5626 3.2965 14.9515 3.08702 15.352C3.18308 15.3399 3.28493 15.3265 3.39133 15.3121M3.39133 15.3121C3.68681 15.272 4.01746 15.2237 4.35724 15.1741M3.39133 15.3121C3.34284 15.4019 3.29535 15.4923 3.24887 15.5833C3.5887 15.5389 3.98604 15.481 4.39336 15.4215L4.35724 15.1741M6.67032 6.77425L6.48925 6.94663C6.6101 7.07357 6.77637 7.14674 6.95217 7.14674H10.5383V7.14681L10.5443 7.14667C10.9075 7.13788 11.178 6.83047 11.178 6.47818C11.178 6.1259 10.9075 5.81848 10.5443 5.8097L10.5444 5.80962H10.5383H6.95217C6.58253 5.80962 6.30371 6.12062 6.30371 6.47818C6.30371 6.65109 6.36863 6.82045 6.48961 6.947L6.67032 6.77425ZM6.67032 6.77425C6.59549 6.69598 6.55371 6.58921 6.55371 6.47818C6.55371 6.24696 6.73205 6.05962 6.95217 6.05962H10.5383C10.755 6.06486 10.928 6.25056 10.928 6.47818C10.928 6.7058 10.755 6.8915 10.5383 6.89674H6.95217C6.84648 6.89674 6.74515 6.85285 6.67032 6.77425ZM15.9528 2.51896L15.9529 2.51894L15.9501 2.51657C14.2202 1.02516 12.0425 0.221957 9.80096 0.250766C7.55937 0.22162 5.38161 1.02517 3.65176 2.51657L3.65174 2.51655L3.64905 2.51895C1.97793 4.00227 1.05078 5.98805 1.05078 8.11017C1.05078 9.99817 1.79066 11.7893 3.13737 13.207C3.06583 13.3254 2.98696 13.4492 2.90069 13.5846C2.43684 14.2857 2.03713 15.0313 1.7072 15.8111L1.70711 15.8113C1.6246 16.0069 1.63767 16.2314 1.7421 16.4157C1.84722 16.6011 2.03509 16.7265 2.24952 16.7445L2.25157 16.7447C2.29728 16.7482 2.3463 16.75 2.39888 16.75H2.40683L2.41476 16.7495C3.12756 16.7041 3.83795 16.6201 4.54248 16.4966C6.07926 16.272 8.15464 15.9701 9.79908 15.9699C12.0412 15.9991 14.2196 15.1955 15.9498 13.7038L15.9498 13.7038L15.9525 13.7014C17.6236 12.2181 18.5508 10.2323 18.5508 8.10984C18.5508 5.98738 17.6236 4.00226 15.9528 2.51896ZM1.95958 16.2924C2.02568 16.409 2.14166 16.4846 2.27043 16.4954L3.815 2.70592C2.19373 4.145 1.30078 6.06421 1.30078 8.11017C1.30078 9.9904 2.06122 11.7747 3.44928 13.1692C3.3508 13.3435 3.23684 13.5223 3.11173 13.7186L3.11037 13.7207C2.65455 14.4095 2.2617 15.1421 1.93744 15.9085C1.88506 16.0326 1.89348 16.1758 1.95958 16.2924ZM13.2982 9.74379V9.74345C13.2977 9.38634 13.0192 9.07523 12.6497 9.07523H6.95186C6.58222 9.07523 6.3034 9.38623 6.3034 9.74379C6.3034 10.1013 6.58222 10.4123 6.95186 10.4123H12.6497C13.0195 10.4123 13.2982 10.1009 13.2982 9.74379Z" fill="#A56D19" stroke="#A56D19" stroke-width="0.5"/>
</svg>
