<svg width="19" height="17" viewBox="0 0 19 17" fill="none" xmlns="http://www.w3.org/2000/svg">
<g id="twitter logo">
<path id="Vector" d="M5.35486 16.4938C6.91467 16.5433 8.46912 16.2959 9.92634 15.7662C11.3836 15.2366 12.714 14.4355 13.839 13.4102C14.964 12.3849 15.8607 11.1563 16.4762 9.79698C17.0917 8.43763 17.4134 6.97513 17.4224 5.49591C18.1373 4.65749 18.6681 3.69209 18.9836 2.65646C19.0072 2.57463 19.0053 2.4881 18.9782 2.40728C18.951 2.32646 18.8998 2.25479 18.8307 2.20091C18.7616 2.14703 18.6775 2.11323 18.5886 2.10359C18.4997 2.09395 18.4098 2.10887 18.3296 2.14656C17.9557 2.31718 17.5346 2.37229 17.1259 2.30413C16.7171 2.23597 16.3412 2.04798 16.0511 1.76663C15.6808 1.38228 15.2329 1.07229 14.7339 0.85503C14.2348 0.637768 13.6949 0.517654 13.146 0.501804C12.5971 0.485954 12.0504 0.574691 11.5384 0.762757C11.0263 0.950823 10.5593 1.23439 10.165 1.59666C9.62513 2.09222 9.2297 2.71174 9.01713 3.39499C8.80456 4.07825 8.7821 4.802 8.95193 5.49591C5.41815 5.69588 2.99198 4.10618 1.05104 1.9266C0.99273 1.86401 0.916454 1.81887 0.831526 1.79669C0.746598 1.77451 0.656694 1.77625 0.572793 1.8017C0.488891 1.82715 0.414623 1.8752 0.359058 1.93999C0.303493 2.00478 0.269036 2.08351 0.259895 2.16655C-0.109865 4.1106 0.156866 6.11534 1.02426 7.91152C1.89166 9.7077 3.31819 11.2093 5.11224 12.2146C3.90932 13.5222 2.22004 14.3389 0.397027 14.4942C0.29936 14.5095 0.209201 14.5535 0.139168 14.6198C0.0691357 14.6861 0.0227347 14.7715 0.00645906 14.8641C-0.0098166 14.9566 0.00484779 15.0517 0.0483998 15.136C0.0919519 15.2202 0.162212 15.2895 0.249347 15.334C1.83535 16.0853 3.58189 16.482 5.35486 16.4938Z" fill="#5E5E5E"/>
</g>
</svg>
