<svg width="15" height="15" viewBox="0 0 20 21" fill="none" xmlns="http://www.w3.org/2000/svg">
<path d="M10.94 20.5H9.05C8.60444 20.5 8.17712 20.323 7.86206 20.0079C7.547 19.6929 7.37 19.2656 7.37 18.82V17.73C7.36459 17.6658 7.34103 17.6044 7.30208 17.5531C7.26313 17.5017 7.21039 17.4625 7.15 17.44C7.08881 17.4008 7.01767 17.38 6.945 17.38C6.87233 17.38 6.80119 17.4008 6.74 17.44L6 18.24C5.84478 18.3963 5.66016 18.5204 5.45678 18.605C5.25341 18.6897 5.03529 18.7333 4.815 18.7333C4.59471 18.7333 4.37659 18.6897 4.17322 18.605C3.96984 18.5204 3.78522 18.3963 3.63 18.24L2.26 16.9C2.10142 16.7451 1.97547 16.56 1.8896 16.3556C1.80372 16.1512 1.75966 15.9317 1.76 15.71C1.76064 15.2565 1.94034 14.8217 2.26 14.5L3 13.76C3.03573 13.7049 3.05474 13.6407 3.05474 13.575C3.05474 13.5093 3.03573 13.4451 3 13.39C2.94 13.24 2.84 13.13 2.7 13.13H1.68C1.23352 13.1274 0.806226 12.9481 0.491449 12.6315C0.176672 12.3148 -7.81621e-06 11.8865 2.59345e-10 11.44V9.55C2.59345e-10 9.10444 0.177 8.67712 0.492061 8.36206C0.807122 8.047 1.23444 7.87 1.68 7.87H2.77C2.83422 7.86459 2.89558 7.84103 2.94692 7.80208C2.99827 7.76313 3.03748 7.71039 3.06 7.65C3.0992 7.58881 3.12004 7.51767 3.12004 7.445C3.12004 7.37233 3.0992 7.30119 3.06 7.24L2.26 6.5C2.10369 6.34478 1.97962 6.16016 1.89497 5.95678C1.81031 5.75341 1.76672 5.53529 1.76672 5.315C1.76672 5.09471 1.81031 4.87659 1.89497 4.67322C1.97962 4.46984 2.10369 4.28522 2.26 4.13L3.6 2.76C3.7534 2.60217 3.93682 2.47663 4.13947 2.39076C4.34212 2.30489 4.55991 2.26043 4.78 2.26C5.00625 2.25901 5.23046 2.30266 5.43981 2.38846C5.64916 2.47426 5.83952 2.60052 6 2.76L6.74 3.5C6.79509 3.53573 6.85934 3.55474 6.925 3.55474C6.99066 3.55474 7.05491 3.53573 7.11 3.5C7.26 3.44 7.37 3.34 7.37 3.2V2.18C7.37264 1.73352 7.55186 1.30623 7.86851 0.991449C8.18516 0.676672 8.61351 0.499992 9.06 0.5H11C11.4456 0.5 11.8729 0.677 12.1879 0.992061C12.503 1.30712 12.68 1.73444 12.68 2.18V3.27C12.6854 3.33422 12.709 3.39558 12.7479 3.44692C12.7869 3.49827 12.8396 3.53748 12.9 3.56C12.9612 3.5992 13.0323 3.62004 13.105 3.62004C13.1777 3.62004 13.2488 3.5992 13.31 3.56L14 2.76C14.1552 2.60369 14.3398 2.47962 14.5432 2.39497C14.7466 2.31031 14.9647 2.26672 15.185 2.26672C15.4053 2.26672 15.6234 2.31031 15.8268 2.39497C16.0302 2.47962 16.2148 2.60369 16.37 2.76L17.74 4.1C17.8981 4.25526 18.0238 4.44043 18.1096 4.64474C18.1955 4.84905 18.2398 5.06839 18.24 5.29C18.2448 5.51529 18.2029 5.73914 18.1168 5.94741C18.0308 6.15567 17.9025 6.34383 17.74 6.5L17 7.24C16.9643 7.29509 16.9453 7.35934 16.9453 7.425C16.9453 7.49066 16.9643 7.55491 17 7.61C17.06 7.76 17.16 7.87 17.3 7.87H18.39C18.8242 7.89058 19.2338 8.07767 19.5336 8.39241C19.8335 8.70714 20.0005 9.12531 20 9.56V11.5C20 11.9456 19.823 12.3729 19.5079 12.6879C19.1929 13.003 18.7656 13.18 18.32 13.18H17.23C17.1658 13.1854 17.1044 13.209 17.0531 13.2479C17.0017 13.2869 16.9625 13.3396 16.94 13.4C16.9043 13.4551 16.8853 13.5193 16.8853 13.585C16.8853 13.6507 16.9043 13.7149 16.94 13.77L17.71 14.54C17.8663 14.6952 17.9904 14.8798 18.075 15.0832C18.1597 15.2866 18.2033 15.5047 18.2033 15.725C18.2033 15.9453 18.1597 16.1634 18.075 16.3668C17.9904 16.5702 17.8663 16.7548 17.71 16.91L16.4 18.24C16.2466 18.3978 16.0632 18.5234 15.8605 18.6092C15.6579 18.6951 15.4401 18.7396 15.22 18.74C14.7735 18.7341 14.3467 18.5548 14.03 18.24L13.26 17.5C13.2049 17.4643 13.1407 17.4453 13.075 17.4453C13.0093 17.4453 12.9451 17.4643 12.89 17.5C12.74 17.56 12.63 17.66 12.63 17.8V18.89C12.6094 19.3242 12.4223 19.7338 12.1076 20.0336C11.7929 20.3335 11.3747 20.5005 10.94 20.5ZM9.37 18.5H10.63V17.73C10.6343 17.2689 10.7753 16.8193 11.0352 16.4384C11.2951 16.0574 11.6622 15.7622 12.09 15.59C12.5196 15.4022 12.9953 15.3467 13.4566 15.4304C13.9179 15.5141 14.3438 15.7333 14.68 16.06L15.22 16.6L16.1 15.72L15.56 15.17C15.2353 14.8389 15.0164 14.4188 14.9309 13.963C14.8454 13.5072 14.8973 13.0362 15.08 12.61C15.2537 12.1841 15.5497 11.8191 15.9305 11.561C16.3113 11.303 16.76 11.1634 17.22 11.16H18V9.87H17.23C16.7689 9.86574 16.3193 9.72473 15.9384 9.46483C15.5574 9.20493 15.2622 8.83782 15.09 8.41C14.9022 7.98043 14.8467 7.50467 14.9304 7.04339C15.0141 6.5821 15.2333 6.1562 15.56 5.82L16.1 5.28L15.22 4.4L14.67 4.94C14.3337 5.24716 13.9167 5.45185 13.468 5.52995C13.0193 5.60806 12.5576 5.55633 12.1373 5.38086C11.717 5.20539 11.3556 4.91348 11.0957 4.53952C10.8357 4.16555 10.688 3.72509 10.67 3.27V2.5H9.37V3.27C9.36574 3.73115 9.22473 4.18066 8.96483 4.56161C8.70493 4.94257 8.33782 5.23782 7.91 5.41C7.48043 5.59777 7.00467 5.65335 6.54339 5.56964C6.0821 5.48593 5.6562 5.26673 5.32 4.94L4.78 4.4L3.9 5.28L4.44 5.83C4.74716 6.16628 4.95185 6.58331 5.02995 7.03201C5.10806 7.48071 5.05633 7.94238 4.88086 8.36267C4.70539 8.78296 4.41348 9.14436 4.03952 9.40432C3.66555 9.66427 3.22509 9.81196 2.77 9.83H2V11.09H2.77C3.23115 11.0943 3.68066 11.2353 4.06161 11.4952C4.44257 11.7551 4.73782 12.1222 4.91 12.55C5.09777 12.9796 5.15335 13.4553 5.06964 13.9166C4.98593 14.3779 4.76673 14.8038 4.44 15.14L3.9 15.68L4.78 16.56L5.33 16.02C5.66628 15.7128 6.08331 15.5082 6.53201 15.43C6.98071 15.3519 7.44238 15.4037 7.86267 15.5791C8.28296 15.7546 8.64436 16.0465 8.90432 16.4205C9.16427 16.7945 9.31196 17.2349 9.33 17.69L9.37 18.5Z" fill="white"/>
<path d="M10 14C9.30777 14 8.63108 13.7947 8.05551 13.4101C7.47993 13.0256 7.03133 12.4789 6.76642 11.8394C6.50152 11.1999 6.4322 10.4961 6.56725 9.81719C6.7023 9.13825 7.03565 8.51461 7.52513 8.02513C8.01461 7.53565 8.63825 7.2023 9.31719 7.06725C9.99612 6.9322 10.6999 7.00152 11.3394 7.26642C11.9789 7.53133 12.5256 7.97993 12.9101 8.55551C13.2947 9.13108 13.5 9.80777 13.5 10.5C13.5 11.4283 13.1313 12.3185 12.4749 12.9749C11.8185 13.6313 10.9283 14 10 14ZM10 9C9.70333 9 9.41332 9.08797 9.16665 9.2528C8.91997 9.41762 8.72771 9.65189 8.61418 9.92598C8.50065 10.2001 8.47095 10.5017 8.52882 10.7926C8.5867 11.0836 8.72956 11.3509 8.93934 11.5607C9.14912 11.7704 9.41639 11.9133 9.70737 11.9712C9.99834 12.0291 10.2999 11.9994 10.574 11.8858C10.8481 11.7723 11.0824 11.58 11.2472 11.3334C11.412 11.0867 11.5 10.7967 11.5 10.5C11.5 10.1022 11.342 9.72065 11.0607 9.43934C10.7794 9.15804 10.3978 9 10 9Z" fill="white"/>
</svg>
