<svg width="19" height="16" viewBox="0 0 19 16" fill="none" xmlns="http://www.w3.org/2000/svg">
<path id="Vector" fill-rule="evenodd" clip-rule="evenodd" d="M17.0224 13.7604C18.2289 12.8778 19 11.5735 19 10.123C19 7.46645 16.4374 5.3123 13.277 5.3123C10.1167 5.3123 7.55408 7.46645 7.55408 10.123C7.55408 12.7804 10.1167 14.9345 13.277 14.9345C13.9302 14.9345 14.5603 14.8411 15.1454 14.6709L15.3132 14.6454C15.4233 14.6454 15.523 14.6797 15.6172 14.734L16.8704 15.4641L16.9805 15.5C17.0858 15.5 17.1713 15.4137 17.1713 15.3075L17.1404 15.1669L16.8823 14.1965L16.8625 14.0735C16.8625 13.9441 16.9258 13.8299 17.0224 13.7604ZM6.86771 0C3.07483 0 0 2.58466 0 5.77396C0 7.51358 0.924667 9.07987 2.37263 10.1382C2.489 10.2212 2.565 10.3586 2.565 10.5144L2.54125 10.6613L2.23171 11.8259L2.1945 11.9944C2.1945 12.1222 2.29742 12.226 2.42329 12.226L2.55629 12.1829L4.05967 11.3067C4.17208 11.2412 4.29163 11.2005 4.42383 11.2005L4.62571 11.2308C5.32713 11.4345 6.08396 11.5479 6.86771 11.5479L7.24454 11.5383C7.09571 11.0879 7.01417 10.6134 7.01417 10.1238C7.01417 7.21566 9.81825 4.85783 13.277 4.85783L13.6499 4.86741C13.133 2.10942 10.2933 0 6.86771 0ZM11.3691 9.35384C10.948 9.35384 10.6068 9.00879 10.6068 8.58387C10.6068 8.15815 10.948 7.8139 11.3691 7.8139C11.7911 7.8139 12.1323 8.15815 12.1323 8.58387C12.1323 9.00879 11.7911 9.35384 11.3691 9.35384ZM15.185 9.35384C14.763 9.35384 14.4218 9.00879 14.4218 8.58387C14.4218 8.15815 14.763 7.8139 15.185 7.8139C15.6061 7.8139 15.9473 8.15815 15.9473 8.58387C15.9473 9.00879 15.6061 9.35384 15.185 9.35384ZM4.57821 4.84984C4.07233 4.84984 3.66304 4.4361 3.66304 3.92652C3.66304 3.41613 4.07233 3.0024 4.57821 3.0024C5.08408 3.0024 5.49417 3.41613 5.49417 3.92652C5.49417 4.4361 5.08408 4.84984 4.57821 4.84984ZM9.15642 4.84984C8.65054 4.84984 8.24125 4.4361 8.24125 3.92652C8.24125 3.41613 8.65054 3.0024 9.15642 3.0024C9.66229 3.0024 10.0724 3.41613 10.0724 3.92652C10.0724 4.4361 9.66229 4.84984 9.15642 4.84984Z" fill="#5E5E5E"/>
</svg>
