<svg width="23" height="29" viewBox="0 0 23 29" fill="none" xmlns="http://www.w3.org/2000/svg">
<path d="M11.3735 27.4987C9.85847 27.4861 8.36133 27.177 6.97037 26.5896C5.57941 26.0023 4.32277 25.1486 3.27453 24.0789C1.1463 21.8957 -0.0281268 18.9875 0.000511719 15.9715C0.0291502 12.9555 1.2586 10.0691 3.42792 7.9249L10.5452 0.950334C10.6839 0.804332 10.8527 0.688739 11.0404 0.611177C11.2281 0.533615 11.4305 0.495847 11.6343 0.500362C11.8383 0.503136 12.0397 0.545689 12.2267 0.625529C12.4137 0.70537 12.5826 0.820893 12.7234 0.965333L19.7179 8.04489C21.8482 10.2261 23.0254 13.1333 22.9996 16.1493C22.9738 19.1653 21.7471 22.0528 19.5799 24.1989C18.5125 25.2645 17.2345 26.1066 15.8237 26.6739C14.4129 27.2411 12.8988 27.5218 11.3735 27.4987Z" fill="#5A8C93"/>
<g filter="url(#filter0_d_2519_8844)">
<ellipse cx="11.6546" cy="16.0254" rx="6.85577" ry="6.75" fill="white"/>
<rect x="8.91211" y="13.3252" width="5.48462" height="5.4" fill="#5A8C93"/>
</g>
<defs>
<filter id="filter0_d_2519_8844" x="0.798828" y="7.27539" width="21.7109" height="21.5" filterUnits="userSpaceOnUse" color-interpolation-filters="sRGB">
<feFlood flood-opacity="0" result="BackgroundImageFix"/>
<feColorMatrix in="SourceAlpha" type="matrix" values="0 0 0 0 0 0 0 0 0 0 0 0 0 0 0 0 0 0 127 0" result="hardAlpha"/>
<feOffset dy="2"/>
<feGaussianBlur stdDeviation="2"/>
<feComposite in2="hardAlpha" operator="out"/>
<feColorMatrix type="matrix" values="0 0 0 0 0 0 0 0 0 0 0 0 0 0 0 0 0 0 0.25 0"/>
<feBlend mode="normal" in2="BackgroundImageFix" result="effect1_dropShadow_2519_8844"/>
<feBlend mode="normal" in="SourceGraphic" in2="effect1_dropShadow_2519_8844" result="shape"/>
</filter>
</defs>
</svg>
