<svg width="50" height="50" viewBox="0 0 50 50" fill="none" xmlns="http://www.w3.org/2000/svg">
<path d="M22.838 34C22.838 34.8284 23.5096 35.5 24.338 35.5H25.7183C26.5467 35.5 27.2183 34.8284 27.2183 34V27.7183C27.2183 27.4422 27.4422 27.2183 27.7183 27.2183H34C34.8284 27.2183 35.5 26.5467 35.5 25.7183V24.338C35.5 23.5096 34.8284 22.838 34 22.838H27.7183C27.4422 22.838 27.2183 22.6142 27.2183 22.338V16C27.2183 15.1716 26.5467 14.5 25.7183 14.5H24.338C23.5096 14.5 22.838 15.1716 22.838 16V22.338C22.838 22.6142 22.6142 22.838 22.338 22.838H16C15.1716 22.838 14.5 23.5096 14.5 24.338V25.7183C14.5 26.5467 15.1716 27.2183 16 27.2183H22.338C22.6142 27.2183 22.838 27.4422 22.838 27.7183V34Z" fill="#231F20" stroke="#231F20"/>
<rect x="1.5" y="1.5" width="47" height="47" rx="23.5" stroke="#231F20" stroke-width="3"/>
</svg>
