<svg width="26" height="26" viewBox="0 0 26 26" fill="none" xmlns="http://www.w3.org/2000/svg">
<g id="close icon">
<path id="left bar menu" d="M21.4333 1.56681L1.19429 21.8058C0.534734 22.4653 0.635181 23.6351 1.41864 24.4186L1.56797 24.5679C2.35143 25.3514 3.52122 25.4518 4.18077 24.7923L24.4197 4.55329C25.0793 3.89374 24.9788 2.72395 24.1954 1.94049L24.0461 1.79116C23.2626 1.0077 22.0928 0.907256 21.4333 1.56681Z" fill="#393939"/>
<path id="left bar menu_2" d="M24.4333 21.4332L4.19429 1.19422C3.53473 0.534673 2.36494 0.635119 1.58148 1.41858L1.43216 1.5679C0.648697 2.35136 0.54825 3.52116 1.2078 4.18071L21.4468 24.4197C22.1063 25.0792 23.2761 24.9788 24.0596 24.1953L24.2089 24.046C24.9924 23.2625 25.0928 22.0927 24.4333 21.4332Z" fill="#393939"/>
</g>
</svg>
