<svg width="14" height="14" viewBox="0 0 14 14" fill="none" xmlns="http://www.w3.org/2000/svg">
<g id=" stream to creator icon">
<path d="M8.49977 8.76428C6.75416 8.75116 5.17048 7.11141 5.79447 5.22805C6.14596 4.16737 6.6653 3.17602 7.18661 2.18843C7.5302 1.54003 7.89354 0.904743 8.25491 0.26571C8.44645 -0.0734829 8.60837 -0.0940968 8.80189 0.239474C9.30148 1.09964 9.80304 1.9598 10.2414 2.84808C10.6383 3.65015 11.0076 4.47096 11.2939 5.31238C11.7441 6.63729 11.0352 8.00156 9.67074 8.5319C9.30543 8.67433 8.9026 8.72867 8.51556 8.82237L8.49977 8.76428ZM8.57875 0.707973C8.55111 0.707973 8.52544 0.707973 8.49779 0.707973C8.2865 1.09214 8.07126 1.47444 7.86195 1.86048C7.26955 2.9474 6.66925 4.03057 6.30196 5.20931C6.19731 5.54663 6.0966 5.91581 6.13017 6.25875C6.29012 7.88163 8.03374 8.80176 9.58978 8.10651C10.6087 7.65113 11.1557 6.55484 10.9089 5.70404C10.7608 5.19619 10.6107 4.68084 10.3816 4.20297C9.88203 3.16291 9.32912 2.14345 8.79794 1.1165C8.72685 0.979702 8.65181 0.842901 8.57875 0.707973Z" fill="#231F20"/>
<path d="M8.34377 13.9946C6.2131 13.9046 4.55438 13.4736 3.02994 12.5966C2.75744 12.4392 2.46321 12.3155 2.16701 12.1993C1.86094 12.0775 1.545 12.0813 1.233 12.2087C0.992089 12.308 0.743281 12.3905 0.496448 12.4748C0.427335 12.4992 0.346373 12.5366 0.285159 12.5216C0.186426 12.4954 0.0620217 12.4486 0.0225284 12.3755C-0.00511688 12.323 0.0699204 12.1618 0.139034 12.1356C0.98419 11.802 1.82342 11.4403 2.74757 11.9407C3.34589 12.2649 3.95211 12.5816 4.584 12.8383C5.75103 13.3125 6.9852 13.5205 8.25293 13.5617C8.78807 13.5786 9.25211 13.4193 9.66679 13.1063C10.9641 12.1262 12.1312 11.0168 13.2627 9.87368C13.4029 9.73126 13.4779 9.50638 13.5213 9.30961C13.545 9.20279 13.466 9.02664 13.3732 8.95918C13.2765 8.89171 13.0889 8.87672 12.9704 8.91607C12.8164 8.96854 12.6821 9.09035 12.5538 9.19717C12.0719 9.59821 11.596 10.0067 11.1182 10.4115C11.0115 10.5015 10.895 10.6008 10.7627 10.4546C10.6423 10.3234 10.7074 10.2091 10.8239 10.1117C11.3946 9.62819 11.9515 9.13158 12.538 8.66683C12.9902 8.31077 13.5628 8.37261 13.8551 8.79426C13.9558 8.93856 14.0071 9.14283 13.9992 9.31711C13.9834 9.64131 13.859 9.94677 13.6043 10.1773C12.4669 11.2023 11.3295 12.2293 10.1802 13.2431C9.56806 13.7828 8.83546 14.0414 8.34772 13.9946H8.34377Z" fill="#231F20"/>
<path d="M7.62499 12.1C6.70085 12.3099 5.9485 12.0082 5.27909 11.4441C5.15073 11.3354 4.99473 11.2529 4.8802 11.133C4.83084 11.0805 4.82096 10.9494 4.85453 10.88C4.90982 10.7657 5.02238 10.7545 5.14284 10.8332C5.48248 11.0543 5.81225 11.2923 6.17164 11.476C6.41649 11.6015 6.70282 11.7008 6.9773 11.7158C7.8501 11.7664 8.72093 11.7083 9.57793 11.534C9.80897 11.4872 10.0341 11.4047 10.2493 11.3092C10.3362 11.2717 10.4448 11.148 10.4349 11.0768C10.4231 10.9831 10.3204 10.8519 10.2276 10.8238C9.96497 10.7432 9.69049 10.6833 9.41403 10.6551C9.11191 10.6252 8.80386 10.6233 8.50174 10.6439C7.63881 10.7039 6.91608 10.3628 6.21508 9.95801C5.70166 9.66192 5.21985 9.31149 4.68471 9.06224C3.86128 8.67995 2.99045 8.61061 2.0979 8.88421C1.56672 9.04725 1.02171 9.16531 0.482625 9.30212C0.427335 9.31711 0.360196 9.34522 0.314779 9.32648C0.206172 9.28525 0.0501737 9.24215 0.0146298 9.15969C-0.0465848 9.01539 0.095591 8.94231 0.231843 8.90858C0.765002 8.7774 1.30606 8.67433 1.82737 8.51316C2.8147 8.20958 3.78821 8.23206 4.74593 8.59C5.06187 8.70806 5.34623 8.90858 5.6444 9.07161C6.23482 9.39394 6.80748 9.75 7.4216 10.0255C7.73557 10.166 8.11866 10.1829 8.47409 10.2129C8.95591 10.2541 9.4476 10.2204 9.92547 10.286C10.1861 10.3216 10.4606 10.4509 10.6699 10.6083C11.0155 10.8688 10.9878 11.3073 10.6423 11.5678C10.2533 11.8601 9.77342 11.9276 9.30345 11.9932C8.74265 12.07 8.17789 12.1112 7.61314 12.1675C7.61709 12.1431 7.61906 12.1206 7.62301 12.0962L7.62499 12.1Z" fill="#231F20"/>
<path d="M8.82559 7.60053C8.71895 7.60053 8.65181 7.61927 8.62219 7.59678C8.54123 7.53119 8.44842 7.45623 8.42078 7.36628C8.40893 7.32693 8.54123 7.22386 8.62614 7.19387C8.7624 7.14515 8.91444 7.1414 9.05465 7.10017C9.651 6.92776 9.94917 6.52673 10.0124 5.95141C10.0301 5.79212 10.0499 5.6422 10.2789 5.67968C10.4843 5.71341 10.4843 5.83522 10.4725 6.00951C10.4033 7.05332 9.44168 7.56492 8.82559 7.59865V7.60053Z" fill="#231F20"/>
</g>
</svg>
